**ABCDEFGHIJKLMNOPQRSTUVWXYZabcdefghijklmnopqrstuvwxyz**************************
**PARASOLID !"#$%&'()*+,-./:;<=>?@[\]^_`{|}~0123456789**************************
**PART1;
MC=unknown;
MC_MODEL=unknown;
MC_ID=unknown;
OS=WindowsNT;
OS_RELEASE=6.1;
FRU=unknown;
APPL=IronCAD;
SITE=IronCAD, LLC, Atlanta, GA;
USER=A;
FORMAT=text;
GUISE=transmit;
KEY=E:\2016年批示\pcb package lib allegro\3d\step\r0603;
FILE=E:\2016年批示\pcb package lib allegro\3d\step\r0603.X_T;
DATE=unknown;
**PART2;
SCH=SCH_2601178_26105;
USFLD_SIZE=0;
**PART3;
**END_OF_HEADER*****************************************************************
T51 : TRANSMIT FILE created by modeller version 260117817 SCH_1100000_110040 10
 1 7 2 3 0 0 0 0 0 1e3 1e-8 0 4 5 1 0 1 6 81 1 2 7 7 1 0 0 8 0 0 70 3 0 1 0 0 4
 1 20 4 9 9 1 T11 6 4 8 1 10 11 1 12 0 0 0 81 1 8 6 7 6 0 0 13 2 14 12 10 452 15
 16 0 0 0 0 1e3 1e-8 6 17 18 1 0 1 1 19 20 21 22 23 24 25 100 11 5 6 0 0 -1 0 0
 0 1 0 0 0 -1 4e-4 0 .0016 1 3 ?11 12 1 13 1 5 26 1 0 6 0 0 81 1 13 3 7 12 0 0 0
 8 27 10 5 7 28 29 0 0 0 0 0 1e3 1e-8 12 1 0 1 0 1 30 100 26 2 12 0 0 1 0 0 0 1
 0 0 0 1 0 0 0 1 0 ?81 1 28 7 7 5 0 0 31 0 32 70 29 0 5 0 0 4 1 20 4 33 33 1 T11
 30 4 31 1 34 35 5 36 0 0 0 81 1 31 6 7 30 0 0 37 28 38 12 34 402 39 40 0 0 0 0
 1e3 1e-8 30 41 17 1 0 1 1 42 43 44 45 46 47 48 100 35 5 30 0 0 1 0 0 0 1 0 0 0
 1 -4e-4 0 8e-4 1 1 ?11 36 1 37 1 49 50 5 0 30 0 0 81 1 37 3 7 36 0 0 0 31 51 12
 49 171 52 53 0 0 0 0 1e3 1e-8 36 54 55 1 0 1 1 56 57 58 59 60 61 62 100 50 2 36
 0 0 1 0 0 0 1 0 0 0 1 0 0 8e-4 1 1 ?81 2 52 171 63 49 64 0 0 0 65 0 70 53 0 49
 0 0 4 4 20 4 66 66 1 T13 56 88 0 49 0 67 0 0 68 0 50 57 87 0 67 69 0 0 +-8e-4 -
2e-4 8e-4 0 1 0 0 0 1 30 58 83 0 61 70 0 0 +8e-4 -2e-4 8e-4 0 0 -1 29 59 64 0 71
 72 0 -8e-4 -2e-4 0 19 60 1 0 49 68 0 73 V16 61 71 74 ?75 0 76 58 0 0 49 18 62 1
5 77 78 0 79 80 ?49 81 0 77 125 81 62 0 0 82 83 17 78 0 84 85 86 62 87 88 0 89 +
18 79 10 83 86 62 90 91 ?49 29 80 18 0 62 91 92 -8e-4 -2e-4 8e-4 29 91 13 0 79 9
3 80 -8e-4 2e-4 8e-4 29 92 67 0 94 80 95 8e-4 -2e-4 0 18 94 58 96 97 98 0 92 ?49
 29 95 66 0 98 92 72 8e-4 2e-4 0 18 98 57 99 100 101 94 95 ?49 29 72 65 0 101 95
 59 -8e-4 2e-4 0 18 101 56 102 103 71 98 72 ?49 81 0 102 130 81 101 0 0 104 99 1
7 103 0 105 106 107 101 108 109 0 110 +18 71 55 104 111 112 101 59 ?49 81 0 104
 129 81 71 0 0 113 102 17 111 0 114 89 110 71 115 116 0 117 +18 112 2 113 118 90
 71 119 ?49 81 0 113 128 81 112 0 0 120 104 17 118 0 121 75 122 112 123 124 0 85
 -18 90 5 120 123 79 112 93 ?49 29 119 4 0 112 0 93 8e-4 -2e-4 8e-4 29 93 8 0 90
 119 91 8e-4 2e-4 8e-4 81 0 120 127 81 90 0 0 83 113 17 123 0 84 86 85 90 118 12
4 0 122 +15 84 22 125 85 126 0 17 86 0 84 78 123 79 127 128 0 106 +17 85 0 84 12
3 78 112 129 130 0 131 +16 124 6 132 ?123 128 130 133 0 0 49 17 122 0 121 118 10
0 90 107 76 0 127 -15 121 76 134 100 135 0 17 100 0 121 122 75 98 97 136 0 107 +
17 107 0 105 103 127 98 122 76 0 108 +16 76 70 137 ?107 61 138 70 0 0 49 17 127
 0 105 107 106 90 86 128 0 0 -15 105 74 139 103 140 0 17 106 0 105 127 103 79 11
0 138 0 87 -16 128 11 141 ?86 88 124 142 0 0 49 81 0 141 118 81 128 0 0 143 132
 16 88 16 143 ?78 144 128 145 0 0 49 30 142 12 0 128 133 145 0 +8e-4 2e-4 8e-4 -
1 0 0 30 133 7 0 124 0 142 0 +8e-4 -2e-4 8e-4 0 1 0 30 145 17 0 88 142 146 0 +-8
e-4 2e-4 8e-4 0 -1 0 30 146 21 0 130 145 147 0 +-8e-4 -2e-4 8e-4 1 0 0 16 130 20
 148 ?85 124 116 146 0 0 49 30 147 63 0 136 146 149 0 +8e-4 -2e-4 0 0 1 0 16 136
 51 150 ?100 109 151 147 0 0 49 30 149 62 0 109 147 152 0 +8e-4 2e-4 0 -1 0 0 16
 109 49 153 ?103 116 136 149 0 0 49 30 152 61 0 116 149 154 0 +-8e-4 2e-4 0 0 -1
 0 16 116 47 155 ?111 130 109 152 0 0 49 30 154 60 0 151 152 156 0 +-8e-4 -2e-4
 0 1 0 0 16 151 53 82 ?157 136 0 154 0 0 49 30 156 80 0 144 154 158 0 +-8e-4 -2e
-4 8e-4 0 0 -1 16 144 68 159 ?117 138 88 156 0 0 49 30 158 81 0 138 156 70 0 +-8
e-4 2e-4 8e-4 0 0 -1 16 138 69 160 ?110 76 144 158 0 0 49 30 70 82 0 76 158 58 0
 +8e-4 2e-4 8e-4 0 0 -1 81 0 160 115 81 138 0 0 137 159 17 110 0 114 111 87 101
 106 138 0 115 +15 114 72 161 111 162 0 17 87 0 114 110 89 79 78 88 0 0 -17 115
 0 163 108 164 101 111 116 0 0 -15 163 46 165 164 166 0 17 108 0 163 97 115 98 1
03 109 0 0 -17 164 0 163 115 97 71 157 151 0 0 -17 97 0 163 164 108 94 100 136 0
 75 -17 157 0 167 131 117 94 164 151 0 0 +15 167 78 0 157 67 0 17 131 0 167 129
 157 112 75 61 0 0 -17 117 0 167 157 129 71 89 144 0 164 +17 129 0 167 117 131 6
2 85 130 0 0 -17 89 0 114 87 111 62 117 144 0 129 -17 75 0 121 100 118 94 131 61
 0 157 +14 67 79 168 ?135 0 167 56 57 -0 0 135 0 73 81 1 168 165 169 67 170 0 0
 171 172 14 135 77 171 ?140 67 121 56 69 -0 0 140 67 73 13 73 3 0 0 0 0 0 0 60 6
7 81 1 171 166 169 135 173 0 168 174 175 14 140 75 174 ?162 135 105 56 176 -0 0
 162 135 73 50 69 86 0 135 176 57 0 +8e-4 -2e-4 8e-4 -1 0 0 0 0 1 50 176 85 0 14
0 177 69 0 +8e-4 2e-4 8e-4 0 -1 0 0 0 -1 50 177 84 0 162 178 176 0 +-8e-4 2e-4 8
e-4 1 0 0 0 0 -1 14 162 73 179 ?126 140 114 56 177 -0 0 126 140 73 50 178 59 0 1
66 180 177 0 +-.025 -.025 0 0 0 1 1 0 0 14 166 44 181 ?0 126 163 56 178 -0 0 0 1
26 73 50 180 24 0 126 0 178 0 +-.025 -.025 8e-4 0 0 1 1 0 0 14 126 23 182 ?166 1
62 84 56 180 +0 0 166 162 73 81 1 182 169 169 126 183 0 179 181 184 80 1 169 0 1
85 8001 0 0 0 0 3 5 0 0 FFFFTFTFFFFFFF2 81 0 183 111 81 126 0 182 186 187 81 1 1
79 168 169 162 188 0 174 182 189 81 1 181 170 169 166 186 0 182 0 190 83 3 184 1
 1 1 81 0 186 110 81 166 0 181 188 183 83 3 190 1 1 1 80 0 81 191 192 9000 0 0 0
 0 3 6 0 0 TTTTTTTTTFFFTF81 0 188 109 81 162 0 179 193 186 81 0 193 108 81 140 0
 174 173 188 81 1 174 167 169 140 193 0 171 179 194 81 0 173 107 81 135 0 171 17
0 193 81 0 170 106 81 67 0 168 0 173 83 3 194 1 1 1 79 29 192 3D/EYEEntityCallba
ckAttribute83 3 189 1 1 1 81 0 187 112 81 49 0 64 183 74 81 1 64 164 7 49 187 52
 0 0 195 81 0 74 113 81 61 0 0 187 137 81 0 137 114 81 76 0 0 74 160 80 1 7 196
 197 8017 0 0 0 0 0 0 0 0 TTTTTTTTTTTTTF3 84 5 195 零件179 13 197 SDL/TYSA_NAME7
9 15 185 SDL/TYSA_COLOUR83 3 175 1 1 1 83 3 172 1 1 1 81 0 165 134 81 163 0 0 13
9 161 81 0 139 133 81 105 0 0 96 165 81 0 161 135 81 114 0 0 165 125 81 0 125 13
6 81 84 0 0 161 134 81 0 134 137 81 121 0 0 125 0 81 0 96 132 81 94 0 0 99 139 8
1 0 99 131 81 98 0 0 102 96 81 0 159 116 81 144 0 0 160 143 81 0 143 117 81 88 0
 0 159 141 81 0 82 124 81 151 0 0 150 77 81 0 150 123 81 136 0 0 153 82 81 0 153
 122 81 109 0 0 155 150 81 0 155 121 81 116 0 0 148 153 81 0 148 120 81 130 0 0
 132 155 81 0 132 119 81 124 0 0 141 148 81 0 83 126 81 79 0 0 77 120 19 68 89 0
 49 0 60 56 S74 20 66 4 0 134 64 181 52 0 0 0 0 0 0 0 0 0 0 0 0 0 0 0 0 80 2 63
 198 199 8004 0 0 0 0 3 5 0 0 FFTFFFFFFFFFFF2 3 83 1 65 78e2 79 16 199 SDL/TYSA_
DENSITY84 5 51 零件181 2 39 302 63 34 200 0 0 0 201 0 70 40 0 34 0 0 4 4 20 4 20
2 202 1 T13 42 156 0 34 0 203 0 0 204 0 50 43 155 0 203 205 0 0 +-2e-4 2e-4 8e-4
 -1 0 0 0 0 1 30 44 147 0 47 206 0 0 +-2e-4 3e-4 8e-4 0 0 -1 29 45 108 0 207 208
 0 -2e-4 2e-4 0 19 46 1 0 34 204 0 209 V16 47 123 210 ?211 0 212 44 0 0 34 18 48
 35 213 214 0 215 216 ?34 81 0 213 225 81 48 0 0 217 218 17 214 0 219 220 221 48
 222 223 0 224 +18 215 30 218 221 48 225 226 ?34 29 216 38 0 48 226 227 -2e-4 2e
-4 8e-4 29 226 33 0 215 228 216 -4e-4 2e-4 8e-4 29 227 115 0 229 216 230 -2e-4 3
e-4 0 18 229 98 231 232 233 0 227 ?34 29 230 114 0 233 227 234 -5e-4 3e-4 0 18 2
33 97 235 236 237 229 230 ?34 29 234 113 0 237 230 238 -5e-4 -3e-4 0 18 237 96 2
39 240 241 233 234 ?34 29 238 112 0 241 234 242 -2e-4 -3e-4 0 18 241 95 243 244
 245 237 238 ?34 29 242 111 0 245 238 246 -2e-4 -2e-4 0 18 245 94 247 248 249 24
1 242 ?34 29 246 110 0 249 242 208 -4e-4 -2e-4 0 18 249 93 250 251 252 245 246 ?
34 29 208 109 0 252 246 45 -4e-4 2e-4 0 18 252 92 253 254 207 249 208 ?34 81 0 2
53 234 81 252 0 0 255 250 17 254 0 256 257 258 252 259 260 0 261 +18 207 91 255
 262 263 252 45 ?34 81 0 255 233 81 207 0 0 264 253 17 262 0 265 224 261 207 266
 267 0 268 +18 263 2 264 269 270 207 271 ?34 81 0 264 232 81 263 0 0 272 255 17
 269 0 273 211 274 263 275 276 0 220 -18 270 5 272 275 277 263 278 ?34 29 271 4
 0 263 0 278 -2e-4 3e-4 8e-4 29 278 8 0 270 271 279 -5e-4 3e-4 8e-4 29 279 13 0
 277 278 280 -5e-4 -3e-4 8e-4 18 277 10 281 282 283 270 279 ?34 29 280 18 0 283
 279 284 -2e-4 -3e-4 8e-4 18 283 15 285 286 287 277 280 ?34 29 284 23 0 287 280
 228 -2e-4 -2e-4 8e-4 18 287 20 288 289 225 283 284 ?34 29 228 28 0 225 284 226
 -4e-4 -2e-4 8e-4 18 225 25 290 291 215 287 228 ?34 81 0 290 227 81 225 0 0 218
 288 17 291 0 219 221 289 225 292 293 0 294 +15 219 42 0 220 295 0 17 221 0 219
 214 291 215 296 297 0 257 +17 289 0 219 291 286 287 298 299 0 300 +17 292 0 301
 302 294 287 291 293 0 0 -16 293 26 303 ?291 297 299 304 0 0 34 17 294 0 301 292
 251 225 258 305 0 296 -15 301 128 0 251 306 0 17 251 0 301 294 302 249 307 308
 0 258 +17 258 0 256 254 296 249 294 305 0 259 +16 305 118 309 ?258 310 311 312
 0 0 34 17 296 0 256 258 257 225 221 297 0 0 -15 256 126 0 254 313 0 17 257 0 25
6 296 254 215 261 311 0 222 -16 297 31 314 ?221 223 293 315 0 0 34 81 0 314 210
 81 297 0 0 316 303 16 223 36 316 ?214 317 297 318 0 0 34 30 315 32 0 297 304 31
8 0 +-4e-4 -2e-4 8e-4 0 1 0 30 304 27 0 293 319 315 0 +-2e-4 -2e-4 8e-4 -1 0 0 3
0 318 37 0 223 315 320 0 +-4e-4 2e-4 8e-4 1 0 0 30 320 41 0 321 318 322 0 +-2e-4
 2e-4 8e-4 0 1 0 16 321 40 323 ?220 276 267 320 0 0 34 30 322 107 0 324 320 325
 0 +-2e-4 3e-4 0 -1 0 0 16 324 87 326 ?236 327 328 322 0 0 34 30 325 106 0 327 3
22 329 0 +-5e-4 3e-4 0 0 -1 0 16 327 85 330 ?240 331 324 325 0 0 34 30 329 105 0
 331 325 332 0 +-5e-4 -3e-4 0 1 0 0 16 331 83 333 ?244 334 327 329 0 0 34 30 332
 104 0 334 329 335 0 +-2e-4 -3e-4 0 -542101086242752e-30 1 0 16 334 81 336 ?248
 308 331 332 0 0 34 30 335 103 0 308 332 337 0 +-2e-4 -2e-4 0 -1 0 0 16 308 79 3
38 ?251 260 334 335 0 0 34 30 337 102 0 260 335 339 0 +-4e-4 -2e-4 0 0 1 0 16 26
0 77 340 ?254 267 308 337 0 0 34 30 339 101 0 267 337 341 0 +-4e-4 2e-4 0 1 0 0
 16 267 75 342 ?262 321 260 339 0 0 34 30 341 100 0 328 339 343 0 +-2e-4 2e-4 0
 0 1 0 16 328 89 217 ?344 324 0 341 0 0 34 30 343 140 0 317 341 345 0 +-2e-4 2e-
4 8e-4 0 0 -1 16 317 116 346 ?268 311 223 343 0 0 34 30 345 141 0 311 343 312 0
 +-4e-4 2e-4 8e-4 0 0 -1 16 311 117 347 ?261 305 317 345 0 0 34 30 312 142 0 305
 345 348 0 +-4e-4 -2e-4 8e-4 0 0 -1 30 348 143 0 310 312 349 0 +-2e-4 -2e-4 8e-4
 0 0 -1 16 310 119 350 ?302 351 305 348 0 0 34 30 349 144 0 351 348 352 0 +-2e-4
 -3e-4 8e-4 0 0 -1 16 351 120 353 ?354 355 310 349 0 0 34 30 352 145 0 355 349 2
06 0 +-5e-4 -3e-4 8e-4 0 0 -1 16 355 121 356 ?357 212 351 352 0 0 34 30 206 146
 0 212 352 44 0 +-5e-4 3e-4 8e-4 0 0 -1 16 212 122 358 ?359 47 355 206 0 0 34 81
 0 358 202 81 212 0 0 210 356 17 359 0 360 240 361 233 274 212 0 362 +15 360 134
 0 240 363 0 17 240 0 360 364 359 237 362 327 0 357 +17 361 0 360 359 364 270 28
2 365 0 0 -17 274 0 273 269 236 270 359 212 0 361 -17 362 0 366 232 367 233 240
 327 0 0 -15 366 74 0 368 369 0 17 232 0 366 368 362 229 236 324 0 211 -17 367 0
 366 362 370 237 244 331 0 0 -17 370 0 366 367 307 241 248 334 0 0 -17 244 0 371
 372 357 241 367 331 0 354 +15 371 132 0 244 373 0 17 372 0 371 374 244 283 354
 351 0 298 -17 357 0 371 244 374 237 364 355 0 367 +17 354 0 375 248 298 241 372
 351 0 370 +15 375 130 0 248 376 0 17 248 0 375 300 354 245 370 334 0 302 +17 29
8 0 375 354 300 283 289 299 0 0 -17 300 0 375 298 248 287 302 310 0 292 -16 299
 21 377 ?289 293 378 319 0 0 34 81 0 377 212 81 299 0 0 303 379 16 378 16 379 ?2
86 299 365 380 0 0 34 30 319 22 0 299 380 304 0 +-2e-4 -3e-4 8e-4 -5421010862427
52e-30 1 0 30 380 17 0 378 381 319 0 +-5e-4 -3e-4 8e-4 1 0 0 30 381 12 0 365 382
 380 0 +-5e-4 3e-4 8e-4 0 -1 0 16 365 11 383 ?282 378 276 381 0 0 34 30 382 7 0
 276 0 381 0 +-2e-4 3e-4 8e-4 -1 0 0 16 276 6 384 ?275 365 321 382 0 0 34 81 0 3
84 215 81 276 0 0 383 323 17 275 0 219 282 220 270 269 276 0 274 +17 282 0 219 2
86 275 277 361 365 0 364 +17 220 0 219 275 214 263 385 321 0 386 +17 385 0 387 2
68 386 48 220 321 0 0 -17 386 0 387 385 344 263 211 47 0 0 -15 387 138 0 344 203
 0 17 344 0 387 386 268 229 368 328 0 0 +17 211 0 273 236 269 229 386 47 0 344 +
15 273 136 0 236 388 0 17 236 0 273 274 211 233 232 324 0 359 +14 388 137 389 ?3
63 203 273 42 205 -0 0 363 203 209 81 1 389 294 169 388 390 0 391 392 393 14 363
 135 392 ?373 388 360 42 394 -0 0 373 388 209 14 203 139 395 ?388 0 387 42 43 -0
 0 388 0 209 50 205 154 0 388 394 43 0 +-2e-4 3e-4 8e-4 0 -1 0 0 0 -1 13 209 3 0
 0 0 0 0 0 46 203 50 394 153 0 363 396 205 0 +-5e-4 3e-4 8e-4 1 0 0 0 0 -1 50 39
6 152 0 373 397 394 0 +-5e-4 -3e-4 8e-4 0 1 0 0 0 1 14 373 133 398 ?376 363 371
 42 396 -0 0 376 363 209 50 397 151 0 376 399 396 0 +-2e-4 -3e-4 8e-4 -1 -542101
086242752e-30 0 542101086242752e-30 -1 0 14 376 131 400 ?306 373 375 42 397 -0 0
 306 373 209 50 399 150 0 306 401 397 0 +-2e-4 -2e-4 8e-4 0 -1 0 0 0 -1 14 306 1
29 402 ?313 376 301 42 399 -0 0 313 376 209 50 401 149 0 313 403 399 0 +-4e-4 -2
e-4 8e-4 -1 0 0 0 0 1 14 313 127 404 ?405 306 256 42 401 -0 0 405 306 209 50 403
 148 0 405 406 401 0 +-4e-4 2e-4 8e-4 0 1 0 0 0 1 14 405 125 391 ?295 313 265 42
 403 -0 0 295 313 209 50 406 99 0 369 407 403 0 +-5e-4 -3e-4 0 0 0 1 1 0 0 14 36
9 72 408 ?0 295 366 42 406 -0 0 0 295 209 50 407 44 0 295 0 406 0 +-5e-4 -3e-4 8
e-4 0 0 1 1 0 0 14 295 43 409 ?369 405 219 42 407 +0 0 369 405 209 81 1 409 298
 169 295 410 0 402 408 411 81 0 410 199 81 295 0 409 412 413 81 1 402 297 169 30
6 414 0 398 409 415 81 1 408 299 169 369 412 0 409 395 416 83 3 411 1 1 1 81 0 4
12 198 81 369 0 408 417 410 81 1 395 300 169 203 418 0 408 400 419 83 3 416 1 1
 1 81 0 418 192 81 203 0 395 420 421 81 1 400 301 169 376 422 0 395 0 423 83 3 4
19 1 1 1 81 0 422 194 81 376 0 400 421 414 83 3 423 1 1 1 81 0 421 193 81 373 0
 398 418 422 81 0 414 195 81 306 0 402 422 424 81 0 424 196 81 313 0 404 414 417
 81 1 404 292 169 313 424 0 0 391 425 81 0 417 197 81 405 0 391 424 412 81 1 391
 293 169 405 417 0 404 389 426 83 3 426 1 1 1 83 3 425 1 1 1 81 1 398 296 169 37
3 421 0 392 402 427 81 1 392 295 169 363 420 0 389 398 428 83 3 427 1 1 1 81 0 4
20 191 81 363 0 392 390 418 83 3 428 1 1 1 81 0 390 190 81 388 0 389 0 420 83 3
 415 1 1 1 81 0 413 200 81 34 0 200 410 210 81 1 200 291 7 34 413 39 0 0 429 81
 0 210 201 81 47 0 0 413 358 84 5 429 零件115 265 124 0 262 405 0 83 3 393 1 1 1
 17 268 0 387 344 385 207 224 317 0 368 +17 368 0 366 266 232 207 344 328 0 0 -1
7 266 0 366 259 368 252 262 267 0 0 -17 259 0 366 307 266 249 254 260 0 0 -17 30
7 0 366 370 259 245 251 308 0 0 -17 224 0 265 222 262 48 268 317 0 385 -17 222 0
 265 261 224 215 214 223 0 0 -17 261 0 265 262 222 252 257 311 0 266 +17 286 0 2
19 289 282 283 374 378 0 372 +17 364 0 360 361 240 277 357 355 0 374 -17 374 0 3
71 357 372 277 286 378 0 0 -81 0 383 214 81 365 0 0 379 384 81 0 323 216 81 321
 0 0 384 342 81 0 342 217 81 267 0 0 323 340 81 0 340 218 81 260 0 0 342 338 81
 0 338 219 81 308 0 0 340 336 81 0 336 220 81 334 0 0 338 333 81 0 333 221 81 33
1 0 0 336 330 81 0 330 222 81 327 0 0 333 326 81 0 326 223 81 324 0 0 330 217 81
 0 217 224 81 328 0 0 326 213 81 0 379 213 81 378 0 0 377 383 81 0 303 211 81 29
3 0 0 314 377 17 302 0 301 251 292 245 300 310 0 307 +81 0 356 203 81 355 0 0 35
8 353 81 0 353 204 81 351 0 0 356 350 81 0 350 205 81 310 0 0 353 309 81 0 309 2
06 81 305 0 0 350 347 81 0 347 207 81 311 0 0 309 346 81 0 346 208 81 317 0 0 34
7 316 81 0 316 209 81 223 0 0 346 314 81 0 218 226 81 215 0 0 213 290 81 0 288 2
28 81 287 0 0 290 285 81 0 285 229 81 283 0 0 288 281 81 0 281 230 81 277 0 0 28
5 272 81 0 272 231 81 270 0 0 281 264 81 0 250 235 81 249 0 0 253 247 81 0 247 2
36 81 245 0 0 250 243 81 0 243 237 81 241 0 0 247 239 81 0 239 238 81 237 0 0 24
3 235 81 0 235 239 81 233 0 0 239 231 81 0 231 240 81 229 0 0 235 0 19 204 157 0
 34 0 46 42 S74 20 202 4 0 231 200 400 39 0 0 0 0 0 0 0 0 0 0 0 0 0 0 0 0 83 1 2
01 78e2 84 5 38 零件174 20 33 1 0 28 0 0 0 0 0 0 0 0 0 0 0 0 0 0 0 0 0 0 0 84 5
 32 装配184 5 27 装配181 2 15 302 63 10 430 0 0 0 431 0 70 16 0 10 0 0 4 4 20 4
 432 432 1 T13 19 156 0 10 0 433 0 0 434 0 50 20 155 0 433 435 0 0 +-2e-4 2e-4 8
e-4 -1 0 0 0 0 1 30 21 147 0 24 436 0 0 +-2e-4 3e-4 8e-4 0 0 -1 29 22 108 0 437
 438 0 -2e-4 2e-4 0 19 23 1 0 10 434 0 439 V16 24 123 440 ?441 0 442 21 0 0 10 1
8 25 35 443 444 0 445 446 ?10 81 0 443 225 81 25 0 0 447 448 17 444 0 449 450 45
1 25 452 453 0 454 +18 445 30 448 451 25 455 456 ?10 29 446 38 0 25 456 457 -2e-
4 2e-4 8e-4 29 456 33 0 445 458 446 -4e-4 2e-4 8e-4 29 457 115 0 459 446 460 -2e
-4 3e-4 0 18 459 98 461 462 463 0 457 ?10 29 460 114 0 463 457 464 -5e-4 3e-4 0
 18 463 97 465 466 467 459 460 ?10 29 464 113 0 467 460 468 -5e-4 -3e-4 0 18 467
 96 469 470 471 463 464 ?10 29 468 112 0 471 464 472 -2e-4 -3e-4 0 18 471 95 473
 474 475 467 468 ?10 29 472 111 0 475 468 476 -2e-4 -2e-4 0 18 475 94 477 478 47
9 471 472 ?10 29 476 110 0 479 472 438 -4e-4 -2e-4 0 18 479 93 480 481 482 475 4
76 ?10 29 438 109 0 482 476 22 -4e-4 2e-4 0 18 482 92 483 484 437 479 438 ?10 81
 0 483 234 81 482 0 0 485 480 17 484 0 486 487 488 482 489 490 0 491 +18 437 91
 485 492 493 482 22 ?10 81 0 485 233 81 437 0 0 494 483 17 492 0 495 454 491 437
 496 497 0 498 +18 493 2 494 499 500 437 501 ?10 81 0 494 232 81 493 0 0 502 485
 17 499 0 503 441 504 493 505 506 0 450 -18 500 5 502 505 507 493 508 ?10 29 501
 4 0 493 0 508 -2e-4 3e-4 8e-4 29 508 8 0 500 501 509 -5e-4 3e-4 8e-4 29 509 13
 0 507 508 510 -5e-4 -3e-4 8e-4 18 507 10 511 512 513 500 509 ?10 29 510 18 0 51
3 509 514 -2e-4 -3e-4 8e-4 18 513 15 515 516 517 507 510 ?10 29 514 23 0 517 510
 458 -2e-4 -2e-4 8e-4 18 517 20 518 519 455 513 514 ?10 29 458 28 0 455 514 456
 -4e-4 -2e-4 8e-4 18 455 25 520 521 445 517 458 ?10 81 0 520 227 81 455 0 0 448
 518 17 521 0 449 451 519 455 522 523 0 524 +15 449 42 0 450 525 0 17 451 0 449
 444 521 445 526 527 0 487 +17 519 0 449 521 516 517 528 529 0 530 +17 522 0 531
 532 524 517 521 523 0 0 -16 523 26 533 ?521 527 529 534 0 0 10 17 524 0 531 522
 481 455 488 535 0 526 -15 531 128 0 481 536 0 17 481 0 531 524 532 479 537 538
 0 488 +17 488 0 486 484 526 479 524 535 0 489 +16 535 118 539 ?488 540 541 542
 0 0 10 17 526 0 486 488 487 455 451 527 0 0 -15 486 126 0 484 543 0 17 487 0 48
6 526 484 445 491 541 0 452 -16 527 31 544 ?451 453 523 545 0 0 10 81 0 544 210
 81 527 0 0 546 533 16 453 36 546 ?444 547 527 548 0 0 10 30 545 32 0 527 534 54
8 0 +-4e-4 -2e-4 8e-4 0 1 0 30 534 27 0 523 549 545 0 +-2e-4 -2e-4 8e-4 -1 0 0 3
0 548 37 0 453 545 550 0 +-4e-4 2e-4 8e-4 1 0 0 30 550 41 0 551 548 552 0 +-2e-4
 2e-4 8e-4 0 1 0 16 551 40 553 ?450 506 497 550 0 0 10 30 552 107 0 554 550 555
 0 +-2e-4 3e-4 0 -1 0 0 16 554 87 556 ?466 557 558 552 0 0 10 30 555 106 0 557 5
52 559 0 +-5e-4 3e-4 0 0 -1 0 16 557 85 560 ?470 561 554 555 0 0 10 30 559 105 0
 561 555 562 0 +-5e-4 -3e-4 0 1 0 0 16 561 83 563 ?474 564 557 559 0 0 10 30 562
 104 0 564 559 565 0 +-2e-4 -3e-4 0 -542101086242752e-30 1 0 16 564 81 566 ?478
 538 561 562 0 0 10 30 565 103 0 538 562 567 0 +-2e-4 -2e-4 0 -1 0 0 16 538 79 5
68 ?481 490 564 565 0 0 10 30 567 102 0 490 565 569 0 +-4e-4 -2e-4 0 0 1 0 16 49
0 77 570 ?484 497 538 567 0 0 10 30 569 101 0 497 567 571 0 +-4e-4 2e-4 0 1 0 0
 16 497 75 572 ?492 551 490 569 0 0 10 30 571 100 0 558 569 573 0 +-2e-4 2e-4 0
 0 1 0 16 558 89 447 ?574 554 0 571 0 0 10 30 573 140 0 547 571 575 0 +-2e-4 2e-
4 8e-4 0 0 -1 16 547 116 576 ?498 541 453 573 0 0 10 30 575 141 0 541 573 542 0
 +-4e-4 2e-4 8e-4 0 0 -1 16 541 117 577 ?491 535 547 575 0 0 10 30 542 142 0 535
 575 578 0 +-4e-4 -2e-4 8e-4 0 0 -1 30 578 143 0 540 542 579 0 +-2e-4 -2e-4 8e-4
 0 0 -1 16 540 119 580 ?532 581 535 578 0 0 10 30 579 144 0 581 578 582 0 +-2e-4
 -3e-4 8e-4 0 0 -1 16 581 120 583 ?584 585 540 579 0 0 10 30 582 145 0 585 579 4
36 0 +-5e-4 -3e-4 8e-4 0 0 -1 16 585 121 586 ?587 442 581 582 0 0 10 30 436 146
 0 442 582 21 0 +-5e-4 3e-4 8e-4 0 0 -1 16 442 122 588 ?589 24 585 436 0 0 10 81
 0 588 202 81 442 0 0 440 586 17 589 0 590 470 591 463 504 442 0 592 +15 590 134
 0 470 593 0 17 470 0 590 594 589 467 592 557 0 587 +17 591 0 590 589 594 500 51
2 595 0 0 -17 504 0 503 499 466 500 589 442 0 591 -17 592 0 596 462 597 463 470
 557 0 0 -15 596 74 0 598 599 0 17 462 0 596 598 592 459 466 554 0 441 -17 597 0
 596 592 600 467 474 561 0 0 -17 600 0 596 597 537 471 478 564 0 0 -17 474 0 601
 602 587 471 597 561 0 584 +15 601 132 0 474 603 0 17 602 0 601 604 474 513 584
 581 0 528 -17 587 0 601 474 604 467 594 585 0 597 +17 584 0 605 478 528 471 602
 581 0 600 +15 605 130 0 478 606 0 17 478 0 605 530 584 475 600 564 0 532 +17 52
8 0 605 584 530 513 519 529 0 0 -17 530 0 605 528 478 517 532 540 0 522 -16 529
 21 607 ?519 523 608 549 0 0 10 81 0 607 212 81 529 0 0 533 609 16 608 16 609 ?5
16 529 595 610 0 0 10 30 549 22 0 529 610 534 0 +-2e-4 -3e-4 8e-4 -5421010862427
52e-30 1 0 30 610 17 0 608 611 549 0 +-5e-4 -3e-4 8e-4 1 0 0 30 611 12 0 595 612
 610 0 +-5e-4 3e-4 8e-4 0 -1 0 16 595 11 613 ?512 608 506 611 0 0 10 30 612 7 0
 506 0 611 0 +-2e-4 3e-4 8e-4 -1 0 0 16 506 6 614 ?505 595 551 612 0 0 10 81 0 6
14 215 81 506 0 0 613 553 17 505 0 449 512 450 500 499 506 0 504 +17 512 0 449 5
16 505 507 591 595 0 594 +17 450 0 449 505 444 493 615 551 0 616 +17 615 0 617 4
98 616 25 450 551 0 0 -17 616 0 617 615 574 493 441 24 0 0 -15 617 138 0 574 433
 0 17 574 0 617 616 498 459 598 558 0 0 +17 441 0 503 466 499 459 616 24 0 574 +
15 503 136 0 466 618 0 17 466 0 503 504 441 463 462 554 0 589 +14 618 137 619 ?5
93 433 503 19 435 -0 0 593 433 439 81 1 619 294 169 618 620 0 621 622 623 14 593
 135 622 ?603 618 590 19 624 -0 0 603 618 439 14 433 139 625 ?618 0 617 19 20 -0
 0 618 0 439 50 435 154 0 618 624 20 0 +-2e-4 3e-4 8e-4 0 -1 0 0 0 -1 13 439 3 0
 0 0 0 0 0 23 433 50 624 153 0 593 626 435 0 +-5e-4 3e-4 8e-4 1 0 0 0 0 -1 50 62
6 152 0 603 627 624 0 +-5e-4 -3e-4 8e-4 0 1 0 0 0 1 14 603 133 628 ?606 593 601
 19 626 -0 0 606 593 439 50 627 151 0 606 629 626 0 +-2e-4 -3e-4 8e-4 -1 -542101
086242752e-30 0 542101086242752e-30 -1 0 14 606 131 630 ?536 603 605 19 627 -0 0
 536 603 439 50 629 150 0 536 631 627 0 +-2e-4 -2e-4 8e-4 0 -1 0 0 0 -1 14 536 1
29 632 ?543 606 531 19 629 -0 0 543 606 439 50 631 149 0 543 633 629 0 +-4e-4 -2
e-4 8e-4 -1 0 0 0 0 1 14 543 127 634 ?635 536 486 19 631 -0 0 635 536 439 50 633
 148 0 635 636 631 0 +-4e-4 2e-4 8e-4 0 1 0 0 0 1 14 635 125 621 ?525 543 495 19
 633 -0 0 525 543 439 50 636 99 0 599 637 633 0 +-5e-4 -3e-4 0 0 0 1 1 0 0 14 59
9 72 638 ?0 525 596 19 636 -0 0 0 525 439 50 637 44 0 525 0 636 0 +-5e-4 -3e-4 8
e-4 0 0 1 1 0 0 14 525 43 639 ?599 635 449 19 637 +0 0 599 635 439 81 1 639 298
 169 525 640 0 632 638 641 81 0 640 199 81 525 0 639 642 643 81 1 632 297 169 53
6 644 0 628 639 645 81 1 638 299 169 599 642 0 639 625 646 83 3 641 1 1 1 81 0 6
42 198 81 599 0 638 647 640 81 1 625 300 169 433 648 0 638 630 649 83 3 646 1 1
 1 81 0 648 192 81 433 0 625 650 651 81 1 630 301 169 606 652 0 625 0 653 83 3 6
49 1 1 1 81 0 652 194 81 606 0 630 651 644 83 3 653 1 1 1 81 0 651 193 81 603 0
 628 648 652 81 0 644 195 81 536 0 632 652 654 81 0 654 196 81 543 0 634 644 647
 81 1 634 292 169 543 654 0 0 621 655 81 0 647 197 81 635 0 621 654 642 81 1 621
 293 169 635 647 0 634 619 656 83 3 656 1 1 1 83 3 655 1 1 1 81 1 628 296 169 60
3 651 0 622 632 657 81 1 622 295 169 593 650 0 619 628 658 83 3 657 1 1 1 81 0 6
50 191 81 593 0 622 620 648 83 3 658 1 1 1 81 0 620 190 81 618 0 619 0 650 83 3
 645 1 1 1 81 0 643 200 81 10 0 430 640 440 81 1 430 291 7 10 643 15 0 0 659 81
 0 440 201 81 24 0 0 643 588 84 5 659 零件115 495 124 0 492 635 0 83 3 623 1 1 1
 17 498 0 617 574 615 437 454 547 0 598 +17 598 0 596 496 462 437 574 558 0 0 -1
7 496 0 596 489 598 482 492 497 0 0 -17 489 0 596 537 496 479 484 490 0 0 -17 53
7 0 596 600 489 475 481 538 0 0 -17 454 0 495 452 492 25 498 547 0 615 -17 452 0
 495 491 454 445 444 453 0 0 -17 491 0 495 492 452 482 487 541 0 496 +17 516 0 4
49 519 512 513 604 608 0 602 +17 594 0 590 591 470 507 587 585 0 604 -17 604 0 6
01 587 602 507 516 608 0 0 -81 0 613 214 81 595 0 0 609 614 81 0 553 216 81 551
 0 0 614 572 81 0 572 217 81 497 0 0 553 570 81 0 570 218 81 490 0 0 572 568 81
 0 568 219 81 538 0 0 570 566 81 0 566 220 81 564 0 0 568 563 81 0 563 221 81 56
1 0 0 566 560 81 0 560 222 81 557 0 0 563 556 81 0 556 223 81 554 0 0 560 447 81
 0 447 224 81 558 0 0 556 443 81 0 609 213 81 608 0 0 607 613 81 0 533 211 81 52
3 0 0 544 607 17 532 0 531 481 522 475 530 540 0 537 +81 0 586 203 81 585 0 0 58
8 583 81 0 583 204 81 581 0 0 586 580 81 0 580 205 81 540 0 0 583 539 81 0 539 2
06 81 535 0 0 580 577 81 0 577 207 81 541 0 0 539 576 81 0 576 208 81 547 0 0 57
7 546 81 0 546 209 81 453 0 0 576 544 81 0 448 226 81 445 0 0 443 520 81 0 518 2
28 81 517 0 0 520 515 81 0 515 229 81 513 0 0 518 511 81 0 511 230 81 507 0 0 51
5 502 81 0 502 231 81 500 0 0 511 494 81 0 480 235 81 479 0 0 483 477 81 0 477 2
36 81 475 0 0 480 473 81 0 473 237 81 471 0 0 477 469 81 0 469 238 81 467 0 0 47
3 465 81 0 465 239 81 463 0 0 469 461 81 0 461 240 81 459 0 0 465 0 19 434 157 0
 10 0 23 19 S74 20 432 4 0 461 430 630 15 0 0 0 0 0 0 0 0 0 0 0 0 0 0 0 0 83 1 4
31 78e2 84 5 14 零件174 20 9 1 0 2 0 0 0 0 0 0 0 0 0 0 0 0 0 0 0 0 0 0 0 1 0 
