  0
SECTION
  2
HEADER
  9
$ACADVER
  1
AC1012
  9
$DWGCODEPAGE
  3
ansi_936
  9
$INSBASE
 10
0.0
 20
0.0
 30
0.0
  9
$EXTMIN
 10
-6.865917893855528
 20
-5.473491152223015
 30
0.0
  9
$EXTMAX
 10
12.11711169658136
 20
2.25216042528037
 30
0.0
  9
$LIMMIN
 10
-105.0
 20
-148.5
  9
$LIMMAX
 10
105.0
 20
148.5
  9
$ORTHOMODE
 70
     0
  9
$REGENMODE
 70
     1
  9
$FILLMODE
 70
     1
  9
$QTEXTMODE
 70
     0
  9
$MIRRTEXT
 70
     1
  9
$DRAGMODE
 70
     2
  9
$LTSCALE
 40
1.0
  9
$OSMODE
 70
    37
  9
$ATTMODE
 70
     1
  9
$TEXTSIZE
 40
0.0
  9
$TRACEWID
 40
1.0
  9
$TEXTSTYLE
  7
标准
  9
$CLAYER
  8
虚线层
  9
$CELTYPE
  6
BYLAYER
  9
$CECOLOR
 62
   256
  9
$CELTSCALE
 40
1.0
  9
$DELOBJ
 70
     1
  9
$DISPSILH
 70
     0
  9
$DIMSCALE
 40
1.0
  9
$DIMASZ
 40
4.0
  9
$DIMEXO
 40
0.0
  9
$DIMDLI
 40
0.38
  9
$DIMRND
 40
0.0
  9
$DIMDLE
 40
6.0
  9
$DIMEXE
 40
2.0
  9
$DIMTP
 40
0.0
  9
$DIMTM
 40
0.0
  9
$DIMTXT
 40
3.5
  9
$DIMCEN
 40
0.0
  9
$DIMTSZ
 40
0.0
  9
$DIMTOL
 70
     0
  9
$DIMLIM
 70
     0
  9
$DIMTIH
 70
     0
  9
$DIMTOH
 70
     0
  9
$DIMSE1
 70
     0
  9
$DIMSE2
 70
     0
  9
$DIMTAD
 70
     1
  9
$DIMZIN
 70
     8
  9
$DIMBLK
  1
CAXARROW
  9
$DIMASO
 70
     1
  9
$DIMSHO
 70
     1
  9
$DIMPOST
  1

  9
$DIMAPOST
  1

  9
$DIMALT
 70
     0
  9
$DIMALTD
 70
     2
  9
$DIMALTF
 40
1.0
  9
$DIMLFAC
 40
1.0
  9
$DIMTOFL
 70
     1
  9
$DIMTVP
 40
0.0
  9
$DIMTIX
 70
     0
  9
$DIMSOXD
 70
     0
  9
$DIMSAH
 70
     0
  9
$DIMBLK1
  1

  9
$DIMBLK2
  1

  9
$DIMSTYLE
  2
标准
  9
$DIMCLRD
 70
     0
  9
$DIMCLRE
 70
     0
  9
$DIMCLRT
 70
     0
  9
$DIMTFAC
 40
0.7071067811865475
  9
$DIMGAP
 40
0.625
  9
$DIMJUST
 70
     0
  9
$DIMSD1
 70
     0
  9
$DIMSD2
 70
     0
  9
$DIMTOLJ
 70
     1
  9
$DIMTZIN
 70
     8
  9
$DIMALTZ
 70
     0
  9
$DIMALTTZ
 70
     0
  9
$DIMFIT
 70
     5
  9
$DIMUPT
 70
     0
  9
$DIMUNIT
 70
     2
  9
$DIMDEC
 70
     2
  9
$DIMTDEC
 70
     3
  9
$DIMALTU
 70
     2
  9
$DIMALTTD
 70
     2
  9
$DIMTXSTY
  7
标准
  9
$DIMAUNIT
 70
     0
  9
$LUNITS
 70
     2
  9
$LUPREC
 70
     4
  9
$SKETCHINC
 40
1.0
  9
$FILLETRAD
 40
10.0
  9
$AUNITS
 70
     0
  9
$AUPREC
 70
     0
  9
$MENU
  1
.
  9
$ELEVATION
 40
0.0
  9
$PELEVATION
 40
0.0
  9
$THICKNESS
 40
0.0
  9
$LIMCHECK
 70
     0
  9
$CHAMFERA
 40
10.0
  9
$CHAMFERB
 40
10.0
  9
$CHAMFERC
 40
20.0
  9
$CHAMFERD
 40
0.0
  9
$SKPOLY
 70
     0
  9
$TDCREATE
 40
2457456.943355046
  9
$TDUPDATE
 40
2457456.943357002
  9
$TDINDWG
 40
0.0000000116
  9
$TDUSRTIMER
 40
0.0000000116
  9
$USRTIMER
 70
     1
  9
$ANGBASE
 50
0.0
  9
$ANGDIR
 70
     0
  9
$PDMODE
 70
     0
  9
$PDSIZE
 40
-5.0
  9
$PLINEWID
 40
0.0
  9
$COORDS
 70
     1
  9
$SPLFRAME
 70
     0
  9
$SPLINETYPE
 70
     6
  9
$SPLINESEGS
 70
     8
  9
$ATTDIA
 70
     0
  9
$ATTREQ
 70
     1
  9
$HANDLING
 70
     1
  9
$HANDSEED
  5
364
  9
$SURFTAB1
 70
     6
  9
$SURFTAB2
 70
     6
  9
$SURFTYPE
 70
     6
  9
$SURFU
 70
     6
  9
$SURFV
 70
     6
  9
$UCSNAME
  2

  9
$UCSORG
 10
0.0
 20
0.0
 30
0.0
  9
$UCSXDIR
 10
1.0
 20
0.0
 30
0.0
  9
$UCSYDIR
 10
0.0
 20
1.0
 30
0.0
  9
$PUCSNAME
  2

  9
$PUCSORG
 10
0.0
 20
0.0
 30
0.0
  9
$PUCSXDIR
 10
1.0
 20
0.0
 30
0.0
  9
$PUCSYDIR
 10
0.0
 20
1.0
 30
0.0
  9
$USERI1
 70
     0
  9
$USERI2
 70
     0
  9
$USERI3
 70
     0
  9
$USERI4
 70
     0
  9
$USERI5
 70
     0
  9
$USERR1
 40
0.0
  9
$USERR2
 40
0.0
  9
$USERR3
 40
0.0
  9
$USERR4
 40
0.0
  9
$USERR5
 40
0.0
  9
$WORLDVIEW
 70
     1
  9
$SHADEDGE
 70
     3
  9
$SHADEDIF
 70
    70
  9
$TILEMODE
 70
     1
  9
$MAXACTVP
 70
    64
  9
$PINSBASE
 10
0.0
 20
0.0
 30
0.0
  9
$PLIMCHECK
 70
     0
  9
$PEXTMIN
 10
1.000000000000000E+20
 20
1.000000000000000E+20
 30
1.000000000000000E+20
  9
$PEXTMAX
 10
-1.000000000000000E+20
 20
-1.000000000000000E+20
 30
-1.000000000000000E+20
  9
$PLIMMIN
 10
0.0
 20
0.0
  9
$PLIMMAX
 10
420.0
 20
297.0
  9
$UNITMODE
 70
     0
  9
$VISRETAIN
 70
     1
  9
$PLINEGEN
 70
     0
  9
$PSLTSCALE
 70
     1
  9
$TREEDEPTH
 70
  3020
  9
$PICKSTYLE
 70
     1
  9
$CMLSTYLE
  2
STANDARD
  9
$CMLJUST
 70
     0
  9
$CMLSCALE
 40
20.0
  9
$SAVEIMAGES
 70
     1
  0
ENDSEC
  0
SECTION
  2
CLASSES
  0
CLASS
  1
ACDBDICTIONARYWDFLT
  2
AcDbDictionaryWithDefault
  3
ObjectDBX Classes
 90
    32768
280
     0
281
     0
  0
CLASS
  1
VISUALSTYLE
  2
AcDbVisualStyle
  3
ObjectDBX Classes
 90
     4095
280
     0
281
     0
  0
CLASS
  1
MATERIAL
  2
AcDbMaterial
  3
ObjectDBX Classes
 90
     1153
280
     0
281
     0
  0
CLASS
  1
DICTIONARYVAR
  2
AcDbDictionaryVar
  3
ObjectDBX Classes
 90
        0
280
     0
281
     0
  0
CLASS
  1
XRECORD
  2
AcDbXrecord
  3
AutoCAD 2000
 90
    32768
280
     0
281
     0
  0
CLASS
  1
LWPOLYLINE
  2
AcDbPolyline
  3
AutoCAD 2000
 90
    32768
280
     0
281
     1
  0
CLASS
  1
HATCH
  2
AcDbHatch
  3
AutoCAD 2000
 90
    32768
280
     0
281
     1
  0
CLASS
  1
ACDBPLACEHOLDER
  2
AcDbPlaceHolder
  3
ObjectDBX Classes
 90
        0
280
     0
281
     0
  0
CLASS
  1
LAYOUT
  2
AcDbLayout
  3
ObjectDBX Classes
 90
        0
280
     0
281
     0
  0
ENDSEC
  0
SECTION
  2
TABLES
  0
TABLE
  2
VPORT
  5
8
330
0
100
AcDbSymbolTable
 70
     1
  0
VPORT
  5
29
330
8
100
AcDbSymbolTableRecord
100
AcDbViewportTableRecord
  2
*ACTIVE
 70
     0
 10
0.0
 20
0.0
 11
1.0
 21
1.0
 12
2.625596901362917
 22
-1.610665363471322
 13
0.0
 23
0.0
 14
10.0
 24
10.0
 15
10.0
 25
10.0
 16
0.0
 26
0.0
 36
1.0
 17
0.0
 27
0.0
 37
0.0
 40
7.725651577503385
 41
2.457142857142857
 42
50.0
 43
0.0
 44
0.0
 50
0.0
 51
0.0
 71
     0
 72
   100
 73
     1
 74
     3
 75
     0
 76
     0
 77
     0
 78
     0
  0
ENDTAB
  0
TABLE
  2
LTYPE
  5
5
330
0
100
AcDbSymbolTable
 70
     4
  0
LTYPE
  5
14
330
5
100
AcDbSymbolTableRecord
100
AcDbLinetypeTableRecord
  2
BYBLOCK
 70
     0
  3

 72
    65
 73
     0
 40
0.0
  0
LTYPE
  5
15
330
5
100
AcDbSymbolTableRecord
100
AcDbLinetypeTableRecord
  2
BYLAYER
 70
     0
  3

 72
    65
 73
     0
 40
0.0
  0
LTYPE
  5
16
330
5
100
AcDbSymbolTableRecord
100
AcDbLinetypeTableRecord
  2
CONTINUOUS
 70
     0
  3
Solid line
 72
    65
 73
     0
 40
0.0
  0
LTYPE
  5
86
330
5
100
AcDbSymbolTableRecord
100
AcDbLinetypeTableRecord
  2
虚线
 70
     0
  3
虚线: __ __ __ __ __ __ __ __ __ __ __ __ __
 72
    65
 73
     2
 40
2.0
 49
1.0
 74
     0
 49
-1.0
 74
     0
  0
LTYPE
  5
87
330
5
100
AcDbSymbolTableRecord
100
AcDbLinetypeTableRecord
  2
点画线
 70
     0
  3
点画线: ____ . ____ . ____ . ____ . ____ . ____
 72
    65
 73
     4
 40
18.0
 49
12.0
 74
     0
 49
-2.0
 74
     0
 49
2.0
 74
     0
 49
-2.0
 74
     0
  0
LTYPE
  5
88
330
5
100
AcDbSymbolTableRecord
100
AcDbLinetypeTableRecord
  2
双点画线
 70
     0
  3
双点画线: ____ . . ____ . . ____ . . ____ . . ____ 
 72
    65
 73
     6
 40
22.0
 49
12.0
 74
     0
 49
-2.0
 74
     0
 49
2.0
 74
     0
 49
-2.0
 74
     0
 49
2.0
 74
     0
 49
-2.0
 74
     0
  0
ENDTAB
  0
TABLE
  2
LAYER
  5
2
330
0
100
AcDbSymbolTable
 70
     8
  0
LAYER
  5
10
330
2
100
AcDbSymbolTableRecord
100
AcDbLayerTableRecord
  2
0
 70
     0
 62
     7
  6
CONTINUOUS
1001
ACAECLAYERSTANDARD
1000

1000
0层
  0
LAYER
  5
8A
330
2
100
AcDbSymbolTableRecord
100
AcDbLayerTableRecord
  2
中心线层
 70
     0
 62
     1
  6
点画线
1001
ACAECLAYERSTANDARD
1000

1000
中心线层
  0
LAYER
  5
8B
330
2
100
AcDbSymbolTableRecord
100
AcDbLayerTableRecord
  2
虚线层
 70
     0
 62
    -6
  6
虚线
1001
ACAECLAYERSTANDARD
1000

1000
虚线层
  0
LAYER
  5
8C
330
2
100
AcDbSymbolTableRecord
100
AcDbLayerTableRecord
  2
细实线层
 70
     0
 62
     7
  6
CONTINUOUS
1001
ACAECLAYERSTANDARD
1000

1000
细实线层
  0
LAYER
  5
8D
330
2
100
AcDbSymbolTableRecord
100
AcDbLayerTableRecord
  2
粗实线层
 70
     0
 62
     7
  6
CONTINUOUS
1001
ACAECLAYERSTANDARD
1000

1000
粗实线层
  0
LAYER
  5
8E
330
2
100
AcDbSymbolTableRecord
100
AcDbLayerTableRecord
  2
尺寸线层
 70
     0
 62
     3
  6
CONTINUOUS
1001
ACAECLAYERSTANDARD
1000

1000
尺寸线层
  0
LAYER
  5
8F
330
2
100
AcDbSymbolTableRecord
100
AcDbLayerTableRecord
  2
剖面线层
 70
     0
 62
     4
  6
CONTINUOUS
1001
ACAECLAYERSTANDARD
1000

1000
剖面线层
  0
LAYER
  5
90
330
2
100
AcDbSymbolTableRecord
100
AcDbLayerTableRecord
  2
隐藏层
 70
     0
 62
     7
  6
CONTINUOUS
1001
ACAECLAYERSTANDARD
1000

1000
隐藏层
  0
ENDTAB
  0
TABLE
  2
STYLE
  5
3
330
0
100
AcDbSymbolTable
 70
     3
  0
STYLE
  5
11
330
3
100
AcDbSymbolTableRecord
100
AcDbTextStyleTableRecord
  2
STANDARD
 70
     0
 40
0.0
 41
1.0
 50
0.0
 71
     0
 42
2.5
  3
txt
  4

  0
STYLE
  5
91
330
3
100
AcDbSymbolTableRecord
100
AcDbTextStyleTableRecord
  2
标准
 70
     0
 40
0.0
 41
0.667
 50
0.0
 71
     0
 42
0.0
  3

  4

1001
CAXA_DRAFT_TXTSTYLE
1041
0.1
1041
1.918
1001
ACAD
1000
宋体
1071
    34306
  0
STYLE
  5
92
330
3
100
AcDbSymbolTableRecord
100
AcDbTextStyleTableRecord
  2
机械
 70
     0
 40
0.0
 41
0.667
 50
0.0
 71
     0
 42
0.0
  3
isocp
  4
gbcbig.shx
1001
CAXA_DRAFT_TXTSTYLE
1041
0.1
1041
1.918
  0
ENDTAB
  0
TABLE
  2
VIEW
  5
6
330
0
100
AcDbSymbolTable
 70
     0
  0
ENDTAB
  0
TABLE
  2
UCS
  5
7
330
0
100
AcDbSymbolTable
 70
     0
  0
ENDTAB
  0
TABLE
  2
APPID
  5
9
330
0
100
AcDbSymbolTable
 70
    71
  0
APPID
  5
12
330
9
100
AcDbSymbolTableRecord
100
AcDbRegAppTableRecord
  2
ACAD
 70
     0
  0
APPID
  5
3F
330
9
100
AcDbSymbolTableRecord
100
AcDbRegAppTableRecord
  2
CAXA_DRAFT_PAPERORDER
 70
     0
  0
APPID
  5
40
330
9
100
AcDbSymbolTableRecord
100
AcDbRegAppTableRecord
  2
CAXA_DRAFT_ROUGH
 70
     0
  0
APPID
  5
41
330
9
100
AcDbSymbolTableRecord
100
AcDbRegAppTableRecord
  2
CAXA_DRAFT_DATUM
 70
     0
  0
APPID
  5
42
330
9
100
AcDbSymbolTableRecord
100
AcDbRegAppTableRecord
  2
CAXA_DRAFT_WELD
 70
     0
  0
APPID
  5
43
330
9
100
AcDbSymbolTableRecord
100
AcDbRegAppTableRecord
  2
CAXA_DRAFT_GEOTOL
 70
     0
  0
APPID
  5
44
330
9
100
AcDbSymbolTableRecord
100
AcDbRegAppTableRecord
  2
CAXA_DRAFT_CUTS
 70
     0
  0
APPID
  5
45
330
9
100
AcDbSymbolTableRecord
100
AcDbRegAppTableRecord
  2
CAXA_DRAFT_DIMHALF
 70
     0
  0
APPID
  5
46
330
9
100
AcDbSymbolTableRecord
100
AcDbRegAppTableRecord
  2
CAXA_DRAFT_DIMRAY
 70
     0
  0
APPID
  5
47
330
9
100
AcDbSymbolTableRecord
100
AcDbRegAppTableRecord
  2
CAXA_DRAFT_DIMARCLEN
 70
     0
  0
APPID
  5
48
330
9
100
AcDbSymbolTableRecord
100
AcDbRegAppTableRecord
  2
CAXA_DRAFT_DIMTAPER
 70
     0
  0
APPID
  5
49
330
9
100
AcDbSymbolTableRecord
100
AcDbRegAppTableRecord
  2
CAXA_DRAFT_DIMPITCH
 70
     0
  0
APPID
  5
4A
330
9
100
AcDbSymbolTableRecord
100
AcDbRegAppTableRecord
  2
CAXA_DRAFT_DIMCOORD
 70
     0
  0
APPID
  5
4B
330
9
100
AcDbSymbolTableRecord
100
AcDbRegAppTableRecord
  2
CAXA_DRAFT_DIMORIALIGN
 70
     0
  0
APPID
  5
4C
330
9
100
AcDbSymbolTableRecord
100
AcDbRegAppTableRecord
  2
CAXA_DRAFT_DIMHOLEPOS
 70
     0
  0
APPID
  5
4D
330
9
100
AcDbSymbolTableRecord
100
AcDbRegAppTableRecord
  2
CAXA_DRAFT_DIMCRDLEADER
 70
     0
  0
APPID
  5
4E
330
9
100
AcDbSymbolTableRecord
100
AcDbRegAppTableRecord
  2
CAXA_DRAFT_DIMCHAMFER
 70
     0
  0
APPID
  5
4F
330
9
100
AcDbSymbolTableRecord
100
AcDbRegAppTableRecord
  2
CAXA_DRAFT_DIMCENTERHOLE
 70
     0
  0
APPID
  5
50
330
9
100
AcDbSymbolTableRecord
100
AcDbRegAppTableRecord
  2
CAXA_DRAFT_DIMLEADER
 70
     0
  0
APPID
  5
51
330
9
100
AcDbSymbolTableRecord
100
AcDbRegAppTableRecord
  2
CAXA_DRAFT_DIMCRDLIST
 70
     0
  0
APPID
  5
52
330
9
100
AcDbSymbolTableRecord
100
AcDbRegAppTableRecord
  2
CAXA_DRAFT_PAPERSCALE
 70
     0
  0
APPID
  5
53
330
9
100
AcDbSymbolTableRecord
100
AcDbRegAppTableRecord
  2
CAXA_DRAFT_FILEVERSION
 70
     0
  0
APPID
  5
54
330
9
100
AcDbSymbolTableRecord
100
AcDbRegAppTableRecord
  2
CAXA_DRAFT_PRODUCTVERSION
 70
     0
  0
APPID
  5
55
330
9
100
AcDbSymbolTableRecord
100
AcDbRegAppTableRecord
  2
CAXA_DRAFT_DATATABLE
 70
     0
  0
APPID
  5
56
330
9
100
AcDbSymbolTableRecord
100
AcDbRegAppTableRecord
  2
CAXA_DRAFT_PAPERINFO
 70
     0
  0
APPID
  5
57
330
9
100
AcDbSymbolTableRecord
100
AcDbRegAppTableRecord
  2
CAXA_DRAFT_PAPERFRAME
 70
     0
  0
APPID
  5
58
330
9
100
AcDbSymbolTableRecord
100
AcDbRegAppTableRecord
  2
CAXA_DRAFT_PAPERTITLE
 70
     0
  0
APPID
  5
59
330
9
100
AcDbSymbolTableRecord
100
AcDbRegAppTableRecord
  2
CAXA_DRAFT_PAPERPAREATABLE
 70
     0
  0
APPID
  5
5A
330
9
100
AcDbSymbolTableRecord
100
AcDbRegAppTableRecord
  2
CAXA_DRAFT_PARTNO
 70
     0
  0
APPID
  5
5B
330
9
100
AcDbSymbolTableRecord
100
AcDbRegAppTableRecord
  2
CAXA_DRAFT_BOMTABLE
 70
     0
  0
APPID
  5
5C
330
9
100
AcDbSymbolTableRecord
100
AcDbRegAppTableRecord
  2
CAXA_DRAFT_BLKREF_EXTATT
 70
     0
  0
APPID
  5
5D
330
9
100
AcDbSymbolTableRecord
100
AcDbRegAppTableRecord
  2
CAXA_DRAFT_DBVIEWDATA
 70
     0
  0
APPID
  5
5E
330
9
100
AcDbSymbolTableRecord
100
AcDbRegAppTableRecord
  2
CAXA_DRAFT_DIMSYMTOL
 70
     0
  0
APPID
  5
5F
330
9
100
AcDbSymbolTableRecord
100
AcDbRegAppTableRecord
  2
CAXA_DRAFT_DIMASSEMTOL
 70
     0
  0
APPID
  5
60
330
9
100
AcDbSymbolTableRecord
100
AcDbRegAppTableRecord
  2
CAXA_DRAFT_DIMANGLETOL
 70
     0
  0
APPID
  5
61
330
9
100
AcDbSymbolTableRecord
100
AcDbRegAppTableRecord
  2
CAXA_DRAFT_DRAFTDATA
 70
     0
  0
APPID
  5
62
330
9
100
AcDbSymbolTableRecord
100
AcDbRegAppTableRecord
  2
CAXA_DRAFT_DIMORIGIN
 70
     0
  0
APPID
  5
63
330
9
100
AcDbSymbolTableRecord
100
AcDbRegAppTableRecord
  2
CAXA_DRAFT_ENLARGE_EDGE
 70
     0
  0
APPID
  5
64
330
9
100
AcDbSymbolTableRecord
100
AcDbRegAppTableRecord
  2
CAXA_DRAFT_DIMSTY_T_VPOS
 70
     0
  0
APPID
  5
65
330
9
100
AcDbSymbolTableRecord
100
AcDbRegAppTableRecord
  2
CAXA_DRAFT_DIMSTY_AT_VPOS
 70
     0
  0
APPID
  5
66
330
9
100
AcDbSymbolTableRecord
100
AcDbRegAppTableRecord
  2
CAXA_DRAFT_BLKHIDE
 70
     0
  0
APPID
  5
67
330
9
100
AcDbSymbolTableRecord
100
AcDbRegAppTableRecord
  2
CAXA_DRAFT_DIMARROWREVERSE
 70
     0
  0
APPID
  5
68
330
9
100
AcDbSymbolTableRecord
100
AcDbRegAppTableRecord
  2
CAXA_DRAFT_TXTSTYLE
 70
     0
  0
APPID
  5
69
330
9
100
AcDbSymbolTableRecord
100
AcDbRegAppTableRecord
  2
CAXA_DRAFT_ATTRIBUTE_2PT
 70
     0
  0
APPID
  5
6A
330
9
100
AcDbSymbolTableRecord
100
AcDbRegAppTableRecord
  2
CAXA_DRAFT_ATTDEF_2PT
 70
     0
  0
APPID
  5
6B
330
9
100
AcDbSymbolTableRecord
100
AcDbRegAppTableRecord
  2
CAXA_DRAFT_DIMBIGARC
 70
     0
  0
APPID
  5
6C
330
9
100
AcDbSymbolTableRecord
100
AcDbRegAppTableRecord
  2
CAXA_DRAFT_ISNEB09R3
 70
     0
  0
APPID
  5
6D
330
9
100
AcDbSymbolTableRecord
100
AcDbRegAppTableRecord
  2
CAXA_DRAFT_WIPEOUT_B_HIDE
 70
     0
  0
APPID
  5
6E
330
9
100
AcDbSymbolTableRecord
100
AcDbRegAppTableRecord
  2
CAXA_DRAFT_BLKREF_SYMBOL
 70
     0
  0
APPID
  5
6F
330
9
100
AcDbSymbolTableRecord
100
AcDbRegAppTableRecord
  2
CAXA_DRAFT_ENL_COMMENTS
 70
     0
  0
APPID
  5
70
330
9
100
AcDbSymbolTableRecord
100
AcDbRegAppTableRecord
  2
CAXA_DRAFT_ENL_TSCALE
 70
     0
  0
APPID
  5
71
330
9
100
AcDbSymbolTableRecord
100
AcDbRegAppTableRecord
  2
CAXA_DRAFT_TXTSCALE
 70
     0
  0
APPID
  5
72
330
9
100
AcDbSymbolTableRecord
100
AcDbRegAppTableRecord
  2
CAXA_DRAFT_KEEPLTSEG_ZOOM
 70
     0
  0
APPID
  5
73
330
9
100
AcDbSymbolTableRecord
100
AcDbRegAppTableRecord
  2
CAXA_DRAFT_SPECLIB
 70
     0
  0
APPID
  5
74
330
9
100
AcDbSymbolTableRecord
100
AcDbRegAppTableRecord
  2
CAXA_DRAFT_DATUM_2011R2
 70
     0
  0
APPID
  5
75
330
9
100
AcDbSymbolTableRecord
100
AcDbRegAppTableRecord
  2
CAXA_DRAFT_ROUGH_2011R2
 70
     0
  0
APPID
  5
76
330
9
100
AcDbSymbolTableRecord
100
AcDbRegAppTableRecord
  2
CAXA_DRAFT_GEOTOL_2011R2
 70
     0
  0
APPID
  5
77
330
9
100
AcDbSymbolTableRecord
100
AcDbRegAppTableRecord
  2
CAXA_DRAFT_DMOVMAP_2011R3
 70
     0
  0
APPID
  5
78
330
9
100
AcDbSymbolTableRecord
100
AcDbRegAppTableRecord
  2
CAXA_DRAFT_DDTSTY_2011R3
 70
     0
  0
APPID
  5
79
330
9
100
AcDbSymbolTableRecord
100
AcDbRegAppTableRecord
  2
CAXA_DRAFT_SDTSTY_2011R3
 70
     0
  0
APPID
  5
7A
330
9
100
AcDbSymbolTableRecord
100
AcDbRegAppTableRecord
  2
CDRAFT_TXTROT_2011R3
 70
     0
  0
APPID
  5
7B
330
9
100
AcDbSymbolTableRecord
100
AcDbRegAppTableRecord
  2
CDRAFT_TOLOUT_2011R3
 70
     0
  0
APPID
  5
7C
330
9
100
AcDbSymbolTableRecord
100
AcDbRegAppTableRecord
  2
CAXA_DRAFT_DIMARCLENSTYLE
 70
     0
  0
APPID
  5
7D
330
9
100
AcDbSymbolTableRecord
100
AcDbRegAppTableRecord
  2
CAXA_DRAFT_DMOVMAP_2013
 70
     0
  0
APPID
  5
7E
330
9
100
AcDbSymbolTableRecord
100
AcDbRegAppTableRecord
  2
CAXA_DRAFT_DS_DLLNTYPE
 70
     0
  0
APPID
  5
7F
330
9
100
AcDbSymbolTableRecord
100
AcDbRegAppTableRecord
  2
CAXA_DRAFT_DS_LBLLNTYPE
 70
     0
  0
APPID
  5
80
330
9
100
AcDbSymbolTableRecord
100
AcDbRegAppTableRecord
  2
CAXA_DRAFT_DS_RBLLNTYPE
 70
     0
  0
APPID
  5
81
330
9
100
AcDbSymbolTableRecord
100
AcDbRegAppTableRecord
  2
CAXA_DRAFT_DS_ISFILLDFM
 70
     0
  0
APPID
  5
82
330
9
100
AcDbSymbolTableRecord
100
AcDbRegAppTableRecord
  2
CAXA_DRAFT_DS_DISPZTOOL
 70
     0
  0
APPID
  5
83
330
9
100
AcDbSymbolTableRecord
100
AcDbRegAppTableRecord
  2
CAXA_DRAFT_DS_SYMCOLOR
 70
     0
  0
APPID
  5
89
330
9
100
AcDbSymbolTableRecord
100
AcDbRegAppTableRecord
  2
ACAECLAYERSTANDARD
 70
     0
  0
ENDTAB
  0
TABLE
  2
DIMSTYLE
  5
A
330
0
100
AcDbSymbolTable
 70
     2
  0
DIMSTYLE
105
93
330
A
100
AcDbSymbolTableRecord
100
AcDbDimStyleTableRecord
  2
标准
 70
     0
  3

  4

  5
CAXARROW
  6

  7

 40
1.0
 41
4.0
 42
0.0
 43
0.38
 44
2.0
 45
0.0
 46
6.0
 47
0.0
 48
0.0
140
3.5
141
0.0
142
0.0
143
1.0
144
1.0
145
0.0
146
0.7071067811865475
147
0.625
 71
     0
 72
     0
 73
     0
 74
     0
 75
     0
 76
     0
 77
     1
 78
     8
170
     0
171
     2
172
     1
173
     0
174
     0
175
     0
176
     0
177
     0
178
     0
179
     2
270
     2
271
     2
272
     3
273
     2
274
     2
340
91
275
     0
280
     0
281
     0
282
     0
283
     1
284
     8
285
     0
286
     0
287
     5
288
     0
1001
CAXA_DRAFT_DIMSTY_AT_VPOS
1070
     1
1001
CAXA_DRAFT_SDTSTY_2011R3
1070
     0
1001
CAXA_DRAFT_DS_ISFILLDFM
1070
     1
1001
CAXA_DRAFT_DS_DISPZTOOL
1070
     0
1001
CAXA_DRAFT_DS_SYMCOLOR
1071
1090519039
  0
ENDTAB
  0
TABLE
  2
BLOCK_RECORD
  5
1
330
0
100
AcDbSymbolTable
 70
     3
  0
BLOCK_RECORD
  5
1F
330
1
100
AcDbSymbolTableRecord
100
AcDbBlockTableRecord
  2
*MODEL_SPACE
1001
CAXA_DRAFT_PAPERSCALE
1041
1.0
1001
CAXA_DRAFT_PAPERINFO
1041
210.0
1041
297.0
1071
        0
1070
     1
1070
     1
1001
CAXA_DRAFT_KEEPLTSEG_ZOOM
1070
     0
  0
BLOCK_RECORD
  5
1B
330
1
100
AcDbSymbolTableRecord
100
AcDbBlockTableRecord
  2
*PAPER_SPACE
  0
BLOCK_RECORD
  5
94
330
1
100
AcDbSymbolTableRecord
100
AcDbBlockTableRecord
  2
_CAXARROW
  0
BLOCK_RECORD
  5
319
330
1
100
AcDbSymbolTableRecord
100
AcDbBlockTableRecord
  2
*U2
  0
ENDTAB
  0
ENDSEC
  0
SECTION
  2
BLOCKS
  0
BLOCK
  5
20
330
1F
100
AcDbEntity
  8
0
100
AcDbBlockBegin
  2
*MODEL_SPACE
 70
     0
 10
0.0
 20
0.0
 30
0.0
  3
*MODEL_SPACE
  1

  0
ENDBLK
  5
21
330
1F
100
AcDbEntity
  8
0
100
AcDbBlockEnd
  0
BLOCK
  5
1C
330
1B
100
AcDbEntity
 67
     1
  8
0
100
AcDbBlockBegin
  2
*PAPER_SPACE
 70
     0
 10
0.0
 20
0.0
 30
0.0
  3
*PAPER_SPACE
  1

  0
ENDBLK
  5
1D
330
1B
100
AcDbEntity
 67
     1
  8
0
100
AcDbBlockEnd
  0
BLOCK
  5
96
330
94
100
AcDbEntity
  8
0
100
AcDbBlockBegin
  2
_CAXARROW
 70
     0
 10
0.0
 20
0.0
 30
0.0
  3
_CAXARROW
  1

  0
INSERT
  5
95
330
94
100
AcDbEntity
  8
0
 62
     0
100
AcDbBlockReference
  2
*U2
 10
0.0
 20
0.0
 30
0.0
1001
ACAD
1002
{
1000
R14_HATCH_DATA
1000
95
1011
1.0
1021
0.0
1031
0.0
1011
0.0
1021
1.0
1031
0.0
1011
0.0
1021
0.0
1031
1.0
1040
0.0
1010
0.0
1020
0.0
1030
1.0
1000
SOLID
1070
     1
1070
     1
1071
        1
1071
        0
1071
        3
1070
     1
1040
0.0
1040
0.0
1040
-1.0
1040
0.125
1070
     1
1040
-1.0
1040
0.125
1040
-1.0
1040
-0.125
1070
     1
1040
-1.0
1040
-0.125
1040
0.0
1040
0.0
1071
        0
1070
     0
1070
     1
1071
        1
1040
0.0
1040
0.0
1040
0.0
1002
}
  0
ENDBLK
  5
97
330
94
100
AcDbEntity
  8
0
100
AcDbBlockEnd
  0
BLOCK
  5
31B
330
319
100
AcDbEntity
  8
0
100
AcDbBlockBegin
  2
*U2
 70
     1
 10
0.0
 20
0.0
 30
0.0
  3
*U2
  1

  0
SOLID
  5
31A
330
319
100
AcDbEntity
  8
0
 62
     0
100
AcDbTrace
 10
-1.0
 20
-0.125
 30
0.0
 11
-1.0
 21
0.125
 31
0.0
 12
0.0
 22
0.0
 32
0.0
 13
0.0
 23
0.0
 33
0.0
  0
ENDBLK
  5
31C
330
319
100
AcDbEntity
  8
0
100
AcDbBlockEnd
  0
ENDSEC
  0
SECTION
  2
ENTITIES
  0
POLYLINE
  5
BE
330
1F
100
AcDbEntity
  8
细实线层
100
AcDb2dPolyline
 66
     1
 10
0.0
 20
0.0
 30
0.0
 70
     1
  0
VERTEX
  5
215
330
BE
100
AcDbEntity
  8
细实线层
100
AcDbVertex
100
AcDb2dVertex
 10
1.250000000000007
 20
-10.3
 30
0.0
  0
VERTEX
  5
216
330
BE
100
AcDbEntity
  8
细实线层
100
AcDbVertex
100
AcDb2dVertex
 10
1.250000000000007
 20
-11.5
 30
0.0
  0
VERTEX
  5
217
330
BE
100
AcDbEntity
  8
细实线层
100
AcDbVertex
100
AcDb2dVertex
 10
1.550000000000008
 20
-11.5
 30
0.0
  0
VERTEX
  5
218
330
BE
100
AcDbEntity
  8
细实线层
100
AcDbVertex
100
AcDb2dVertex
 10
1.550000000000008
 20
-10.3
 30
0.0
  0
SEQEND
  5
363
330
BE
100
AcDbEntity
  8
细实线层
  0
LINE
  5
BF
330
1F
100
AcDbEntity
  8
细实线层
100
AcDbLine
 10
1.550000000000008
 20
-11.5
 30
0.0
 11
1.250000000000007
 21
-10.3
 31
0.0
  0
LINE
  5
C0
330
1F
100
AcDbEntity
  8
细实线层
100
AcDbLine
 10
1.250000000000008
 20
-11.5
 30
0.0
 11
1.550000000000008
 21
-10.3
 31
0.0
  0
CIRCLE
  5
C1
330
1F
100
AcDbEntity
  8
细实线层
100
AcDbCircle
 10
1.400000000000007
 20
-10.9
 30
0.0
 40
0.1500000000000001
  0
POLYLINE
  5
C2
330
1F
100
AcDbEntity
  8
细实线层
100
AcDb2dPolyline
 66
     1
 10
0.0
 20
0.0
 30
0.0
 70
     1
  0
VERTEX
  5
219
330
C2
100
AcDbEntity
  8
细实线层
100
AcDbVertex
100
AcDb2dVertex
 10
1.750000000000007
 20
-10.3
 30
0.0
  0
VERTEX
  5
21A
330
C2
100
AcDbEntity
  8
细实线层
100
AcDbVertex
100
AcDb2dVertex
 10
1.750000000000007
 20
-11.5
 30
0.0
  0
VERTEX
  5
21B
330
C2
100
AcDbEntity
  8
细实线层
100
AcDbVertex
100
AcDb2dVertex
 10
2.050000000000008
 20
-11.5
 30
0.0
  0
VERTEX
  5
21C
330
C2
100
AcDbEntity
  8
细实线层
100
AcDbVertex
100
AcDb2dVertex
 10
2.050000000000008
 20
-10.3
 30
0.0
  0
SEQEND
  5
362
330
C2
100
AcDbEntity
  8
细实线层
  0
LINE
  5
C3
330
1F
100
AcDbEntity
  8
细实线层
100
AcDbLine
 10
2.050000000000008
 20
-11.5
 30
0.0
 11
1.750000000000007
 21
-10.3
 31
0.0
  0
LINE
  5
C4
330
1F
100
AcDbEntity
  8
细实线层
100
AcDbLine
 10
1.750000000000008
 20
-11.5
 30
0.0
 11
2.050000000000008
 21
-10.3
 31
0.0
  0
CIRCLE
  5
C5
330
1F
100
AcDbEntity
  8
细实线层
100
AcDbCircle
 10
1.900000000000007
 20
-10.9
 30
0.0
 40
0.1500000000000001
  0
CIRCLE
  5
C6
330
1F
100
AcDbEntity
  8
细实线层
100
AcDbCircle
 10
1.900000000000007
 20
-10.9
 30
0.0
 40
0.1500000000000001
  0
POLYLINE
  5
C7
330
1F
100
AcDbEntity
  8
细实线层
100
AcDb2dPolyline
 66
     1
 10
0.0
 20
0.0
 30
0.0
 70
     1
  0
VERTEX
  5
21D
330
C7
100
AcDbEntity
  8
细实线层
100
AcDbVertex
100
AcDb2dVertex
 10
2.250000000000007
 20
-10.3
 30
0.0
  0
VERTEX
  5
21E
330
C7
100
AcDbEntity
  8
细实线层
100
AcDbVertex
100
AcDb2dVertex
 10
2.250000000000007
 20
-11.5
 30
0.0
  0
VERTEX
  5
21F
330
C7
100
AcDbEntity
  8
细实线层
100
AcDbVertex
100
AcDb2dVertex
 10
2.550000000000008
 20
-11.5
 30
0.0
  0
VERTEX
  5
220
330
C7
100
AcDbEntity
  8
细实线层
100
AcDbVertex
100
AcDb2dVertex
 10
2.550000000000008
 20
-10.3
 30
0.0
  0
SEQEND
  5
361
330
C7
100
AcDbEntity
  8
细实线层
  0
LINE
  5
C8
330
1F
100
AcDbEntity
  8
细实线层
100
AcDbLine
 10
2.550000000000008
 20
-11.5
 30
0.0
 11
2.250000000000007
 21
-10.3
 31
0.0
  0
LINE
  5
C9
330
1F
100
AcDbEntity
  8
细实线层
100
AcDbLine
 10
2.250000000000008
 20
-11.5
 30
0.0
 11
2.550000000000008
 21
-10.3
 31
0.0
  0
CIRCLE
  5
CA
330
1F
100
AcDbEntity
  8
细实线层
100
AcDbCircle
 10
2.400000000000007
 20
-10.9
 30
0.0
 40
0.1500000000000001
  0
CIRCLE
  5
CB
330
1F
100
AcDbEntity
  8
细实线层
100
AcDbCircle
 10
2.400000000000007
 20
-10.9
 30
0.0
 40
0.1500000000000001
  0
POLYLINE
  5
CC
330
1F
100
AcDbEntity
  8
细实线层
100
AcDb2dPolyline
 66
     1
 10
0.0
 20
0.0
 30
0.0
 70
     1
  0
VERTEX
  5
221
330
CC
100
AcDbEntity
  8
细实线层
100
AcDbVertex
100
AcDb2dVertex
 10
2.750000000000007
 20
-10.3
 30
0.0
  0
VERTEX
  5
222
330
CC
100
AcDbEntity
  8
细实线层
100
AcDbVertex
100
AcDb2dVertex
 10
2.750000000000007
 20
-11.5
 30
0.0
  0
VERTEX
  5
223
330
CC
100
AcDbEntity
  8
细实线层
100
AcDbVertex
100
AcDb2dVertex
 10
3.050000000000008
 20
-11.5
 30
0.0
  0
VERTEX
  5
224
330
CC
100
AcDbEntity
  8
细实线层
100
AcDbVertex
100
AcDb2dVertex
 10
3.050000000000008
 20
-10.3
 30
0.0
  0
SEQEND
  5
360
330
CC
100
AcDbEntity
  8
细实线层
  0
LINE
  5
CD
330
1F
100
AcDbEntity
  8
细实线层
100
AcDbLine
 10
3.050000000000008
 20
-11.5
 30
0.0
 11
2.750000000000007
 21
-10.3
 31
0.0
  0
LINE
  5
CE
330
1F
100
AcDbEntity
  8
细实线层
100
AcDbLine
 10
2.750000000000008
 20
-11.5
 30
0.0
 11
3.050000000000008
 21
-10.3
 31
0.0
  0
CIRCLE
  5
CF
330
1F
100
AcDbEntity
  8
细实线层
100
AcDbCircle
 10
2.900000000000007
 20
-10.9
 30
0.0
 40
0.1500000000000001
  0
CIRCLE
  5
D0
330
1F
100
AcDbEntity
  8
细实线层
100
AcDbCircle
 10
2.900000000000007
 20
-10.9
 30
0.0
 40
0.1500000000000001
  0
POLYLINE
  5
D1
330
1F
100
AcDbEntity
  8
细实线层
100
AcDb2dPolyline
 66
     1
 10
0.0
 20
0.0
 30
0.0
 70
     1
  0
VERTEX
  5
225
330
D1
100
AcDbEntity
  8
细实线层
100
AcDbVertex
100
AcDb2dVertex
 10
3.250000000000007
 20
-10.3
 30
0.0
  0
VERTEX
  5
226
330
D1
100
AcDbEntity
  8
细实线层
100
AcDbVertex
100
AcDb2dVertex
 10
3.250000000000007
 20
-11.5
 30
0.0
  0
VERTEX
  5
227
330
D1
100
AcDbEntity
  8
细实线层
100
AcDbVertex
100
AcDb2dVertex
 10
3.550000000000008
 20
-11.5
 30
0.0
  0
VERTEX
  5
228
330
D1
100
AcDbEntity
  8
细实线层
100
AcDbVertex
100
AcDb2dVertex
 10
3.550000000000008
 20
-10.3
 30
0.0
  0
SEQEND
  5
35F
330
D1
100
AcDbEntity
  8
细实线层
  0
LINE
  5
D2
330
1F
100
AcDbEntity
  8
细实线层
100
AcDbLine
 10
3.550000000000008
 20
-11.5
 30
0.0
 11
3.250000000000007
 21
-10.3
 31
0.0
  0
LINE
  5
D3
330
1F
100
AcDbEntity
  8
细实线层
100
AcDbLine
 10
3.250000000000008
 20
-11.5
 30
0.0
 11
3.550000000000008
 21
-10.3
 31
0.0
  0
CIRCLE
  5
D4
330
1F
100
AcDbEntity
  8
细实线层
100
AcDbCircle
 10
3.400000000000007
 20
-10.9
 30
0.0
 40
0.1500000000000001
  0
CIRCLE
  5
D5
330
1F
100
AcDbEntity
  8
细实线层
100
AcDbCircle
 10
3.400000000000007
 20
-10.9
 30
0.0
 40
0.1500000000000001
  0
POLYLINE
  5
D6
330
1F
100
AcDbEntity
  8
细实线层
100
AcDb2dPolyline
 66
     1
 10
0.0
 20
0.0
 30
0.0
 70
     1
  0
VERTEX
  5
229
330
D6
100
AcDbEntity
  8
细实线层
100
AcDbVertex
100
AcDb2dVertex
 10
3.750000000000007
 20
-10.3
 30
0.0
  0
VERTEX
  5
22A
330
D6
100
AcDbEntity
  8
细实线层
100
AcDbVertex
100
AcDb2dVertex
 10
3.750000000000007
 20
-11.5
 30
0.0
  0
VERTEX
  5
22B
330
D6
100
AcDbEntity
  8
细实线层
100
AcDbVertex
100
AcDb2dVertex
 10
4.050000000000008
 20
-11.5
 30
0.0
  0
VERTEX
  5
22C
330
D6
100
AcDbEntity
  8
细实线层
100
AcDbVertex
100
AcDb2dVertex
 10
4.050000000000008
 20
-10.3
 30
0.0
  0
SEQEND
  5
35E
330
D6
100
AcDbEntity
  8
细实线层
  0
LINE
  5
D7
330
1F
100
AcDbEntity
  8
细实线层
100
AcDbLine
 10
4.050000000000008
 20
-11.5
 30
0.0
 11
3.750000000000007
 21
-10.3
 31
0.0
  0
LINE
  5
D8
330
1F
100
AcDbEntity
  8
细实线层
100
AcDbLine
 10
3.750000000000008
 20
-11.5
 30
0.0
 11
4.050000000000008
 21
-10.3
 31
0.0
  0
CIRCLE
  5
D9
330
1F
100
AcDbEntity
  8
细实线层
100
AcDbCircle
 10
3.900000000000007
 20
-10.9
 30
0.0
 40
0.1500000000000001
  0
CIRCLE
  5
DA
330
1F
100
AcDbEntity
  8
细实线层
100
AcDbCircle
 10
3.900000000000007
 20
-10.9
 30
0.0
 40
0.1500000000000001
  0
POLYLINE
  5
DB
330
1F
100
AcDbEntity
  8
细实线层
100
AcDb2dPolyline
 66
     1
 10
0.0
 20
0.0
 30
0.0
 70
     1
  0
VERTEX
  5
22D
330
DB
100
AcDbEntity
  8
细实线层
100
AcDbVertex
100
AcDb2dVertex
 10
4.250000000000007
 20
-10.3
 30
0.0
  0
VERTEX
  5
22E
330
DB
100
AcDbEntity
  8
细实线层
100
AcDbVertex
100
AcDb2dVertex
 10
4.250000000000007
 20
-11.5
 30
0.0
  0
VERTEX
  5
22F
330
DB
100
AcDbEntity
  8
细实线层
100
AcDbVertex
100
AcDb2dVertex
 10
4.550000000000008
 20
-11.5
 30
0.0
  0
VERTEX
  5
230
330
DB
100
AcDbEntity
  8
细实线层
100
AcDbVertex
100
AcDb2dVertex
 10
4.550000000000008
 20
-10.3
 30
0.0
  0
SEQEND
  5
35D
330
DB
100
AcDbEntity
  8
细实线层
  0
LINE
  5
DC
330
1F
100
AcDbEntity
  8
细实线层
100
AcDbLine
 10
4.550000000000008
 20
-11.5
 30
0.0
 11
4.250000000000007
 21
-10.3
 31
0.0
  0
LINE
  5
DD
330
1F
100
AcDbEntity
  8
细实线层
100
AcDbLine
 10
4.250000000000007
 20
-11.5
 30
0.0
 11
4.550000000000008
 21
-10.3
 31
0.0
  0
CIRCLE
  5
DE
330
1F
100
AcDbEntity
  8
细实线层
100
AcDbCircle
 10
4.400000000000007
 20
-10.9
 30
0.0
 40
0.1500000000000001
  0
CIRCLE
  5
DF
330
1F
100
AcDbEntity
  8
细实线层
100
AcDbCircle
 10
4.400000000000007
 20
-10.9
 30
0.0
 40
0.1500000000000001
  0
POLYLINE
  5
E0
330
1F
100
AcDbEntity
  8
细实线层
100
AcDb2dPolyline
 66
     1
 10
0.0
 20
0.0
 30
0.0
 70
     1
  0
VERTEX
  5
231
330
E0
100
AcDbEntity
  8
细实线层
100
AcDbVertex
100
AcDb2dVertex
 10
4.750000000000007
 20
-10.3
 30
0.0
  0
VERTEX
  5
232
330
E0
100
AcDbEntity
  8
细实线层
100
AcDbVertex
100
AcDb2dVertex
 10
4.750000000000007
 20
-11.5
 30
0.0
  0
VERTEX
  5
233
330
E0
100
AcDbEntity
  8
细实线层
100
AcDbVertex
100
AcDb2dVertex
 10
5.050000000000008
 20
-11.5
 30
0.0
  0
VERTEX
  5
234
330
E0
100
AcDbEntity
  8
细实线层
100
AcDbVertex
100
AcDb2dVertex
 10
5.050000000000008
 20
-10.3
 30
0.0
  0
SEQEND
  5
35C
330
E0
100
AcDbEntity
  8
细实线层
  0
LINE
  5
E1
330
1F
100
AcDbEntity
  8
细实线层
100
AcDbLine
 10
5.050000000000008
 20
-11.5
 30
0.0
 11
4.750000000000007
 21
-10.3
 31
0.0
  0
LINE
  5
E2
330
1F
100
AcDbEntity
  8
细实线层
100
AcDbLine
 10
4.750000000000007
 20
-11.5
 30
0.0
 11
5.050000000000008
 21
-10.3
 31
0.0
  0
CIRCLE
  5
E3
330
1F
100
AcDbEntity
  8
细实线层
100
AcDbCircle
 10
4.900000000000007
 20
-10.9
 30
0.0
 40
0.1500000000000001
  0
CIRCLE
  5
E4
330
1F
100
AcDbEntity
  8
细实线层
100
AcDbCircle
 10
4.900000000000007
 20
-10.9
 30
0.0
 40
0.1500000000000001
  0
POLYLINE
  5
E5
330
1F
100
AcDbEntity
  8
细实线层
100
AcDb2dPolyline
 66
     1
 10
0.0
 20
0.0
 30
0.0
 70
     1
  0
VERTEX
  5
235
330
E5
100
AcDbEntity
  8
细实线层
100
AcDbVertex
100
AcDb2dVertex
 10
5.250000000000007
 20
-10.3
 30
0.0
  0
VERTEX
  5
236
330
E5
100
AcDbEntity
  8
细实线层
100
AcDbVertex
100
AcDb2dVertex
 10
5.250000000000007
 20
-11.5
 30
0.0
  0
VERTEX
  5
237
330
E5
100
AcDbEntity
  8
细实线层
100
AcDbVertex
100
AcDb2dVertex
 10
5.550000000000008
 20
-11.5
 30
0.0
  0
VERTEX
  5
238
330
E5
100
AcDbEntity
  8
细实线层
100
AcDbVertex
100
AcDb2dVertex
 10
5.550000000000008
 20
-10.3
 30
0.0
  0
SEQEND
  5
35B
330
E5
100
AcDbEntity
  8
细实线层
  0
LINE
  5
E6
330
1F
100
AcDbEntity
  8
细实线层
100
AcDbLine
 10
5.550000000000008
 20
-11.5
 30
0.0
 11
5.250000000000007
 21
-10.3
 31
0.0
  0
LINE
  5
E7
330
1F
100
AcDbEntity
  8
细实线层
100
AcDbLine
 10
5.250000000000007
 20
-11.5
 30
0.0
 11
5.550000000000008
 21
-10.3
 31
0.0
  0
CIRCLE
  5
E8
330
1F
100
AcDbEntity
  8
细实线层
100
AcDbCircle
 10
5.400000000000007
 20
-10.9
 30
0.0
 40
0.1500000000000001
  0
CIRCLE
  5
E9
330
1F
100
AcDbEntity
  8
细实线层
100
AcDbCircle
 10
5.400000000000007
 20
-10.9
 30
0.0
 40
0.1500000000000001
  0
POLYLINE
  5
EA
330
1F
100
AcDbEntity
  8
细实线层
100
AcDb2dPolyline
 66
     1
 10
0.0
 20
0.0
 30
0.0
 70
     1
  0
VERTEX
  5
239
330
EA
100
AcDbEntity
  8
细实线层
100
AcDbVertex
100
AcDb2dVertex
 10
5.750000000000007
 20
-10.3
 30
0.0
  0
VERTEX
  5
23A
330
EA
100
AcDbEntity
  8
细实线层
100
AcDbVertex
100
AcDb2dVertex
 10
5.750000000000007
 20
-11.5
 30
0.0
  0
VERTEX
  5
23B
330
EA
100
AcDbEntity
  8
细实线层
100
AcDbVertex
100
AcDb2dVertex
 10
6.050000000000008
 20
-11.5
 30
0.0
  0
VERTEX
  5
23C
330
EA
100
AcDbEntity
  8
细实线层
100
AcDbVertex
100
AcDb2dVertex
 10
6.050000000000008
 20
-10.3
 30
0.0
  0
SEQEND
  5
35A
330
EA
100
AcDbEntity
  8
细实线层
  0
LINE
  5
EB
330
1F
100
AcDbEntity
  8
细实线层
100
AcDbLine
 10
6.050000000000008
 20
-11.5
 30
0.0
 11
5.750000000000007
 21
-10.3
 31
0.0
  0
LINE
  5
EC
330
1F
100
AcDbEntity
  8
细实线层
100
AcDbLine
 10
5.750000000000007
 20
-11.5
 30
0.0
 11
6.050000000000008
 21
-10.3
 31
0.0
  0
CIRCLE
  5
ED
330
1F
100
AcDbEntity
  8
细实线层
100
AcDbCircle
 10
5.900000000000007
 20
-10.9
 30
0.0
 40
0.1500000000000001
  0
CIRCLE
  5
EE
330
1F
100
AcDbEntity
  8
细实线层
100
AcDbCircle
 10
5.900000000000007
 20
-10.9
 30
0.0
 40
0.1500000000000001
  0
POLYLINE
  5
EF
330
1F
100
AcDbEntity
  8
细实线层
100
AcDb2dPolyline
 66
     1
 10
0.0
 20
0.0
 30
0.0
 70
     1
  0
VERTEX
  5
23D
330
EF
100
AcDbEntity
  8
细实线层
100
AcDbVertex
100
AcDb2dVertex
 10
6.250000000000007
 20
-10.3
 30
0.0
  0
VERTEX
  5
23E
330
EF
100
AcDbEntity
  8
细实线层
100
AcDbVertex
100
AcDb2dVertex
 10
6.250000000000007
 20
-11.5
 30
0.0
  0
VERTEX
  5
23F
330
EF
100
AcDbEntity
  8
细实线层
100
AcDbVertex
100
AcDb2dVertex
 10
6.550000000000008
 20
-11.5
 30
0.0
  0
VERTEX
  5
240
330
EF
100
AcDbEntity
  8
细实线层
100
AcDbVertex
100
AcDb2dVertex
 10
6.550000000000008
 20
-10.3
 30
0.0
  0
SEQEND
  5
359
330
EF
100
AcDbEntity
  8
细实线层
  0
LINE
  5
F0
330
1F
100
AcDbEntity
  8
细实线层
100
AcDbLine
 10
6.550000000000008
 20
-11.5
 30
0.0
 11
6.250000000000007
 21
-10.3
 31
0.0
  0
LINE
  5
F1
330
1F
100
AcDbEntity
  8
细实线层
100
AcDbLine
 10
6.250000000000007
 20
-11.5
 30
0.0
 11
6.550000000000008
 21
-10.3
 31
0.0
  0
CIRCLE
  5
F2
330
1F
100
AcDbEntity
  8
细实线层
100
AcDbCircle
 10
6.400000000000007
 20
-10.9
 30
0.0
 40
0.1500000000000001
  0
CIRCLE
  5
F3
330
1F
100
AcDbEntity
  8
细实线层
100
AcDbCircle
 10
6.400000000000007
 20
-10.9
 30
0.0
 40
0.1500000000000001
  0
POLYLINE
  5
F4
330
1F
100
AcDbEntity
  8
细实线层
100
AcDb2dPolyline
 66
     1
 10
0.0
 20
0.0
 30
0.0
 70
     1
  0
VERTEX
  5
241
330
F4
100
AcDbEntity
  8
细实线层
100
AcDbVertex
100
AcDb2dVertex
 10
6.750000000000007
 20
-10.3
 30
0.0
  0
VERTEX
  5
242
330
F4
100
AcDbEntity
  8
细实线层
100
AcDbVertex
100
AcDb2dVertex
 10
6.750000000000007
 20
-11.5
 30
0.0
  0
VERTEX
  5
243
330
F4
100
AcDbEntity
  8
细实线层
100
AcDbVertex
100
AcDb2dVertex
 10
7.050000000000008
 20
-11.5
 30
0.0
  0
VERTEX
  5
244
330
F4
100
AcDbEntity
  8
细实线层
100
AcDbVertex
100
AcDb2dVertex
 10
7.050000000000008
 20
-10.3
 30
0.0
  0
SEQEND
  5
358
330
F4
100
AcDbEntity
  8
细实线层
  0
LINE
  5
F5
330
1F
100
AcDbEntity
  8
细实线层
100
AcDbLine
 10
7.050000000000008
 20
-11.5
 30
0.0
 11
6.750000000000007
 21
-10.3
 31
0.0
  0
LINE
  5
F6
330
1F
100
AcDbEntity
  8
细实线层
100
AcDbLine
 10
6.750000000000007
 20
-11.5
 30
0.0
 11
7.050000000000008
 21
-10.3
 31
0.0
  0
CIRCLE
  5
F7
330
1F
100
AcDbEntity
  8
细实线层
100
AcDbCircle
 10
6.900000000000007
 20
-10.9
 30
0.0
 40
0.1500000000000001
  0
CIRCLE
  5
F8
330
1F
100
AcDbEntity
  8
细实线层
100
AcDbCircle
 10
6.900000000000007
 20
-10.9
 30
0.0
 40
0.1500000000000001
  0
POLYLINE
  5
F9
330
1F
100
AcDbEntity
  8
细实线层
100
AcDb2dPolyline
 66
     1
 10
0.0
 20
0.0
 30
0.0
 70
     1
  0
VERTEX
  5
245
330
F9
100
AcDbEntity
  8
细实线层
100
AcDbVertex
100
AcDb2dVertex
 10
7.250000000000007
 20
-10.3
 30
0.0
  0
VERTEX
  5
246
330
F9
100
AcDbEntity
  8
细实线层
100
AcDbVertex
100
AcDb2dVertex
 10
7.250000000000007
 20
-11.5
 30
0.0
  0
VERTEX
  5
247
330
F9
100
AcDbEntity
  8
细实线层
100
AcDbVertex
100
AcDb2dVertex
 10
7.550000000000008
 20
-11.5
 30
0.0
  0
VERTEX
  5
248
330
F9
100
AcDbEntity
  8
细实线层
100
AcDbVertex
100
AcDb2dVertex
 10
7.550000000000008
 20
-10.3
 30
0.0
  0
SEQEND
  5
357
330
F9
100
AcDbEntity
  8
细实线层
  0
LINE
  5
FA
330
1F
100
AcDbEntity
  8
细实线层
100
AcDbLine
 10
7.550000000000008
 20
-11.5
 30
0.0
 11
7.250000000000007
 21
-10.3
 31
0.0
  0
LINE
  5
FB
330
1F
100
AcDbEntity
  8
细实线层
100
AcDbLine
 10
7.250000000000007
 20
-11.5
 30
0.0
 11
7.550000000000008
 21
-10.3
 31
0.0
  0
CIRCLE
  5
FC
330
1F
100
AcDbEntity
  8
细实线层
100
AcDbCircle
 10
7.400000000000007
 20
-10.9
 30
0.0
 40
0.1500000000000001
  0
CIRCLE
  5
FD
330
1F
100
AcDbEntity
  8
细实线层
100
AcDbCircle
 10
7.400000000000007
 20
-10.9
 30
0.0
 40
0.1500000000000001
  0
POLYLINE
  5
FE
330
1F
100
AcDbEntity
  8
细实线层
100
AcDb2dPolyline
 66
     1
 10
0.0
 20
0.0
 30
0.0
 70
     1
  0
VERTEX
  5
249
330
FE
100
AcDbEntity
  8
细实线层
100
AcDbVertex
100
AcDb2dVertex
 10
7.750000000000007
 20
-10.3
 30
0.0
  0
VERTEX
  5
24A
330
FE
100
AcDbEntity
  8
细实线层
100
AcDbVertex
100
AcDb2dVertex
 10
7.750000000000007
 20
-11.5
 30
0.0
  0
VERTEX
  5
24B
330
FE
100
AcDbEntity
  8
细实线层
100
AcDbVertex
100
AcDb2dVertex
 10
8.050000000000008
 20
-11.5
 30
0.0
  0
VERTEX
  5
24C
330
FE
100
AcDbEntity
  8
细实线层
100
AcDbVertex
100
AcDb2dVertex
 10
8.050000000000008
 20
-10.3
 30
0.0
  0
SEQEND
  5
356
330
FE
100
AcDbEntity
  8
细实线层
  0
LINE
  5
FF
330
1F
100
AcDbEntity
  8
细实线层
100
AcDbLine
 10
8.050000000000008
 20
-11.5
 30
0.0
 11
7.750000000000007
 21
-10.3
 31
0.0
  0
LINE
  5
100
330
1F
100
AcDbEntity
  8
细实线层
100
AcDbLine
 10
7.750000000000007
 20
-11.5
 30
0.0
 11
8.050000000000008
 21
-10.3
 31
0.0
  0
CIRCLE
  5
101
330
1F
100
AcDbEntity
  8
细实线层
100
AcDbCircle
 10
7.900000000000007
 20
-10.9
 30
0.0
 40
0.1500000000000001
  0
CIRCLE
  5
102
330
1F
100
AcDbEntity
  8
细实线层
100
AcDbCircle
 10
7.900000000000007
 20
-10.9
 30
0.0
 40
0.1500000000000001
  0
POLYLINE
  5
103
330
1F
100
AcDbEntity
  8
细实线层
100
AcDb2dPolyline
 66
     1
 10
0.0
 20
0.0
 30
0.0
 70
     1
  0
VERTEX
  5
24D
330
103
100
AcDbEntity
  8
细实线层
100
AcDbVertex
100
AcDb2dVertex
 10
8.250000000000007
 20
-10.3
 30
0.0
  0
VERTEX
  5
24E
330
103
100
AcDbEntity
  8
细实线层
100
AcDbVertex
100
AcDb2dVertex
 10
8.250000000000007
 20
-11.5
 30
0.0
  0
VERTEX
  5
24F
330
103
100
AcDbEntity
  8
细实线层
100
AcDbVertex
100
AcDb2dVertex
 10
8.550000000000008
 20
-11.5
 30
0.0
  0
VERTEX
  5
250
330
103
100
AcDbEntity
  8
细实线层
100
AcDbVertex
100
AcDb2dVertex
 10
8.550000000000008
 20
-10.3
 30
0.0
  0
SEQEND
  5
355
330
103
100
AcDbEntity
  8
细实线层
  0
LINE
  5
104
330
1F
100
AcDbEntity
  8
细实线层
100
AcDbLine
 10
8.550000000000008
 20
-11.5
 30
0.0
 11
8.250000000000007
 21
-10.3
 31
0.0
  0
LINE
  5
105
330
1F
100
AcDbEntity
  8
细实线层
100
AcDbLine
 10
8.250000000000007
 20
-11.5
 30
0.0
 11
8.550000000000008
 21
-10.3
 31
0.0
  0
CIRCLE
  5
106
330
1F
100
AcDbEntity
  8
细实线层
100
AcDbCircle
 10
8.400000000000007
 20
-10.9
 30
0.0
 40
0.1500000000000001
  0
CIRCLE
  5
107
330
1F
100
AcDbEntity
  8
细实线层
100
AcDbCircle
 10
8.400000000000007
 20
-10.9
 30
0.0
 40
0.1500000000000001
  0
POLYLINE
  5
108
330
1F
100
AcDbEntity
  8
细实线层
100
AcDb2dPolyline
 66
     1
 10
0.0
 20
0.0
 30
0.0
 70
     1
  0
VERTEX
  5
251
330
108
100
AcDbEntity
  8
细实线层
100
AcDbVertex
100
AcDb2dVertex
 10
8.750000000000007
 20
-10.3
 30
0.0
  0
VERTEX
  5
252
330
108
100
AcDbEntity
  8
细实线层
100
AcDbVertex
100
AcDb2dVertex
 10
8.750000000000007
 20
-11.5
 30
0.0
  0
VERTEX
  5
253
330
108
100
AcDbEntity
  8
细实线层
100
AcDbVertex
100
AcDb2dVertex
 10
9.050000000000008
 20
-11.5
 30
0.0
  0
VERTEX
  5
254
330
108
100
AcDbEntity
  8
细实线层
100
AcDbVertex
100
AcDb2dVertex
 10
9.050000000000008
 20
-10.3
 30
0.0
  0
SEQEND
  5
354
330
108
100
AcDbEntity
  8
细实线层
  0
LINE
  5
109
330
1F
100
AcDbEntity
  8
细实线层
100
AcDbLine
 10
9.050000000000008
 20
-11.5
 30
0.0
 11
8.750000000000007
 21
-10.3
 31
0.0
  0
LINE
  5
10A
330
1F
100
AcDbEntity
  8
细实线层
100
AcDbLine
 10
8.750000000000007
 20
-11.5
 30
0.0
 11
9.050000000000008
 21
-10.3
 31
0.0
  0
CIRCLE
  5
10B
330
1F
100
AcDbEntity
  8
细实线层
100
AcDbCircle
 10
8.900000000000007
 20
-10.9
 30
0.0
 40
0.1500000000000001
  0
CIRCLE
  5
10C
330
1F
100
AcDbEntity
  8
细实线层
100
AcDbCircle
 10
8.900000000000007
 20
-10.9
 30
0.0
 40
0.1500000000000001
  0
POLYLINE
  5
10D
330
1F
100
AcDbEntity
  8
细实线层
100
AcDb2dPolyline
 66
     1
 10
0.0
 20
0.0
 30
0.0
 70
     1
  0
VERTEX
  5
255
330
10D
100
AcDbEntity
  8
细实线层
100
AcDbVertex
100
AcDb2dVertex
 10
1.250000000000008
 20
-0.0000000000000142
 30
0.0
  0
VERTEX
  5
256
330
10D
100
AcDbEntity
  8
细实线层
100
AcDbVertex
100
AcDb2dVertex
 10
1.250000000000008
 20
1.199999999999985
 30
0.0
  0
VERTEX
  5
257
330
10D
100
AcDbEntity
  8
细实线层
100
AcDbVertex
100
AcDb2dVertex
 10
1.550000000000008
 20
1.199999999999985
 30
0.0
  0
VERTEX
  5
258
330
10D
100
AcDbEntity
  8
细实线层
100
AcDbVertex
100
AcDb2dVertex
 10
1.550000000000008
 20
-0.0000000000000142
 30
0.0
  0
SEQEND
  5
353
330
10D
100
AcDbEntity
  8
细实线层
  0
LINE
  5
10E
330
1F
100
AcDbEntity
  8
细实线层
100
AcDbLine
 10
1.550000000000008
 20
1.199999999999985
 30
0.0
 11
1.250000000000008
 21
-0.0000000000000142
 31
0.0
  0
LINE
  5
10F
330
1F
100
AcDbEntity
  8
细实线层
100
AcDbLine
 10
1.250000000000008
 20
1.199999999999985
 30
0.0
 11
1.550000000000008
 21
-0.0000000000000142
 31
0.0
  0
CIRCLE
  5
110
330
1F
100
AcDbEntity
  8
细实线层
100
AcDbCircle
 10
1.400000000000008
 20
0.5999999999999854
 30
0.0
 40
0.1500000000000001
  0
POLYLINE
  5
111
330
1F
100
AcDbEntity
  8
细实线层
100
AcDb2dPolyline
 66
     1
 10
0.0
 20
0.0
 30
0.0
 70
     1
  0
VERTEX
  5
259
330
111
100
AcDbEntity
  8
细实线层
100
AcDbVertex
100
AcDb2dVertex
 10
1.750000000000008
 20
-0.0000000000000142
 30
0.0
  0
VERTEX
  5
25A
330
111
100
AcDbEntity
  8
细实线层
100
AcDbVertex
100
AcDb2dVertex
 10
1.750000000000008
 20
1.199999999999985
 30
0.0
  0
VERTEX
  5
25B
330
111
100
AcDbEntity
  8
细实线层
100
AcDbVertex
100
AcDb2dVertex
 10
2.050000000000009
 20
1.199999999999985
 30
0.0
  0
VERTEX
  5
25C
330
111
100
AcDbEntity
  8
细实线层
100
AcDbVertex
100
AcDb2dVertex
 10
2.050000000000009
 20
-0.0000000000000142
 30
0.0
  0
SEQEND
  5
352
330
111
100
AcDbEntity
  8
细实线层
  0
LINE
  5
112
330
1F
100
AcDbEntity
  8
细实线层
100
AcDbLine
 10
2.050000000000009
 20
1.199999999999985
 30
0.0
 11
1.750000000000008
 21
-0.0000000000000142
 31
0.0
  0
LINE
  5
113
330
1F
100
AcDbEntity
  8
细实线层
100
AcDbLine
 10
1.750000000000008
 20
1.199999999999985
 30
0.0
 11
2.050000000000009
 21
-0.0000000000000142
 31
0.0
  0
CIRCLE
  5
114
330
1F
100
AcDbEntity
  8
细实线层
100
AcDbCircle
 10
1.900000000000008
 20
0.5999999999999854
 30
0.0
 40
0.1500000000000001
  0
CIRCLE
  5
115
330
1F
100
AcDbEntity
  8
细实线层
100
AcDbCircle
 10
1.900000000000008
 20
0.5999999999999854
 30
0.0
 40
0.1500000000000001
  0
POLYLINE
  5
116
330
1F
100
AcDbEntity
  8
细实线层
100
AcDb2dPolyline
 66
     1
 10
0.0
 20
0.0
 30
0.0
 70
     1
  0
VERTEX
  5
25D
330
116
100
AcDbEntity
  8
细实线层
100
AcDbVertex
100
AcDb2dVertex
 10
2.250000000000008
 20
-0.0000000000000142
 30
0.0
  0
VERTEX
  5
25E
330
116
100
AcDbEntity
  8
细实线层
100
AcDbVertex
100
AcDb2dVertex
 10
2.250000000000008
 20
1.199999999999985
 30
0.0
  0
VERTEX
  5
25F
330
116
100
AcDbEntity
  8
细实线层
100
AcDbVertex
100
AcDb2dVertex
 10
2.550000000000009
 20
1.199999999999985
 30
0.0
  0
VERTEX
  5
260
330
116
100
AcDbEntity
  8
细实线层
100
AcDbVertex
100
AcDb2dVertex
 10
2.550000000000009
 20
-0.0000000000000142
 30
0.0
  0
SEQEND
  5
351
330
116
100
AcDbEntity
  8
细实线层
  0
LINE
  5
117
330
1F
100
AcDbEntity
  8
细实线层
100
AcDbLine
 10
2.550000000000009
 20
1.199999999999985
 30
0.0
 11
2.250000000000008
 21
-0.0000000000000142
 31
0.0
  0
LINE
  5
118
330
1F
100
AcDbEntity
  8
细实线层
100
AcDbLine
 10
2.250000000000008
 20
1.199999999999985
 30
0.0
 11
2.550000000000009
 21
-0.0000000000000142
 31
0.0
  0
CIRCLE
  5
119
330
1F
100
AcDbEntity
  8
细实线层
100
AcDbCircle
 10
2.400000000000008
 20
0.5999999999999854
 30
0.0
 40
0.1500000000000001
  0
CIRCLE
  5
11A
330
1F
100
AcDbEntity
  8
细实线层
100
AcDbCircle
 10
2.400000000000008
 20
0.5999999999999854
 30
0.0
 40
0.1500000000000001
  0
POLYLINE
  5
11B
330
1F
100
AcDbEntity
  8
细实线层
100
AcDb2dPolyline
 66
     1
 10
0.0
 20
0.0
 30
0.0
 70
     1
  0
VERTEX
  5
261
330
11B
100
AcDbEntity
  8
细实线层
100
AcDbVertex
100
AcDb2dVertex
 10
2.750000000000008
 20
-0.0000000000000142
 30
0.0
  0
VERTEX
  5
262
330
11B
100
AcDbEntity
  8
细实线层
100
AcDbVertex
100
AcDb2dVertex
 10
2.750000000000008
 20
1.199999999999985
 30
0.0
  0
VERTEX
  5
263
330
11B
100
AcDbEntity
  8
细实线层
100
AcDbVertex
100
AcDb2dVertex
 10
3.050000000000009
 20
1.199999999999985
 30
0.0
  0
VERTEX
  5
264
330
11B
100
AcDbEntity
  8
细实线层
100
AcDbVertex
100
AcDb2dVertex
 10
3.050000000000009
 20
-0.0000000000000142
 30
0.0
  0
SEQEND
  5
350
330
11B
100
AcDbEntity
  8
细实线层
  0
LINE
  5
11C
330
1F
100
AcDbEntity
  8
细实线层
100
AcDbLine
 10
3.050000000000009
 20
1.199999999999985
 30
0.0
 11
2.750000000000008
 21
-0.0000000000000142
 31
0.0
  0
LINE
  5
11D
330
1F
100
AcDbEntity
  8
细实线层
100
AcDbLine
 10
2.750000000000008
 20
1.199999999999985
 30
0.0
 11
3.050000000000009
 21
-0.0000000000000142
 31
0.0
  0
CIRCLE
  5
11E
330
1F
100
AcDbEntity
  8
细实线层
100
AcDbCircle
 10
2.900000000000008
 20
0.5999999999999854
 30
0.0
 40
0.1500000000000001
  0
CIRCLE
  5
11F
330
1F
100
AcDbEntity
  8
细实线层
100
AcDbCircle
 10
2.900000000000008
 20
0.5999999999999854
 30
0.0
 40
0.1500000000000001
  0
POLYLINE
  5
120
330
1F
100
AcDbEntity
  8
细实线层
100
AcDb2dPolyline
 66
     1
 10
0.0
 20
0.0
 30
0.0
 70
     1
  0
VERTEX
  5
265
330
120
100
AcDbEntity
  8
细实线层
100
AcDbVertex
100
AcDb2dVertex
 10
3.250000000000008
 20
-0.0000000000000142
 30
0.0
  0
VERTEX
  5
266
330
120
100
AcDbEntity
  8
细实线层
100
AcDbVertex
100
AcDb2dVertex
 10
3.250000000000008
 20
1.199999999999985
 30
0.0
  0
VERTEX
  5
267
330
120
100
AcDbEntity
  8
细实线层
100
AcDbVertex
100
AcDb2dVertex
 10
3.550000000000009
 20
1.199999999999985
 30
0.0
  0
VERTEX
  5
268
330
120
100
AcDbEntity
  8
细实线层
100
AcDbVertex
100
AcDb2dVertex
 10
3.550000000000009
 20
-0.0000000000000142
 30
0.0
  0
SEQEND
  5
34F
330
120
100
AcDbEntity
  8
细实线层
  0
LINE
  5
121
330
1F
100
AcDbEntity
  8
细实线层
100
AcDbLine
 10
3.550000000000009
 20
1.199999999999985
 30
0.0
 11
3.250000000000008
 21
-0.0000000000000142
 31
0.0
  0
LINE
  5
122
330
1F
100
AcDbEntity
  8
细实线层
100
AcDbLine
 10
3.250000000000009
 20
1.199999999999985
 30
0.0
 11
3.550000000000009
 21
-0.0000000000000142
 31
0.0
  0
CIRCLE
  5
123
330
1F
100
AcDbEntity
  8
细实线层
100
AcDbCircle
 10
3.400000000000009
 20
0.5999999999999854
 30
0.0
 40
0.1500000000000001
  0
CIRCLE
  5
124
330
1F
100
AcDbEntity
  8
细实线层
100
AcDbCircle
 10
3.400000000000009
 20
0.5999999999999854
 30
0.0
 40
0.1500000000000001
  0
POLYLINE
  5
125
330
1F
100
AcDbEntity
  8
细实线层
100
AcDb2dPolyline
 66
     1
 10
0.0
 20
0.0
 30
0.0
 70
     1
  0
VERTEX
  5
269
330
125
100
AcDbEntity
  8
细实线层
100
AcDbVertex
100
AcDb2dVertex
 10
3.750000000000008
 20
-0.0000000000000142
 30
0.0
  0
VERTEX
  5
26A
330
125
100
AcDbEntity
  8
细实线层
100
AcDbVertex
100
AcDb2dVertex
 10
3.750000000000008
 20
1.199999999999985
 30
0.0
  0
VERTEX
  5
26B
330
125
100
AcDbEntity
  8
细实线层
100
AcDbVertex
100
AcDb2dVertex
 10
4.050000000000009
 20
1.199999999999985
 30
0.0
  0
VERTEX
  5
26C
330
125
100
AcDbEntity
  8
细实线层
100
AcDbVertex
100
AcDb2dVertex
 10
4.050000000000009
 20
-0.0000000000000142
 30
0.0
  0
SEQEND
  5
34E
330
125
100
AcDbEntity
  8
细实线层
  0
LINE
  5
126
330
1F
100
AcDbEntity
  8
细实线层
100
AcDbLine
 10
4.050000000000009
 20
1.199999999999985
 30
0.0
 11
3.750000000000008
 21
-0.0000000000000142
 31
0.0
  0
LINE
  5
127
330
1F
100
AcDbEntity
  8
细实线层
100
AcDbLine
 10
3.750000000000009
 20
1.199999999999985
 30
0.0
 11
4.050000000000009
 21
-0.0000000000000142
 31
0.0
  0
CIRCLE
  5
128
330
1F
100
AcDbEntity
  8
细实线层
100
AcDbCircle
 10
3.900000000000009
 20
0.5999999999999854
 30
0.0
 40
0.1500000000000001
  0
CIRCLE
  5
129
330
1F
100
AcDbEntity
  8
细实线层
100
AcDbCircle
 10
3.900000000000009
 20
0.5999999999999854
 30
0.0
 40
0.1500000000000001
  0
POLYLINE
  5
12A
330
1F
100
AcDbEntity
  8
细实线层
100
AcDb2dPolyline
 66
     1
 10
0.0
 20
0.0
 30
0.0
 70
     1
  0
VERTEX
  5
26D
330
12A
100
AcDbEntity
  8
细实线层
100
AcDbVertex
100
AcDb2dVertex
 10
4.250000000000008
 20
-0.0000000000000142
 30
0.0
  0
VERTEX
  5
26E
330
12A
100
AcDbEntity
  8
细实线层
100
AcDbVertex
100
AcDb2dVertex
 10
4.250000000000008
 20
1.199999999999985
 30
0.0
  0
VERTEX
  5
26F
330
12A
100
AcDbEntity
  8
细实线层
100
AcDbVertex
100
AcDb2dVertex
 10
4.550000000000009
 20
1.199999999999985
 30
0.0
  0
VERTEX
  5
270
330
12A
100
AcDbEntity
  8
细实线层
100
AcDbVertex
100
AcDb2dVertex
 10
4.550000000000009
 20
-0.0000000000000142
 30
0.0
  0
SEQEND
  5
34D
330
12A
100
AcDbEntity
  8
细实线层
  0
LINE
  5
12B
330
1F
100
AcDbEntity
  8
细实线层
100
AcDbLine
 10
4.550000000000009
 20
1.199999999999985
 30
0.0
 11
4.250000000000008
 21
-0.0000000000000142
 31
0.0
  0
LINE
  5
12C
330
1F
100
AcDbEntity
  8
细实线层
100
AcDbLine
 10
4.250000000000008
 20
1.199999999999985
 30
0.0
 11
4.550000000000009
 21
-0.0000000000000142
 31
0.0
  0
CIRCLE
  5
12D
330
1F
100
AcDbEntity
  8
细实线层
100
AcDbCircle
 10
4.400000000000008
 20
0.5999999999999854
 30
0.0
 40
0.1500000000000001
  0
CIRCLE
  5
12E
330
1F
100
AcDbEntity
  8
细实线层
100
AcDbCircle
 10
4.400000000000008
 20
0.5999999999999854
 30
0.0
 40
0.1500000000000001
  0
POLYLINE
  5
12F
330
1F
100
AcDbEntity
  8
细实线层
100
AcDb2dPolyline
 66
     1
 10
0.0
 20
0.0
 30
0.0
 70
     1
  0
VERTEX
  5
271
330
12F
100
AcDbEntity
  8
细实线层
100
AcDbVertex
100
AcDb2dVertex
 10
4.750000000000008
 20
-0.0000000000000142
 30
0.0
  0
VERTEX
  5
272
330
12F
100
AcDbEntity
  8
细实线层
100
AcDbVertex
100
AcDb2dVertex
 10
4.750000000000008
 20
1.199999999999985
 30
0.0
  0
VERTEX
  5
273
330
12F
100
AcDbEntity
  8
细实线层
100
AcDbVertex
100
AcDb2dVertex
 10
5.050000000000009
 20
1.199999999999985
 30
0.0
  0
VERTEX
  5
274
330
12F
100
AcDbEntity
  8
细实线层
100
AcDbVertex
100
AcDb2dVertex
 10
5.050000000000009
 20
-0.0000000000000142
 30
0.0
  0
SEQEND
  5
34C
330
12F
100
AcDbEntity
  8
细实线层
  0
LINE
  5
130
330
1F
100
AcDbEntity
  8
细实线层
100
AcDbLine
 10
5.050000000000009
 20
1.199999999999985
 30
0.0
 11
4.750000000000008
 21
-0.0000000000000142
 31
0.0
  0
LINE
  5
131
330
1F
100
AcDbEntity
  8
细实线层
100
AcDbLine
 10
4.750000000000008
 20
1.199999999999985
 30
0.0
 11
5.050000000000009
 21
-0.0000000000000142
 31
0.0
  0
CIRCLE
  5
132
330
1F
100
AcDbEntity
  8
细实线层
100
AcDbCircle
 10
4.900000000000008
 20
0.5999999999999854
 30
0.0
 40
0.1500000000000001
  0
CIRCLE
  5
133
330
1F
100
AcDbEntity
  8
细实线层
100
AcDbCircle
 10
4.900000000000008
 20
0.5999999999999854
 30
0.0
 40
0.1500000000000001
  0
POLYLINE
  5
134
330
1F
100
AcDbEntity
  8
细实线层
100
AcDb2dPolyline
 66
     1
 10
0.0
 20
0.0
 30
0.0
 70
     1
  0
VERTEX
  5
275
330
134
100
AcDbEntity
  8
细实线层
100
AcDbVertex
100
AcDb2dVertex
 10
5.250000000000008
 20
-0.0000000000000142
 30
0.0
  0
VERTEX
  5
276
330
134
100
AcDbEntity
  8
细实线层
100
AcDbVertex
100
AcDb2dVertex
 10
5.250000000000008
 20
1.199999999999985
 30
0.0
  0
VERTEX
  5
277
330
134
100
AcDbEntity
  8
细实线层
100
AcDbVertex
100
AcDb2dVertex
 10
5.550000000000009
 20
1.199999999999985
 30
0.0
  0
VERTEX
  5
278
330
134
100
AcDbEntity
  8
细实线层
100
AcDbVertex
100
AcDb2dVertex
 10
5.550000000000009
 20
-0.0000000000000142
 30
0.0
  0
SEQEND
  5
34B
330
134
100
AcDbEntity
  8
细实线层
  0
LINE
  5
135
330
1F
100
AcDbEntity
  8
细实线层
100
AcDbLine
 10
5.550000000000009
 20
1.199999999999985
 30
0.0
 11
5.250000000000008
 21
-0.0000000000000142
 31
0.0
  0
LINE
  5
136
330
1F
100
AcDbEntity
  8
细实线层
100
AcDbLine
 10
5.250000000000008
 20
1.199999999999985
 30
0.0
 11
5.550000000000009
 21
-0.0000000000000142
 31
0.0
  0
CIRCLE
  5
137
330
1F
100
AcDbEntity
  8
细实线层
100
AcDbCircle
 10
5.400000000000008
 20
0.5999999999999854
 30
0.0
 40
0.1500000000000001
  0
CIRCLE
  5
138
330
1F
100
AcDbEntity
  8
细实线层
100
AcDbCircle
 10
5.400000000000008
 20
0.5999999999999854
 30
0.0
 40
0.1500000000000001
  0
POLYLINE
  5
139
330
1F
100
AcDbEntity
  8
细实线层
100
AcDb2dPolyline
 66
     1
 10
0.0
 20
0.0
 30
0.0
 70
     1
  0
VERTEX
  5
279
330
139
100
AcDbEntity
  8
细实线层
100
AcDbVertex
100
AcDb2dVertex
 10
5.750000000000008
 20
-0.0000000000000142
 30
0.0
  0
VERTEX
  5
27A
330
139
100
AcDbEntity
  8
细实线层
100
AcDbVertex
100
AcDb2dVertex
 10
5.750000000000008
 20
1.199999999999985
 30
0.0
  0
VERTEX
  5
27B
330
139
100
AcDbEntity
  8
细实线层
100
AcDbVertex
100
AcDb2dVertex
 10
6.05000000000001
 20
1.199999999999985
 30
0.0
  0
VERTEX
  5
27C
330
139
100
AcDbEntity
  8
细实线层
100
AcDbVertex
100
AcDb2dVertex
 10
6.05000000000001
 20
-0.0000000000000142
 30
0.0
  0
SEQEND
  5
34A
330
139
100
AcDbEntity
  8
细实线层
  0
LINE
  5
13A
330
1F
100
AcDbEntity
  8
细实线层
100
AcDbLine
 10
6.05000000000001
 20
1.199999999999985
 30
0.0
 11
5.750000000000008
 21
-0.0000000000000142
 31
0.0
  0
LINE
  5
13B
330
1F
100
AcDbEntity
  8
细实线层
100
AcDbLine
 10
5.750000000000008
 20
1.199999999999985
 30
0.0
 11
6.05000000000001
 21
-0.0000000000000142
 31
0.0
  0
CIRCLE
  5
13C
330
1F
100
AcDbEntity
  8
细实线层
100
AcDbCircle
 10
5.900000000000008
 20
0.5999999999999854
 30
0.0
 40
0.1500000000000001
  0
CIRCLE
  5
13D
330
1F
100
AcDbEntity
  8
细实线层
100
AcDbCircle
 10
5.900000000000008
 20
0.5999999999999854
 30
0.0
 40
0.1500000000000001
  0
POLYLINE
  5
13E
330
1F
100
AcDbEntity
  8
细实线层
100
AcDb2dPolyline
 66
     1
 10
0.0
 20
0.0
 30
0.0
 70
     1
  0
VERTEX
  5
27D
330
13E
100
AcDbEntity
  8
细实线层
100
AcDbVertex
100
AcDb2dVertex
 10
6.250000000000009
 20
-0.0000000000000142
 30
0.0
  0
VERTEX
  5
27E
330
13E
100
AcDbEntity
  8
细实线层
100
AcDbVertex
100
AcDb2dVertex
 10
6.250000000000009
 20
1.199999999999985
 30
0.0
  0
VERTEX
  5
27F
330
13E
100
AcDbEntity
  8
细实线层
100
AcDbVertex
100
AcDb2dVertex
 10
6.55000000000001
 20
1.199999999999985
 30
0.0
  0
VERTEX
  5
280
330
13E
100
AcDbEntity
  8
细实线层
100
AcDbVertex
100
AcDb2dVertex
 10
6.55000000000001
 20
-0.0000000000000142
 30
0.0
  0
SEQEND
  5
349
330
13E
100
AcDbEntity
  8
细实线层
  0
LINE
  5
13F
330
1F
100
AcDbEntity
  8
细实线层
100
AcDbLine
 10
6.55000000000001
 20
1.199999999999985
 30
0.0
 11
6.250000000000009
 21
-0.0000000000000142
 31
0.0
  0
LINE
  5
140
330
1F
100
AcDbEntity
  8
细实线层
100
AcDbLine
 10
6.250000000000009
 20
1.199999999999985
 30
0.0
 11
6.55000000000001
 21
-0.0000000000000142
 31
0.0
  0
CIRCLE
  5
141
330
1F
100
AcDbEntity
  8
细实线层
100
AcDbCircle
 10
6.400000000000009
 20
0.5999999999999854
 30
0.0
 40
0.1500000000000001
  0
CIRCLE
  5
142
330
1F
100
AcDbEntity
  8
细实线层
100
AcDbCircle
 10
6.400000000000009
 20
0.5999999999999854
 30
0.0
 40
0.1500000000000001
  0
POLYLINE
  5
143
330
1F
100
AcDbEntity
  8
细实线层
100
AcDb2dPolyline
 66
     1
 10
0.0
 20
0.0
 30
0.0
 70
     1
  0
VERTEX
  5
281
330
143
100
AcDbEntity
  8
细实线层
100
AcDbVertex
100
AcDb2dVertex
 10
6.750000000000009
 20
-0.0000000000000142
 30
0.0
  0
VERTEX
  5
282
330
143
100
AcDbEntity
  8
细实线层
100
AcDbVertex
100
AcDb2dVertex
 10
6.750000000000009
 20
1.199999999999985
 30
0.0
  0
VERTEX
  5
283
330
143
100
AcDbEntity
  8
细实线层
100
AcDbVertex
100
AcDb2dVertex
 10
7.05000000000001
 20
1.199999999999985
 30
0.0
  0
VERTEX
  5
284
330
143
100
AcDbEntity
  8
细实线层
100
AcDbVertex
100
AcDb2dVertex
 10
7.05000000000001
 20
-0.0000000000000142
 30
0.0
  0
SEQEND
  5
348
330
143
100
AcDbEntity
  8
细实线层
  0
LINE
  5
144
330
1F
100
AcDbEntity
  8
细实线层
100
AcDbLine
 10
7.05000000000001
 20
1.199999999999985
 30
0.0
 11
6.750000000000009
 21
-0.0000000000000142
 31
0.0
  0
LINE
  5
145
330
1F
100
AcDbEntity
  8
细实线层
100
AcDbLine
 10
6.750000000000009
 20
1.199999999999985
 30
0.0
 11
7.05000000000001
 21
-0.0000000000000142
 31
0.0
  0
CIRCLE
  5
146
330
1F
100
AcDbEntity
  8
细实线层
100
AcDbCircle
 10
6.900000000000009
 20
0.5999999999999854
 30
0.0
 40
0.1500000000000001
  0
CIRCLE
  5
147
330
1F
100
AcDbEntity
  8
细实线层
100
AcDbCircle
 10
6.900000000000009
 20
0.5999999999999854
 30
0.0
 40
0.1500000000000001
  0
POLYLINE
  5
148
330
1F
100
AcDbEntity
  8
细实线层
100
AcDb2dPolyline
 66
     1
 10
0.0
 20
0.0
 30
0.0
 70
     1
  0
VERTEX
  5
285
330
148
100
AcDbEntity
  8
细实线层
100
AcDbVertex
100
AcDb2dVertex
 10
7.250000000000009
 20
-0.0000000000000142
 30
0.0
  0
VERTEX
  5
286
330
148
100
AcDbEntity
  8
细实线层
100
AcDbVertex
100
AcDb2dVertex
 10
7.250000000000009
 20
1.199999999999985
 30
0.0
  0
VERTEX
  5
287
330
148
100
AcDbEntity
  8
细实线层
100
AcDbVertex
100
AcDb2dVertex
 10
7.55000000000001
 20
1.199999999999985
 30
0.0
  0
VERTEX
  5
288
330
148
100
AcDbEntity
  8
细实线层
100
AcDbVertex
100
AcDb2dVertex
 10
7.55000000000001
 20
-0.0000000000000142
 30
0.0
  0
SEQEND
  5
347
330
148
100
AcDbEntity
  8
细实线层
  0
LINE
  5
149
330
1F
100
AcDbEntity
  8
细实线层
100
AcDbLine
 10
7.55000000000001
 20
1.199999999999985
 30
0.0
 11
7.250000000000009
 21
-0.0000000000000142
 31
0.0
  0
LINE
  5
14A
330
1F
100
AcDbEntity
  8
细实线层
100
AcDbLine
 10
7.250000000000009
 20
1.199999999999985
 30
0.0
 11
7.55000000000001
 21
-0.0000000000000142
 31
0.0
  0
CIRCLE
  5
14B
330
1F
100
AcDbEntity
  8
细实线层
100
AcDbCircle
 10
7.400000000000009
 20
0.5999999999999854
 30
0.0
 40
0.1500000000000001
  0
CIRCLE
  5
14C
330
1F
100
AcDbEntity
  8
细实线层
100
AcDbCircle
 10
7.400000000000009
 20
0.5999999999999854
 30
0.0
 40
0.1500000000000001
  0
POLYLINE
  5
14D
330
1F
100
AcDbEntity
  8
细实线层
100
AcDb2dPolyline
 66
     1
 10
0.0
 20
0.0
 30
0.0
 70
     1
  0
VERTEX
  5
289
330
14D
100
AcDbEntity
  8
细实线层
100
AcDbVertex
100
AcDb2dVertex
 10
7.750000000000009
 20
-0.0000000000000142
 30
0.0
  0
VERTEX
  5
28A
330
14D
100
AcDbEntity
  8
细实线层
100
AcDbVertex
100
AcDb2dVertex
 10
7.750000000000009
 20
1.199999999999985
 30
0.0
  0
VERTEX
  5
28B
330
14D
100
AcDbEntity
  8
细实线层
100
AcDbVertex
100
AcDb2dVertex
 10
8.05000000000001
 20
1.199999999999985
 30
0.0
  0
VERTEX
  5
28C
330
14D
100
AcDbEntity
  8
细实线层
100
AcDbVertex
100
AcDb2dVertex
 10
8.05000000000001
 20
-0.0000000000000142
 30
0.0
  0
SEQEND
  5
346
330
14D
100
AcDbEntity
  8
细实线层
  0
LINE
  5
14E
330
1F
100
AcDbEntity
  8
细实线层
100
AcDbLine
 10
8.05000000000001
 20
1.199999999999985
 30
0.0
 11
7.750000000000009
 21
-0.0000000000000142
 31
0.0
  0
LINE
  5
14F
330
1F
100
AcDbEntity
  8
细实线层
100
AcDbLine
 10
7.750000000000009
 20
1.199999999999985
 30
0.0
 11
8.05000000000001
 21
-0.0000000000000142
 31
0.0
  0
CIRCLE
  5
150
330
1F
100
AcDbEntity
  8
细实线层
100
AcDbCircle
 10
7.900000000000009
 20
0.5999999999999854
 30
0.0
 40
0.1500000000000001
  0
CIRCLE
  5
151
330
1F
100
AcDbEntity
  8
细实线层
100
AcDbCircle
 10
7.900000000000009
 20
0.5999999999999854
 30
0.0
 40
0.1500000000000001
  0
POLYLINE
  5
152
330
1F
100
AcDbEntity
  8
细实线层
100
AcDb2dPolyline
 66
     1
 10
0.0
 20
0.0
 30
0.0
 70
     1
  0
VERTEX
  5
28D
330
152
100
AcDbEntity
  8
细实线层
100
AcDbVertex
100
AcDb2dVertex
 10
8.250000000000009
 20
-0.0000000000000142
 30
0.0
  0
VERTEX
  5
28E
330
152
100
AcDbEntity
  8
细实线层
100
AcDbVertex
100
AcDb2dVertex
 10
8.250000000000009
 20
1.199999999999985
 30
0.0
  0
VERTEX
  5
28F
330
152
100
AcDbEntity
  8
细实线层
100
AcDbVertex
100
AcDb2dVertex
 10
8.55000000000001
 20
1.199999999999985
 30
0.0
  0
VERTEX
  5
290
330
152
100
AcDbEntity
  8
细实线层
100
AcDbVertex
100
AcDb2dVertex
 10
8.55000000000001
 20
-0.0000000000000142
 30
0.0
  0
SEQEND
  5
345
330
152
100
AcDbEntity
  8
细实线层
  0
LINE
  5
153
330
1F
100
AcDbEntity
  8
细实线层
100
AcDbLine
 10
8.55000000000001
 20
1.199999999999985
 30
0.0
 11
8.250000000000009
 21
-0.0000000000000142
 31
0.0
  0
LINE
  5
154
330
1F
100
AcDbEntity
  8
细实线层
100
AcDbLine
 10
8.250000000000009
 20
1.199999999999985
 30
0.0
 11
8.55000000000001
 21
-0.0000000000000142
 31
0.0
  0
CIRCLE
  5
155
330
1F
100
AcDbEntity
  8
细实线层
100
AcDbCircle
 10
8.40000000000001
 20
0.5999999999999854
 30
0.0
 40
0.1500000000000001
  0
CIRCLE
  5
156
330
1F
100
AcDbEntity
  8
细实线层
100
AcDbCircle
 10
8.40000000000001
 20
0.5999999999999854
 30
0.0
 40
0.1500000000000001
  0
POLYLINE
  5
157
330
1F
100
AcDbEntity
  8
细实线层
100
AcDb2dPolyline
 66
     1
 10
0.0
 20
0.0
 30
0.0
 70
     1
  0
VERTEX
  5
291
330
157
100
AcDbEntity
  8
细实线层
100
AcDbVertex
100
AcDb2dVertex
 10
8.750000000000009
 20
-0.0000000000000142
 30
0.0
  0
VERTEX
  5
292
330
157
100
AcDbEntity
  8
细实线层
100
AcDbVertex
100
AcDb2dVertex
 10
8.750000000000009
 20
1.199999999999985
 30
0.0
  0
VERTEX
  5
293
330
157
100
AcDbEntity
  8
细实线层
100
AcDbVertex
100
AcDb2dVertex
 10
9.05000000000001
 20
1.199999999999985
 30
0.0
  0
VERTEX
  5
294
330
157
100
AcDbEntity
  8
细实线层
100
AcDbVertex
100
AcDb2dVertex
 10
9.05000000000001
 20
-0.0000000000000142
 30
0.0
  0
SEQEND
  5
344
330
157
100
AcDbEntity
  8
细实线层
  0
LINE
  5
158
330
1F
100
AcDbEntity
  8
细实线层
100
AcDbLine
 10
9.05000000000001
 20
1.199999999999985
 30
0.0
 11
8.750000000000009
 21
-0.0000000000000142
 31
0.0
  0
LINE
  5
159
330
1F
100
AcDbEntity
  8
细实线层
100
AcDbLine
 10
8.750000000000009
 20
1.199999999999985
 30
0.0
 11
9.05000000000001
 21
-0.0000000000000142
 31
0.0
  0
CIRCLE
  5
15A
330
1F
100
AcDbEntity
  8
细实线层
100
AcDbCircle
 10
8.90000000000001
 20
0.5999999999999854
 30
0.0
 40
0.1500000000000001
  0
CIRCLE
  5
15B
330
1F
100
AcDbEntity
  8
细实线层
100
AcDbCircle
 10
8.90000000000001
 20
0.5999999999999854
 30
0.0
 40
0.1500000000000001
  0
POLYLINE
  5
15C
330
1F
100
AcDbEntity
  8
细实线层
100
AcDb2dPolyline
 66
     1
 10
0.0
 20
0.0
 30
0.0
 70
     1
  0
VERTEX
  5
295
330
15C
100
AcDbEntity
  8
细实线层
100
AcDbVertex
100
AcDb2dVertex
 10
0.0000000000000098
 20
-1.250000000000016
 30
0.0
  0
VERTEX
  5
296
330
15C
100
AcDbEntity
  8
细实线层
100
AcDbVertex
100
AcDb2dVertex
 10
-1.19999999999999
 20
-1.250000000000019
 30
0.0
  0
VERTEX
  5
297
330
15C
100
AcDbEntity
  8
细实线层
100
AcDbVertex
100
AcDb2dVertex
 10
-1.199999999999989
 20
-1.55000000000002
 30
0.0
  0
VERTEX
  5
298
330
15C
100
AcDbEntity
  8
细实线层
100
AcDbVertex
100
AcDb2dVertex
 10
0.0000000000000107
 20
-1.550000000000016
 30
0.0
  0
SEQEND
  5
343
330
15C
100
AcDbEntity
  8
细实线层
  0
LINE
  5
15D
330
1F
100
AcDbEntity
  8
细实线层
100
AcDbLine
 10
-1.199999999999989
 20
-1.55000000000002
 30
0.0
 11
0.0000000000000098
 21
-1.250000000000016
 31
0.0
  0
LINE
  5
15E
330
1F
100
AcDbEntity
  8
细实线层
100
AcDbLine
 10
-1.19999999999999
 20
-1.25000000000002
 30
0.0
 11
0.0000000000000107
 21
-1.550000000000016
 31
0.0
  0
CIRCLE
  5
15F
330
1F
100
AcDbEntity
  8
细实线层
100
AcDbCircle
 10
-0.5999999999999894
 20
-1.400000000000018
 30
0.0
 40
0.1500000000000001
  0
POLYLINE
  5
160
330
1F
100
AcDbEntity
  8
细实线层
100
AcDb2dPolyline
 66
     1
 10
0.0
 20
0.0
 30
0.0
 70
     1
  0
VERTEX
  5
299
330
160
100
AcDbEntity
  8
细实线层
100
AcDbVertex
100
AcDb2dVertex
 10
0.0000000000000113
 20
-1.750000000000016
 30
0.0
  0
VERTEX
  5
29A
330
160
100
AcDbEntity
  8
细实线层
100
AcDbVertex
100
AcDb2dVertex
 10
-1.199999999999988
 20
-1.750000000000019
 30
0.0
  0
VERTEX
  5
29B
330
160
100
AcDbEntity
  8
细实线层
100
AcDbVertex
100
AcDb2dVertex
 10
-1.199999999999987
 20
-2.05000000000002
 30
0.0
  0
VERTEX
  5
29C
330
160
100
AcDbEntity
  8
细实线层
100
AcDbVertex
100
AcDb2dVertex
 10
0.0000000000000121
 20
-2.050000000000017
 30
0.0
  0
SEQEND
  5
342
330
160
100
AcDbEntity
  8
细实线层
  0
LINE
  5
161
330
1F
100
AcDbEntity
  8
细实线层
100
AcDbLine
 10
-1.199999999999987
 20
-2.05000000000002
 30
0.0
 11
0.0000000000000113
 21
-1.750000000000016
 31
0.0
  0
LINE
  5
162
330
1F
100
AcDbEntity
  8
细实线层
100
AcDbLine
 10
-1.199999999999988
 20
-1.75000000000002
 30
0.0
 11
0.0000000000000121
 21
-2.050000000000017
 31
0.0
  0
CIRCLE
  5
163
330
1F
100
AcDbEntity
  8
细实线层
100
AcDbCircle
 10
-0.599999999999988
 20
-1.900000000000018
 30
0.0
 40
0.1500000000000001
  0
CIRCLE
  5
164
330
1F
100
AcDbEntity
  8
细实线层
100
AcDbCircle
 10
-0.599999999999988
 20
-1.900000000000018
 30
0.0
 40
0.1500000000000001
  0
POLYLINE
  5
165
330
1F
100
AcDbEntity
  8
细实线层
100
AcDb2dPolyline
 66
     1
 10
0.0
 20
0.0
 30
0.0
 70
     1
  0
VERTEX
  5
29D
330
165
100
AcDbEntity
  8
细实线层
100
AcDbVertex
100
AcDb2dVertex
 10
0.0000000000000127
 20
-2.250000000000016
 30
0.0
  0
VERTEX
  5
29E
330
165
100
AcDbEntity
  8
细实线层
100
AcDbVertex
100
AcDb2dVertex
 10
-1.199999999999987
 20
-2.25000000000002
 30
0.0
  0
VERTEX
  5
29F
330
165
100
AcDbEntity
  8
细实线层
100
AcDbVertex
100
AcDb2dVertex
 10
-1.199999999999986
 20
-2.55000000000002
 30
0.0
  0
VERTEX
  5
2A0
330
165
100
AcDbEntity
  8
细实线层
100
AcDbVertex
100
AcDb2dVertex
 10
0.0000000000000136
 20
-2.550000000000017
 30
0.0
  0
SEQEND
  5
341
330
165
100
AcDbEntity
  8
细实线层
  0
LINE
  5
166
330
1F
100
AcDbEntity
  8
细实线层
100
AcDbLine
 10
-1.199999999999986
 20
-2.55000000000002
 30
0.0
 11
0.0000000000000127
 21
-2.250000000000016
 31
0.0
  0
LINE
  5
167
330
1F
100
AcDbEntity
  8
细实线层
100
AcDbLine
 10
-1.199999999999987
 20
-2.25000000000002
 30
0.0
 11
0.0000000000000136
 21
-2.550000000000017
 31
0.0
  0
CIRCLE
  5
168
330
1F
100
AcDbEntity
  8
细实线层
100
AcDbCircle
 10
-0.5999999999999865
 20
-2.400000000000018
 30
0.0
 40
0.1500000000000001
  0
CIRCLE
  5
169
330
1F
100
AcDbEntity
  8
细实线层
100
AcDbCircle
 10
-0.5999999999999865
 20
-2.400000000000018
 30
0.0
 40
0.1500000000000001
  0
POLYLINE
  5
16A
330
1F
100
AcDbEntity
  8
细实线层
100
AcDb2dPolyline
 66
     1
 10
0.0
 20
0.0
 30
0.0
 70
     1
  0
VERTEX
  5
2A1
330
16A
100
AcDbEntity
  8
细实线层
100
AcDbVertex
100
AcDb2dVertex
 10
0.0000000000000142
 20
-2.750000000000016
 30
0.0
  0
VERTEX
  5
2A2
330
16A
100
AcDbEntity
  8
细实线层
100
AcDbVertex
100
AcDb2dVertex
 10
-1.199999999999985
 20
-2.75000000000002
 30
0.0
  0
VERTEX
  5
2A3
330
16A
100
AcDbEntity
  8
细实线层
100
AcDbVertex
100
AcDb2dVertex
 10
-1.199999999999984
 20
-3.050000000000021
 30
0.0
  0
VERTEX
  5
2A4
330
16A
100
AcDbEntity
  8
细实线层
100
AcDbVertex
100
AcDb2dVertex
 10
0.000000000000015
 20
-3.050000000000017
 30
0.0
  0
SEQEND
  5
340
330
16A
100
AcDbEntity
  8
细实线层
  0
LINE
  5
16B
330
1F
100
AcDbEntity
  8
细实线层
100
AcDbLine
 10
-1.199999999999984
 20
-3.050000000000021
 30
0.0
 11
0.0000000000000142
 21
-2.750000000000016
 31
0.0
  0
LINE
  5
16C
330
1F
100
AcDbEntity
  8
细实线层
100
AcDbLine
 10
-1.199999999999985
 20
-2.75000000000002
 30
0.0
 11
0.000000000000015
 21
-3.050000000000017
 31
0.0
  0
CIRCLE
  5
16D
330
1F
100
AcDbEntity
  8
细实线层
100
AcDbCircle
 10
-0.5999999999999851
 20
-2.900000000000018
 30
0.0
 40
0.1500000000000001
  0
CIRCLE
  5
16E
330
1F
100
AcDbEntity
  8
细实线层
100
AcDbCircle
 10
-0.5999999999999851
 20
-2.900000000000018
 30
0.0
 40
0.1500000000000001
  0
POLYLINE
  5
16F
330
1F
100
AcDbEntity
  8
细实线层
100
AcDb2dPolyline
 66
     1
 10
0.0
 20
0.0
 30
0.0
 70
     1
  0
VERTEX
  5
2A5
330
16F
100
AcDbEntity
  8
细实线层
100
AcDbVertex
100
AcDb2dVertex
 10
0.0000000000000156
 20
-3.250000000000016
 30
0.0
  0
VERTEX
  5
2A6
330
16F
100
AcDbEntity
  8
细实线层
100
AcDbVertex
100
AcDb2dVertex
 10
-1.199999999999984
 20
-3.25000000000002
 30
0.0
  0
VERTEX
  5
2A7
330
16F
100
AcDbEntity
  8
细实线层
100
AcDbVertex
100
AcDb2dVertex
 10
-1.199999999999983
 20
-3.550000000000021
 30
0.0
  0
VERTEX
  5
2A8
330
16F
100
AcDbEntity
  8
细实线层
100
AcDbVertex
100
AcDb2dVertex
 10
0.0000000000000165
 20
-3.550000000000017
 30
0.0
  0
SEQEND
  5
33F
330
16F
100
AcDbEntity
  8
细实线层
  0
LINE
  5
170
330
1F
100
AcDbEntity
  8
细实线层
100
AcDbLine
 10
-1.199999999999983
 20
-3.550000000000021
 30
0.0
 11
0.0000000000000156
 21
-3.250000000000016
 31
0.0
  0
LINE
  5
171
330
1F
100
AcDbEntity
  8
细实线层
100
AcDbLine
 10
-1.199999999999984
 20
-3.25000000000002
 30
0.0
 11
0.0000000000000165
 21
-3.550000000000017
 31
0.0
  0
CIRCLE
  5
172
330
1F
100
AcDbEntity
  8
细实线层
100
AcDbCircle
 10
-0.5999999999999837
 20
-3.400000000000019
 30
0.0
 40
0.1500000000000001
  0
CIRCLE
  5
173
330
1F
100
AcDbEntity
  8
细实线层
100
AcDbCircle
 10
-0.5999999999999837
 20
-3.400000000000019
 30
0.0
 40
0.1500000000000001
  0
POLYLINE
  5
174
330
1F
100
AcDbEntity
  8
细实线层
100
AcDb2dPolyline
 66
     1
 10
0.0
 20
0.0
 30
0.0
 70
     1
  0
VERTEX
  5
2A9
330
174
100
AcDbEntity
  8
细实线层
100
AcDbVertex
100
AcDb2dVertex
 10
0.000000000000017
 20
-3.750000000000016
 30
0.0
  0
VERTEX
  5
2AA
330
174
100
AcDbEntity
  8
细实线层
100
AcDbVertex
100
AcDb2dVertex
 10
-1.199999999999982
 20
-3.75000000000002
 30
0.0
  0
VERTEX
  5
2AB
330
174
100
AcDbEntity
  8
细实线层
100
AcDbVertex
100
AcDb2dVertex
 10
-1.199999999999981
 20
-4.05000000000002
 30
0.0
  0
VERTEX
  5
2AC
330
174
100
AcDbEntity
  8
细实线层
100
AcDbVertex
100
AcDb2dVertex
 10
0.0000000000000179
 20
-4.050000000000017
 30
0.0
  0
SEQEND
  5
33E
330
174
100
AcDbEntity
  8
细实线层
  0
LINE
  5
175
330
1F
100
AcDbEntity
  8
细实线层
100
AcDbLine
 10
-1.199999999999981
 20
-4.05000000000002
 30
0.0
 11
0.000000000000017
 21
-3.750000000000016
 31
0.0
  0
LINE
  5
176
330
1F
100
AcDbEntity
  8
细实线层
100
AcDbLine
 10
-1.199999999999982
 20
-3.75000000000002
 30
0.0
 11
0.0000000000000179
 21
-4.050000000000017
 31
0.0
  0
CIRCLE
  5
177
330
1F
100
AcDbEntity
  8
细实线层
100
AcDbCircle
 10
-0.5999999999999822
 20
-3.900000000000019
 30
0.0
 40
0.1500000000000001
  0
CIRCLE
  5
178
330
1F
100
AcDbEntity
  8
细实线层
100
AcDbCircle
 10
-0.5999999999999822
 20
-3.900000000000019
 30
0.0
 40
0.1500000000000001
  0
POLYLINE
  5
179
330
1F
100
AcDbEntity
  8
细实线层
100
AcDb2dPolyline
 66
     1
 10
0.0
 20
0.0
 30
0.0
 70
     1
  0
VERTEX
  5
2AD
330
179
100
AcDbEntity
  8
细实线层
100
AcDbVertex
100
AcDb2dVertex
 10
0.0000000000000185
 20
-4.250000000000016
 30
0.0
  0
VERTEX
  5
2AE
330
179
100
AcDbEntity
  8
细实线层
100
AcDbVertex
100
AcDb2dVertex
 10
-1.199999999999981
 20
-4.25000000000002
 30
0.0
  0
VERTEX
  5
2AF
330
179
100
AcDbEntity
  8
细实线层
100
AcDbVertex
100
AcDb2dVertex
 10
-1.19999999999998
 20
-4.55000000000002
 30
0.0
  0
VERTEX
  5
2B0
330
179
100
AcDbEntity
  8
细实线层
100
AcDbVertex
100
AcDb2dVertex
 10
0.0000000000000194
 20
-4.550000000000017
 30
0.0
  0
SEQEND
  5
33D
330
179
100
AcDbEntity
  8
细实线层
  0
LINE
  5
17A
330
1F
100
AcDbEntity
  8
细实线层
100
AcDbLine
 10
-1.19999999999998
 20
-4.55000000000002
 30
0.0
 11
0.0000000000000185
 21
-4.250000000000016
 31
0.0
  0
LINE
  5
17B
330
1F
100
AcDbEntity
  8
细实线层
100
AcDbLine
 10
-1.199999999999981
 20
-4.25000000000002
 30
0.0
 11
0.0000000000000194
 21
-4.550000000000017
 31
0.0
  0
CIRCLE
  5
17C
330
1F
100
AcDbEntity
  8
细实线层
100
AcDbCircle
 10
-0.5999999999999808
 20
-4.400000000000018
 30
0.0
 40
0.1500000000000001
  0
CIRCLE
  5
17D
330
1F
100
AcDbEntity
  8
细实线层
100
AcDbCircle
 10
-0.5999999999999808
 20
-4.400000000000018
 30
0.0
 40
0.1500000000000001
  0
POLYLINE
  5
17E
330
1F
100
AcDbEntity
  8
细实线层
100
AcDb2dPolyline
 66
     1
 10
0.0
 20
0.0
 30
0.0
 70
     1
  0
VERTEX
  5
2B1
330
17E
100
AcDbEntity
  8
细实线层
100
AcDbVertex
100
AcDb2dVertex
 10
0.0000000000000199
 20
-4.750000000000016
 30
0.0
  0
VERTEX
  5
2B2
330
17E
100
AcDbEntity
  8
细实线层
100
AcDbVertex
100
AcDb2dVertex
 10
-1.199999999999979
 20
-4.75000000000002
 30
0.0
  0
VERTEX
  5
2B3
330
17E
100
AcDbEntity
  8
细实线层
100
AcDbVertex
100
AcDb2dVertex
 10
-1.199999999999978
 20
-5.05000000000002
 30
0.0
  0
VERTEX
  5
2B4
330
17E
100
AcDbEntity
  8
细实线层
100
AcDbVertex
100
AcDb2dVertex
 10
0.0000000000000208
 20
-5.050000000000017
 30
0.0
  0
SEQEND
  5
33C
330
17E
100
AcDbEntity
  8
细实线层
  0
LINE
  5
17F
330
1F
100
AcDbEntity
  8
细实线层
100
AcDbLine
 10
-1.199999999999978
 20
-5.05000000000002
 30
0.0
 11
0.0000000000000199
 21
-4.750000000000016
 31
0.0
  0
LINE
  5
180
330
1F
100
AcDbEntity
  8
细实线层
100
AcDbLine
 10
-1.199999999999979
 20
-4.75000000000002
 30
0.0
 11
0.0000000000000208
 21
-5.050000000000017
 31
0.0
  0
CIRCLE
  5
181
330
1F
100
AcDbEntity
  8
细实线层
100
AcDbCircle
 10
-0.5999999999999793
 20
-4.900000000000018
 30
0.0
 40
0.1500000000000001
  0
CIRCLE
  5
182
330
1F
100
AcDbEntity
  8
细实线层
100
AcDbCircle
 10
-0.5999999999999793
 20
-4.900000000000018
 30
0.0
 40
0.1500000000000001
  0
POLYLINE
  5
183
330
1F
100
AcDbEntity
  8
细实线层
100
AcDb2dPolyline
 66
     1
 10
0.0
 20
0.0
 30
0.0
 70
     1
  0
VERTEX
  5
2B5
330
183
100
AcDbEntity
  8
细实线层
100
AcDbVertex
100
AcDb2dVertex
 10
0.0000000000000214
 20
-5.250000000000016
 30
0.0
  0
VERTEX
  5
2B6
330
183
100
AcDbEntity
  8
细实线层
100
AcDbVertex
100
AcDb2dVertex
 10
-1.199999999999978
 20
-5.25000000000002
 30
0.0
  0
VERTEX
  5
2B7
330
183
100
AcDbEntity
  8
细实线层
100
AcDbVertex
100
AcDb2dVertex
 10
-1.199999999999977
 20
-5.55000000000002
 30
0.0
  0
VERTEX
  5
2B8
330
183
100
AcDbEntity
  8
细实线层
100
AcDbVertex
100
AcDb2dVertex
 10
0.0000000000000222
 20
-5.550000000000017
 30
0.0
  0
SEQEND
  5
33B
330
183
100
AcDbEntity
  8
细实线层
  0
LINE
  5
184
330
1F
100
AcDbEntity
  8
细实线层
100
AcDbLine
 10
-1.199999999999977
 20
-5.55000000000002
 30
0.0
 11
0.0000000000000214
 21
-5.250000000000016
 31
0.0
  0
LINE
  5
185
330
1F
100
AcDbEntity
  8
细实线层
100
AcDbLine
 10
-1.199999999999978
 20
-5.25000000000002
 30
0.0
 11
0.0000000000000222
 21
-5.550000000000017
 31
0.0
  0
CIRCLE
  5
186
330
1F
100
AcDbEntity
  8
细实线层
100
AcDbCircle
 10
-0.5999999999999779
 20
-5.400000000000018
 30
0.0
 40
0.1500000000000001
  0
CIRCLE
  5
187
330
1F
100
AcDbEntity
  8
细实线层
100
AcDbCircle
 10
-0.5999999999999779
 20
-5.400000000000018
 30
0.0
 40
0.1500000000000001
  0
POLYLINE
  5
188
330
1F
100
AcDbEntity
  8
细实线层
100
AcDb2dPolyline
 66
     1
 10
0.0
 20
0.0
 30
0.0
 70
     1
  0
VERTEX
  5
2B9
330
188
100
AcDbEntity
  8
细实线层
100
AcDbVertex
100
AcDb2dVertex
 10
0.0000000000000228
 20
-5.750000000000016
 30
0.0
  0
VERTEX
  5
2BA
330
188
100
AcDbEntity
  8
细实线层
100
AcDbVertex
100
AcDb2dVertex
 10
-1.199999999999976
 20
-5.75000000000002
 30
0.0
  0
VERTEX
  5
2BB
330
188
100
AcDbEntity
  8
细实线层
100
AcDbVertex
100
AcDb2dVertex
 10
-1.199999999999976
 20
-6.050000000000021
 30
0.0
  0
VERTEX
  5
2BC
330
188
100
AcDbEntity
  8
细实线层
100
AcDbVertex
100
AcDb2dVertex
 10
0.0000000000000237
 20
-6.050000000000018
 30
0.0
  0
SEQEND
  5
33A
330
188
100
AcDbEntity
  8
细实线层
  0
LINE
  5
189
330
1F
100
AcDbEntity
  8
细实线层
100
AcDbLine
 10
-1.199999999999976
 20
-6.050000000000021
 30
0.0
 11
0.0000000000000228
 21
-5.750000000000016
 31
0.0
  0
LINE
  5
18A
330
1F
100
AcDbEntity
  8
细实线层
100
AcDbLine
 10
-1.199999999999976
 20
-5.75000000000002
 30
0.0
 11
0.0000000000000237
 21
-6.050000000000018
 31
0.0
  0
CIRCLE
  5
18B
330
1F
100
AcDbEntity
  8
细实线层
100
AcDbCircle
 10
-0.5999999999999764
 20
-5.900000000000018
 30
0.0
 40
0.1500000000000001
  0
CIRCLE
  5
18C
330
1F
100
AcDbEntity
  8
细实线层
100
AcDbCircle
 10
-0.5999999999999764
 20
-5.900000000000018
 30
0.0
 40
0.1500000000000001
  0
POLYLINE
  5
18D
330
1F
100
AcDbEntity
  8
细实线层
100
AcDb2dPolyline
 66
     1
 10
0.0
 20
0.0
 30
0.0
 70
     1
  0
VERTEX
  5
2BD
330
18D
100
AcDbEntity
  8
细实线层
100
AcDbVertex
100
AcDb2dVertex
 10
0.0000000000000243
 20
-6.250000000000017
 30
0.0
  0
VERTEX
  5
2BE
330
18D
100
AcDbEntity
  8
细实线层
100
AcDbVertex
100
AcDb2dVertex
 10
-1.199999999999975
 20
-6.25000000000002
 30
0.0
  0
VERTEX
  5
2BF
330
18D
100
AcDbEntity
  8
细实线层
100
AcDbVertex
100
AcDb2dVertex
 10
-1.199999999999974
 20
-6.550000000000021
 30
0.0
  0
VERTEX
  5
2C0
330
18D
100
AcDbEntity
  8
细实线层
100
AcDbVertex
100
AcDb2dVertex
 10
0.0000000000000251
 20
-6.550000000000018
 30
0.0
  0
SEQEND
  5
339
330
18D
100
AcDbEntity
  8
细实线层
  0
LINE
  5
18E
330
1F
100
AcDbEntity
  8
细实线层
100
AcDbLine
 10
-1.199999999999974
 20
-6.550000000000021
 30
0.0
 11
0.0000000000000243
 21
-6.250000000000017
 31
0.0
  0
LINE
  5
18F
330
1F
100
AcDbEntity
  8
细实线层
100
AcDbLine
 10
-1.199999999999975
 20
-6.25000000000002
 30
0.0
 11
0.0000000000000251
 21
-6.550000000000018
 31
0.0
  0
CIRCLE
  5
190
330
1F
100
AcDbEntity
  8
细实线层
100
AcDbCircle
 10
-0.599999999999975
 20
-6.400000000000019
 30
0.0
 40
0.1500000000000001
  0
CIRCLE
  5
191
330
1F
100
AcDbEntity
  8
细实线层
100
AcDbCircle
 10
-0.599999999999975
 20
-6.400000000000019
 30
0.0
 40
0.1500000000000001
  0
POLYLINE
  5
192
330
1F
100
AcDbEntity
  8
细实线层
100
AcDb2dPolyline
 66
     1
 10
0.0
 20
0.0
 30
0.0
 70
     1
  0
VERTEX
  5
2C1
330
192
100
AcDbEntity
  8
细实线层
100
AcDbVertex
100
AcDb2dVertex
 10
0.0000000000000257
 20
-6.750000000000017
 30
0.0
  0
VERTEX
  5
2C2
330
192
100
AcDbEntity
  8
细实线层
100
AcDbVertex
100
AcDb2dVertex
 10
-1.199999999999974
 20
-6.75000000000002
 30
0.0
  0
VERTEX
  5
2C3
330
192
100
AcDbEntity
  8
细实线层
100
AcDbVertex
100
AcDb2dVertex
 10
-1.199999999999973
 20
-7.050000000000021
 30
0.0
  0
VERTEX
  5
2C4
330
192
100
AcDbEntity
  8
细实线层
100
AcDbVertex
100
AcDb2dVertex
 10
0.0000000000000266
 20
-7.050000000000018
 30
0.0
  0
SEQEND
  5
338
330
192
100
AcDbEntity
  8
细实线层
  0
LINE
  5
193
330
1F
100
AcDbEntity
  8
细实线层
100
AcDbLine
 10
-1.199999999999973
 20
-7.050000000000021
 30
0.0
 11
0.0000000000000257
 21
-6.750000000000017
 31
0.0
  0
LINE
  5
194
330
1F
100
AcDbEntity
  8
细实线层
100
AcDbLine
 10
-1.199999999999974
 20
-6.75000000000002
 30
0.0
 11
0.0000000000000266
 21
-7.050000000000018
 31
0.0
  0
CIRCLE
  5
195
330
1F
100
AcDbEntity
  8
细实线层
100
AcDbCircle
 10
-0.5999999999999736
 20
-6.900000000000019
 30
0.0
 40
0.1500000000000001
  0
CIRCLE
  5
196
330
1F
100
AcDbEntity
  8
细实线层
100
AcDbCircle
 10
-0.5999999999999736
 20
-6.900000000000019
 30
0.0
 40
0.1500000000000001
  0
POLYLINE
  5
197
330
1F
100
AcDbEntity
  8
细实线层
100
AcDb2dPolyline
 66
     1
 10
0.0
 20
0.0
 30
0.0
 70
     1
  0
VERTEX
  5
2C5
330
197
100
AcDbEntity
  8
细实线层
100
AcDbVertex
100
AcDb2dVertex
 10
0.0000000000000271
 20
-7.250000000000017
 30
0.0
  0
VERTEX
  5
2C6
330
197
100
AcDbEntity
  8
细实线层
100
AcDbVertex
100
AcDb2dVertex
 10
-1.199999999999972
 20
-7.25000000000002
 30
0.0
  0
VERTEX
  5
2C7
330
197
100
AcDbEntity
  8
细实线层
100
AcDbVertex
100
AcDb2dVertex
 10
-1.199999999999971
 20
-7.550000000000021
 30
0.0
  0
VERTEX
  5
2C8
330
197
100
AcDbEntity
  8
细实线层
100
AcDbVertex
100
AcDb2dVertex
 10
0.000000000000028
 20
-7.550000000000018
 30
0.0
  0
SEQEND
  5
337
330
197
100
AcDbEntity
  8
细实线层
  0
LINE
  5
198
330
1F
100
AcDbEntity
  8
细实线层
100
AcDbLine
 10
-1.199999999999971
 20
-7.550000000000021
 30
0.0
 11
0.0000000000000271
 21
-7.250000000000017
 31
0.0
  0
LINE
  5
199
330
1F
100
AcDbEntity
  8
细实线层
100
AcDbLine
 10
-1.199999999999972
 20
-7.25000000000002
 30
0.0
 11
0.000000000000028
 21
-7.550000000000018
 31
0.0
  0
CIRCLE
  5
19A
330
1F
100
AcDbEntity
  8
细实线层
100
AcDbCircle
 10
-0.5999999999999721
 20
-7.400000000000019
 30
0.0
 40
0.1500000000000001
  0
CIRCLE
  5
19B
330
1F
100
AcDbEntity
  8
细实线层
100
AcDbCircle
 10
-0.5999999999999721
 20
-7.400000000000019
 30
0.0
 40
0.1500000000000001
  0
POLYLINE
  5
19C
330
1F
100
AcDbEntity
  8
细实线层
100
AcDb2dPolyline
 66
     1
 10
0.0
 20
0.0
 30
0.0
 70
     1
  0
VERTEX
  5
2C9
330
19C
100
AcDbEntity
  8
细实线层
100
AcDbVertex
100
AcDb2dVertex
 10
0.0000000000000286
 20
-7.750000000000017
 30
0.0
  0
VERTEX
  5
2CA
330
19C
100
AcDbEntity
  8
细实线层
100
AcDbVertex
100
AcDb2dVertex
 10
-1.199999999999971
 20
-7.75000000000002
 30
0.0
  0
VERTEX
  5
2CB
330
19C
100
AcDbEntity
  8
细实线层
100
AcDbVertex
100
AcDb2dVertex
 10
-1.19999999999997
 20
-8.050000000000022
 30
0.0
  0
VERTEX
  5
2CC
330
19C
100
AcDbEntity
  8
细实线层
100
AcDbVertex
100
AcDb2dVertex
 10
0.0000000000000295
 20
-8.050000000000018
 30
0.0
  0
SEQEND
  5
336
330
19C
100
AcDbEntity
  8
细实线层
  0
LINE
  5
19D
330
1F
100
AcDbEntity
  8
细实线层
100
AcDbLine
 10
-1.19999999999997
 20
-8.050000000000022
 30
0.0
 11
0.0000000000000286
 21
-7.750000000000017
 31
0.0
  0
LINE
  5
19E
330
1F
100
AcDbEntity
  8
细实线层
100
AcDbLine
 10
-1.199999999999971
 20
-7.75000000000002
 30
0.0
 11
0.0000000000000295
 21
-8.050000000000018
 31
0.0
  0
CIRCLE
  5
19F
330
1F
100
AcDbEntity
  8
细实线层
100
AcDbCircle
 10
-0.5999999999999707
 20
-7.900000000000019
 30
0.0
 40
0.1500000000000001
  0
CIRCLE
  5
1A0
330
1F
100
AcDbEntity
  8
细实线层
100
AcDbCircle
 10
-0.5999999999999707
 20
-7.900000000000019
 30
0.0
 40
0.1500000000000001
  0
POLYLINE
  5
1A1
330
1F
100
AcDbEntity
  8
细实线层
100
AcDb2dPolyline
 66
     1
 10
0.0
 20
0.0
 30
0.0
 70
     1
  0
VERTEX
  5
2CD
330
1A1
100
AcDbEntity
  8
细实线层
100
AcDbVertex
100
AcDb2dVertex
 10
0.00000000000003
 20
-8.250000000000018
 30
0.0
  0
VERTEX
  5
2CE
330
1A1
100
AcDbEntity
  8
细实线层
100
AcDbVertex
100
AcDb2dVertex
 10
-1.199999999999969
 20
-8.250000000000021
 30
0.0
  0
VERTEX
  5
2CF
330
1A1
100
AcDbEntity
  8
细实线层
100
AcDbVertex
100
AcDb2dVertex
 10
-1.199999999999968
 20
-8.550000000000022
 30
0.0
  0
VERTEX
  5
2D0
330
1A1
100
AcDbEntity
  8
细实线层
100
AcDbVertex
100
AcDb2dVertex
 10
0.0000000000000309
 20
-8.550000000000018
 30
0.0
  0
SEQEND
  5
335
330
1A1
100
AcDbEntity
  8
细实线层
  0
LINE
  5
1A2
330
1F
100
AcDbEntity
  8
细实线层
100
AcDbLine
 10
-1.199999999999968
 20
-8.550000000000022
 30
0.0
 11
0.00000000000003
 21
-8.250000000000018
 31
0.0
  0
LINE
  5
1A3
330
1F
100
AcDbEntity
  8
细实线层
100
AcDbLine
 10
-1.199999999999969
 20
-8.250000000000021
 30
0.0
 11
0.0000000000000309
 21
-8.550000000000018
 31
0.0
  0
CIRCLE
  5
1A4
330
1F
100
AcDbEntity
  8
细实线层
100
AcDbCircle
 10
-0.5999999999999692
 20
-8.40000000000002
 30
0.0
 40
0.1500000000000001
  0
CIRCLE
  5
1A5
330
1F
100
AcDbEntity
  8
细实线层
100
AcDbCircle
 10
-0.5999999999999692
 20
-8.40000000000002
 30
0.0
 40
0.1500000000000001
  0
POLYLINE
  5
1A6
330
1F
100
AcDbEntity
  8
细实线层
100
AcDb2dPolyline
 66
     1
 10
0.0
 20
0.0
 30
0.0
 70
     1
  0
VERTEX
  5
2D1
330
1A6
100
AcDbEntity
  8
细实线层
100
AcDbVertex
100
AcDb2dVertex
 10
0.0000000000000315
 20
-8.750000000000018
 30
0.0
  0
VERTEX
  5
2D2
330
1A6
100
AcDbEntity
  8
细实线层
100
AcDbVertex
100
AcDb2dVertex
 10
-1.199999999999968
 20
-8.750000000000021
 30
0.0
  0
VERTEX
  5
2D3
330
1A6
100
AcDbEntity
  8
细实线层
100
AcDbVertex
100
AcDb2dVertex
 10
-1.199999999999967
 20
-9.050000000000022
 30
0.0
  0
VERTEX
  5
2D4
330
1A6
100
AcDbEntity
  8
细实线层
100
AcDbVertex
100
AcDb2dVertex
 10
0.0000000000000323
 20
-9.050000000000018
 30
0.0
  0
SEQEND
  5
334
330
1A6
100
AcDbEntity
  8
细实线层
  0
LINE
  5
1A7
330
1F
100
AcDbEntity
  8
细实线层
100
AcDbLine
 10
-1.199999999999967
 20
-9.050000000000022
 30
0.0
 11
0.0000000000000315
 21
-8.750000000000018
 31
0.0
  0
LINE
  5
1A8
330
1F
100
AcDbEntity
  8
细实线层
100
AcDbLine
 10
-1.199999999999968
 20
-8.750000000000021
 30
0.0
 11
0.0000000000000323
 21
-9.050000000000018
 31
0.0
  0
CIRCLE
  5
1A9
330
1F
100
AcDbEntity
  8
细实线层
100
AcDbCircle
 10
-0.5999999999999678
 20
-8.90000000000002
 30
0.0
 40
0.1500000000000001
  0
CIRCLE
  5
1AA
330
1F
100
AcDbEntity
  8
细实线层
100
AcDbCircle
 10
-0.5999999999999678
 20
-8.90000000000002
 30
0.0
 40
0.1500000000000001
  0
POLYLINE
  5
1AB
330
1F
100
AcDbEntity
  8
细实线层
100
AcDb2dPolyline
 66
     1
 10
0.0
 20
0.0
 30
0.0
 70
     1
  0
VERTEX
  5
2D5
330
1AB
100
AcDbEntity
  8
细实线层
100
AcDbVertex
100
AcDb2dVertex
 10
10.3
 20
-1.250000000000016
 30
0.0
  0
VERTEX
  5
2D6
330
1AB
100
AcDbEntity
  8
细实线层
100
AcDbVertex
100
AcDb2dVertex
 10
11.5
 20
-1.250000000000019
 30
0.0
  0
VERTEX
  5
2D7
330
1AB
100
AcDbEntity
  8
细实线层
100
AcDbVertex
100
AcDb2dVertex
 10
11.5
 20
-1.55000000000002
 30
0.0
  0
VERTEX
  5
2D8
330
1AB
100
AcDbEntity
  8
细实线层
100
AcDbVertex
100
AcDb2dVertex
 10
10.3
 20
-1.550000000000016
 30
0.0
  0
SEQEND
  5
333
330
1AB
100
AcDbEntity
  8
细实线层
  0
LINE
  5
1AC
330
1F
100
AcDbEntity
  8
细实线层
100
AcDbLine
 10
11.5
 20
-1.55000000000002
 30
0.0
 11
10.3
 21
-1.250000000000016
 31
0.0
  0
LINE
  5
1AD
330
1F
100
AcDbEntity
  8
细实线层
100
AcDbLine
 10
11.5
 20
-1.25000000000002
 30
0.0
 11
10.3
 21
-1.550000000000016
 31
0.0
  0
CIRCLE
  5
1AE
330
1F
100
AcDbEntity
  8
细实线层
100
AcDbCircle
 10
10.9
 20
-1.400000000000018
 30
0.0
 40
0.1500000000000001
  0
POLYLINE
  5
1AF
330
1F
100
AcDbEntity
  8
细实线层
100
AcDb2dPolyline
 66
     1
 10
0.0
 20
0.0
 30
0.0
 70
     1
  0
VERTEX
  5
2D9
330
1AF
100
AcDbEntity
  8
细实线层
100
AcDbVertex
100
AcDb2dVertex
 10
10.3
 20
-1.750000000000016
 30
0.0
  0
VERTEX
  5
2DA
330
1AF
100
AcDbEntity
  8
细实线层
100
AcDbVertex
100
AcDb2dVertex
 10
11.5
 20
-1.750000000000019
 30
0.0
  0
VERTEX
  5
2DB
330
1AF
100
AcDbEntity
  8
细实线层
100
AcDbVertex
100
AcDb2dVertex
 10
11.5
 20
-2.05000000000002
 30
0.0
  0
VERTEX
  5
2DC
330
1AF
100
AcDbEntity
  8
细实线层
100
AcDbVertex
100
AcDb2dVertex
 10
10.3
 20
-2.050000000000017
 30
0.0
  0
SEQEND
  5
332
330
1AF
100
AcDbEntity
  8
细实线层
  0
LINE
  5
1B0
330
1F
100
AcDbEntity
  8
细实线层
100
AcDbLine
 10
11.5
 20
-2.05000000000002
 30
0.0
 11
10.3
 21
-1.750000000000016
 31
0.0
  0
LINE
  5
1B1
330
1F
100
AcDbEntity
  8
细实线层
100
AcDbLine
 10
11.5
 20
-1.75000000000002
 30
0.0
 11
10.3
 21
-2.050000000000017
 31
0.0
  0
CIRCLE
  5
1B2
330
1F
100
AcDbEntity
  8
细实线层
100
AcDbCircle
 10
10.9
 20
-1.900000000000018
 30
0.0
 40
0.1500000000000001
  0
CIRCLE
  5
1B3
330
1F
100
AcDbEntity
  8
细实线层
100
AcDbCircle
 10
10.9
 20
-1.900000000000018
 30
0.0
 40
0.1500000000000001
  0
POLYLINE
  5
1B4
330
1F
100
AcDbEntity
  8
细实线层
100
AcDb2dPolyline
 66
     1
 10
0.0
 20
0.0
 30
0.0
 70
     1
  0
VERTEX
  5
2DD
330
1B4
100
AcDbEntity
  8
细实线层
100
AcDbVertex
100
AcDb2dVertex
 10
10.3
 20
-2.250000000000016
 30
0.0
  0
VERTEX
  5
2DE
330
1B4
100
AcDbEntity
  8
细实线层
100
AcDbVertex
100
AcDb2dVertex
 10
11.5
 20
-2.25000000000002
 30
0.0
  0
VERTEX
  5
2DF
330
1B4
100
AcDbEntity
  8
细实线层
100
AcDbVertex
100
AcDb2dVertex
 10
11.5
 20
-2.55000000000002
 30
0.0
  0
VERTEX
  5
2E0
330
1B4
100
AcDbEntity
  8
细实线层
100
AcDbVertex
100
AcDb2dVertex
 10
10.3
 20
-2.550000000000017
 30
0.0
  0
SEQEND
  5
331
330
1B4
100
AcDbEntity
  8
细实线层
  0
LINE
  5
1B5
330
1F
100
AcDbEntity
  8
细实线层
100
AcDbLine
 10
11.5
 20
-2.55000000000002
 30
0.0
 11
10.3
 21
-2.250000000000016
 31
0.0
  0
LINE
  5
1B6
330
1F
100
AcDbEntity
  8
细实线层
100
AcDbLine
 10
11.5
 20
-2.25000000000002
 30
0.0
 11
10.3
 21
-2.550000000000017
 31
0.0
  0
CIRCLE
  5
1B7
330
1F
100
AcDbEntity
  8
细实线层
100
AcDbCircle
 10
10.9
 20
-2.400000000000018
 30
0.0
 40
0.1500000000000001
  0
CIRCLE
  5
1B8
330
1F
100
AcDbEntity
  8
细实线层
100
AcDbCircle
 10
10.9
 20
-2.400000000000018
 30
0.0
 40
0.1500000000000001
  0
POLYLINE
  5
1B9
330
1F
100
AcDbEntity
  8
细实线层
100
AcDb2dPolyline
 66
     1
 10
0.0
 20
0.0
 30
0.0
 70
     1
  0
VERTEX
  5
2E1
330
1B9
100
AcDbEntity
  8
细实线层
100
AcDbVertex
100
AcDb2dVertex
 10
10.3
 20
-2.750000000000016
 30
0.0
  0
VERTEX
  5
2E2
330
1B9
100
AcDbEntity
  8
细实线层
100
AcDbVertex
100
AcDb2dVertex
 10
11.5
 20
-2.75000000000002
 30
0.0
  0
VERTEX
  5
2E3
330
1B9
100
AcDbEntity
  8
细实线层
100
AcDbVertex
100
AcDb2dVertex
 10
11.5
 20
-3.050000000000021
 30
0.0
  0
VERTEX
  5
2E4
330
1B9
100
AcDbEntity
  8
细实线层
100
AcDbVertex
100
AcDb2dVertex
 10
10.3
 20
-3.050000000000017
 30
0.0
  0
SEQEND
  5
330
330
1B9
100
AcDbEntity
  8
细实线层
  0
LINE
  5
1BA
330
1F
100
AcDbEntity
  8
细实线层
100
AcDbLine
 10
11.5
 20
-3.050000000000021
 30
0.0
 11
10.3
 21
-2.750000000000016
 31
0.0
  0
LINE
  5
1BB
330
1F
100
AcDbEntity
  8
细实线层
100
AcDbLine
 10
11.5
 20
-2.75000000000002
 30
0.0
 11
10.3
 21
-3.050000000000017
 31
0.0
  0
CIRCLE
  5
1BC
330
1F
100
AcDbEntity
  8
细实线层
100
AcDbCircle
 10
10.9
 20
-2.900000000000018
 30
0.0
 40
0.1500000000000001
  0
CIRCLE
  5
1BD
330
1F
100
AcDbEntity
  8
细实线层
100
AcDbCircle
 10
10.9
 20
-2.900000000000018
 30
0.0
 40
0.1500000000000001
  0
POLYLINE
  5
1BE
330
1F
100
AcDbEntity
  8
细实线层
100
AcDb2dPolyline
 66
     1
 10
0.0
 20
0.0
 30
0.0
 70
     1
  0
VERTEX
  5
2E5
330
1BE
100
AcDbEntity
  8
细实线层
100
AcDbVertex
100
AcDb2dVertex
 10
10.3
 20
-3.250000000000016
 30
0.0
  0
VERTEX
  5
2E6
330
1BE
100
AcDbEntity
  8
细实线层
100
AcDbVertex
100
AcDb2dVertex
 10
11.5
 20
-3.25000000000002
 30
0.0
  0
VERTEX
  5
2E7
330
1BE
100
AcDbEntity
  8
细实线层
100
AcDbVertex
100
AcDb2dVertex
 10
11.5
 20
-3.550000000000021
 30
0.0
  0
VERTEX
  5
2E8
330
1BE
100
AcDbEntity
  8
细实线层
100
AcDbVertex
100
AcDb2dVertex
 10
10.3
 20
-3.550000000000017
 30
0.0
  0
SEQEND
  5
32F
330
1BE
100
AcDbEntity
  8
细实线层
  0
LINE
  5
1BF
330
1F
100
AcDbEntity
  8
细实线层
100
AcDbLine
 10
11.5
 20
-3.550000000000021
 30
0.0
 11
10.3
 21
-3.250000000000016
 31
0.0
  0
LINE
  5
1C0
330
1F
100
AcDbEntity
  8
细实线层
100
AcDbLine
 10
11.5
 20
-3.25000000000002
 30
0.0
 11
10.3
 21
-3.550000000000017
 31
0.0
  0
CIRCLE
  5
1C1
330
1F
100
AcDbEntity
  8
细实线层
100
AcDbCircle
 10
10.9
 20
-3.400000000000019
 30
0.0
 40
0.1500000000000001
  0
CIRCLE
  5
1C2
330
1F
100
AcDbEntity
  8
细实线层
100
AcDbCircle
 10
10.9
 20
-3.400000000000019
 30
0.0
 40
0.1500000000000001
  0
POLYLINE
  5
1C3
330
1F
100
AcDbEntity
  8
细实线层
100
AcDb2dPolyline
 66
     1
 10
0.0
 20
0.0
 30
0.0
 70
     1
  0
VERTEX
  5
2E9
330
1C3
100
AcDbEntity
  8
细实线层
100
AcDbVertex
100
AcDb2dVertex
 10
10.3
 20
-3.750000000000016
 30
0.0
  0
VERTEX
  5
2EA
330
1C3
100
AcDbEntity
  8
细实线层
100
AcDbVertex
100
AcDb2dVertex
 10
11.5
 20
-3.75000000000002
 30
0.0
  0
VERTEX
  5
2EB
330
1C3
100
AcDbEntity
  8
细实线层
100
AcDbVertex
100
AcDb2dVertex
 10
11.5
 20
-4.05000000000002
 30
0.0
  0
VERTEX
  5
2EC
330
1C3
100
AcDbEntity
  8
细实线层
100
AcDbVertex
100
AcDb2dVertex
 10
10.3
 20
-4.050000000000017
 30
0.0
  0
SEQEND
  5
32E
330
1C3
100
AcDbEntity
  8
细实线层
  0
LINE
  5
1C4
330
1F
100
AcDbEntity
  8
细实线层
100
AcDbLine
 10
11.5
 20
-4.05000000000002
 30
0.0
 11
10.3
 21
-3.750000000000016
 31
0.0
  0
LINE
  5
1C5
330
1F
100
AcDbEntity
  8
细实线层
100
AcDbLine
 10
11.5
 20
-3.75000000000002
 30
0.0
 11
10.3
 21
-4.050000000000017
 31
0.0
  0
CIRCLE
  5
1C6
330
1F
100
AcDbEntity
  8
细实线层
100
AcDbCircle
 10
10.9
 20
-3.900000000000019
 30
0.0
 40
0.1500000000000001
  0
CIRCLE
  5
1C7
330
1F
100
AcDbEntity
  8
细实线层
100
AcDbCircle
 10
10.9
 20
-3.900000000000019
 30
0.0
 40
0.1500000000000001
  0
POLYLINE
  5
1C8
330
1F
100
AcDbEntity
  8
细实线层
100
AcDb2dPolyline
 66
     1
 10
0.0
 20
0.0
 30
0.0
 70
     1
  0
VERTEX
  5
2ED
330
1C8
100
AcDbEntity
  8
细实线层
100
AcDbVertex
100
AcDb2dVertex
 10
10.3
 20
-4.250000000000016
 30
0.0
  0
VERTEX
  5
2EE
330
1C8
100
AcDbEntity
  8
细实线层
100
AcDbVertex
100
AcDb2dVertex
 10
11.5
 20
-4.25000000000002
 30
0.0
  0
VERTEX
  5
2EF
330
1C8
100
AcDbEntity
  8
细实线层
100
AcDbVertex
100
AcDb2dVertex
 10
11.49999999999999
 20
-4.55000000000002
 30
0.0
  0
VERTEX
  5
2F0
330
1C8
100
AcDbEntity
  8
细实线层
100
AcDbVertex
100
AcDb2dVertex
 10
10.3
 20
-4.550000000000017
 30
0.0
  0
SEQEND
  5
32D
330
1C8
100
AcDbEntity
  8
细实线层
  0
LINE
  5
1C9
330
1F
100
AcDbEntity
  8
细实线层
100
AcDbLine
 10
11.49999999999999
 20
-4.55000000000002
 30
0.0
 11
10.3
 21
-4.250000000000016
 31
0.0
  0
LINE
  5
1CA
330
1F
100
AcDbEntity
  8
细实线层
100
AcDbLine
 10
11.5
 20
-4.25000000000002
 30
0.0
 11
10.3
 21
-4.550000000000017
 31
0.0
  0
CIRCLE
  5
1CB
330
1F
100
AcDbEntity
  8
细实线层
100
AcDbCircle
 10
10.9
 20
-4.400000000000018
 30
0.0
 40
0.1500000000000001
  0
CIRCLE
  5
1CC
330
1F
100
AcDbEntity
  8
细实线层
100
AcDbCircle
 10
10.9
 20
-4.400000000000018
 30
0.0
 40
0.1500000000000001
  0
POLYLINE
  5
1CD
330
1F
100
AcDbEntity
  8
细实线层
100
AcDb2dPolyline
 66
     1
 10
0.0
 20
0.0
 30
0.0
 70
     1
  0
VERTEX
  5
2F1
330
1CD
100
AcDbEntity
  8
细实线层
100
AcDbVertex
100
AcDb2dVertex
 10
10.3
 20
-4.750000000000016
 30
0.0
  0
VERTEX
  5
2F2
330
1CD
100
AcDbEntity
  8
细实线层
100
AcDbVertex
100
AcDb2dVertex
 10
11.49999999999999
 20
-4.75000000000002
 30
0.0
  0
VERTEX
  5
2F3
330
1CD
100
AcDbEntity
  8
细实线层
100
AcDbVertex
100
AcDb2dVertex
 10
11.49999999999999
 20
-5.05000000000002
 30
0.0
  0
VERTEX
  5
2F4
330
1CD
100
AcDbEntity
  8
细实线层
100
AcDbVertex
100
AcDb2dVertex
 10
10.29999999999999
 20
-5.050000000000017
 30
0.0
  0
SEQEND
  5
32C
330
1CD
100
AcDbEntity
  8
细实线层
  0
LINE
  5
1CE
330
1F
100
AcDbEntity
  8
细实线层
100
AcDbLine
 10
11.49999999999999
 20
-5.05000000000002
 30
0.0
 11
10.3
 21
-4.750000000000016
 31
0.0
  0
LINE
  5
1CF
330
1F
100
AcDbEntity
  8
细实线层
100
AcDbLine
 10
11.49999999999999
 20
-4.75000000000002
 30
0.0
 11
10.29999999999999
 21
-5.050000000000017
 31
0.0
  0
CIRCLE
  5
1D0
330
1F
100
AcDbEntity
  8
细实线层
100
AcDbCircle
 10
10.9
 20
-4.900000000000018
 30
0.0
 40
0.1500000000000001
  0
CIRCLE
  5
1D1
330
1F
100
AcDbEntity
  8
细实线层
100
AcDbCircle
 10
10.9
 20
-4.900000000000018
 30
0.0
 40
0.1500000000000001
  0
POLYLINE
  5
1D2
330
1F
100
AcDbEntity
  8
细实线层
100
AcDb2dPolyline
 66
     1
 10
0.0
 20
0.0
 30
0.0
 70
     1
  0
VERTEX
  5
2F5
330
1D2
100
AcDbEntity
  8
细实线层
100
AcDbVertex
100
AcDb2dVertex
 10
10.29999999999999
 20
-5.250000000000016
 30
0.0
  0
VERTEX
  5
2F6
330
1D2
100
AcDbEntity
  8
细实线层
100
AcDbVertex
100
AcDb2dVertex
 10
11.49999999999999
 20
-5.25000000000002
 30
0.0
  0
VERTEX
  5
2F7
330
1D2
100
AcDbEntity
  8
细实线层
100
AcDbVertex
100
AcDb2dVertex
 10
11.49999999999999
 20
-5.55000000000002
 30
0.0
  0
VERTEX
  5
2F8
330
1D2
100
AcDbEntity
  8
细实线层
100
AcDbVertex
100
AcDb2dVertex
 10
10.29999999999999
 20
-5.550000000000017
 30
0.0
  0
SEQEND
  5
32B
330
1D2
100
AcDbEntity
  8
细实线层
  0
LINE
  5
1D3
330
1F
100
AcDbEntity
  8
细实线层
100
AcDbLine
 10
11.49999999999999
 20
-5.55000000000002
 30
0.0
 11
10.29999999999999
 21
-5.250000000000016
 31
0.0
  0
LINE
  5
1D4
330
1F
100
AcDbEntity
  8
细实线层
100
AcDbLine
 10
11.49999999999999
 20
-5.25000000000002
 30
0.0
 11
10.29999999999999
 21
-5.550000000000017
 31
0.0
  0
CIRCLE
  5
1D5
330
1F
100
AcDbEntity
  8
细实线层
100
AcDbCircle
 10
10.89999999999999
 20
-5.400000000000018
 30
0.0
 40
0.1500000000000001
  0
CIRCLE
  5
1D6
330
1F
100
AcDbEntity
  8
细实线层
100
AcDbCircle
 10
10.89999999999999
 20
-5.400000000000018
 30
0.0
 40
0.1500000000000001
  0
POLYLINE
  5
1D7
330
1F
100
AcDbEntity
  8
细实线层
100
AcDb2dPolyline
 66
     1
 10
0.0
 20
0.0
 30
0.0
 70
     1
  0
VERTEX
  5
2F9
330
1D7
100
AcDbEntity
  8
细实线层
100
AcDbVertex
100
AcDb2dVertex
 10
10.29999999999999
 20
-5.750000000000016
 30
0.0
  0
VERTEX
  5
2FA
330
1D7
100
AcDbEntity
  8
细实线层
100
AcDbVertex
100
AcDb2dVertex
 10
11.49999999999999
 20
-5.75000000000002
 30
0.0
  0
VERTEX
  5
2FB
330
1D7
100
AcDbEntity
  8
细实线层
100
AcDbVertex
100
AcDb2dVertex
 10
11.49999999999999
 20
-6.050000000000021
 30
0.0
  0
VERTEX
  5
2FC
330
1D7
100
AcDbEntity
  8
细实线层
100
AcDbVertex
100
AcDb2dVertex
 10
10.29999999999999
 20
-6.050000000000018
 30
0.0
  0
SEQEND
  5
32A
330
1D7
100
AcDbEntity
  8
细实线层
  0
LINE
  5
1D8
330
1F
100
AcDbEntity
  8
细实线层
100
AcDbLine
 10
11.49999999999999
 20
-6.050000000000021
 30
0.0
 11
10.29999999999999
 21
-5.750000000000016
 31
0.0
  0
LINE
  5
1D9
330
1F
100
AcDbEntity
  8
细实线层
100
AcDbLine
 10
11.49999999999999
 20
-5.75000000000002
 30
0.0
 11
10.29999999999999
 21
-6.050000000000018
 31
0.0
  0
CIRCLE
  5
1DA
330
1F
100
AcDbEntity
  8
细实线层
100
AcDbCircle
 10
10.89999999999999
 20
-5.900000000000018
 30
0.0
 40
0.1500000000000001
  0
CIRCLE
  5
1DB
330
1F
100
AcDbEntity
  8
细实线层
100
AcDbCircle
 10
10.89999999999999
 20
-5.900000000000018
 30
0.0
 40
0.1500000000000001
  0
POLYLINE
  5
1DC
330
1F
100
AcDbEntity
  8
细实线层
100
AcDb2dPolyline
 66
     1
 10
0.0
 20
0.0
 30
0.0
 70
     1
  0
VERTEX
  5
2FD
330
1DC
100
AcDbEntity
  8
细实线层
100
AcDbVertex
100
AcDb2dVertex
 10
10.29999999999999
 20
-6.250000000000017
 30
0.0
  0
VERTEX
  5
2FE
330
1DC
100
AcDbEntity
  8
细实线层
100
AcDbVertex
100
AcDb2dVertex
 10
11.49999999999999
 20
-6.25000000000002
 30
0.0
  0
VERTEX
  5
2FF
330
1DC
100
AcDbEntity
  8
细实线层
100
AcDbVertex
100
AcDb2dVertex
 10
11.49999999999999
 20
-6.550000000000021
 30
0.0
  0
VERTEX
  5
300
330
1DC
100
AcDbEntity
  8
细实线层
100
AcDbVertex
100
AcDb2dVertex
 10
10.29999999999999
 20
-6.550000000000018
 30
0.0
  0
SEQEND
  5
329
330
1DC
100
AcDbEntity
  8
细实线层
  0
LINE
  5
1DD
330
1F
100
AcDbEntity
  8
细实线层
100
AcDbLine
 10
11.49999999999999
 20
-6.550000000000021
 30
0.0
 11
10.29999999999999
 21
-6.250000000000017
 31
0.0
  0
LINE
  5
1DE
330
1F
100
AcDbEntity
  8
细实线层
100
AcDbLine
 10
11.49999999999999
 20
-6.25000000000002
 30
0.0
 11
10.29999999999999
 21
-6.550000000000018
 31
0.0
  0
CIRCLE
  5
1DF
330
1F
100
AcDbEntity
  8
细实线层
100
AcDbCircle
 10
10.89999999999999
 20
-6.400000000000019
 30
0.0
 40
0.1500000000000001
  0
CIRCLE
  5
1E0
330
1F
100
AcDbEntity
  8
细实线层
100
AcDbCircle
 10
10.89999999999999
 20
-6.400000000000019
 30
0.0
 40
0.1500000000000001
  0
POLYLINE
  5
1E1
330
1F
100
AcDbEntity
  8
细实线层
100
AcDb2dPolyline
 66
     1
 10
0.0
 20
0.0
 30
0.0
 70
     1
  0
VERTEX
  5
301
330
1E1
100
AcDbEntity
  8
细实线层
100
AcDbVertex
100
AcDb2dVertex
 10
10.29999999999999
 20
-6.750000000000017
 30
0.0
  0
VERTEX
  5
302
330
1E1
100
AcDbEntity
  8
细实线层
100
AcDbVertex
100
AcDb2dVertex
 10
11.49999999999999
 20
-6.75000000000002
 30
0.0
  0
VERTEX
  5
303
330
1E1
100
AcDbEntity
  8
细实线层
100
AcDbVertex
100
AcDb2dVertex
 10
11.49999999999999
 20
-7.050000000000021
 30
0.0
  0
VERTEX
  5
304
330
1E1
100
AcDbEntity
  8
细实线层
100
AcDbVertex
100
AcDb2dVertex
 10
10.29999999999999
 20
-7.050000000000018
 30
0.0
  0
SEQEND
  5
328
330
1E1
100
AcDbEntity
  8
细实线层
  0
LINE
  5
1E2
330
1F
100
AcDbEntity
  8
细实线层
100
AcDbLine
 10
11.49999999999999
 20
-7.050000000000021
 30
0.0
 11
10.29999999999999
 21
-6.750000000000017
 31
0.0
  0
LINE
  5
1E3
330
1F
100
AcDbEntity
  8
细实线层
100
AcDbLine
 10
11.49999999999999
 20
-6.75000000000002
 30
0.0
 11
10.29999999999999
 21
-7.050000000000018
 31
0.0
  0
CIRCLE
  5
1E4
330
1F
100
AcDbEntity
  8
细实线层
100
AcDbCircle
 10
10.89999999999999
 20
-6.900000000000019
 30
0.0
 40
0.1500000000000001
  0
CIRCLE
  5
1E5
330
1F
100
AcDbEntity
  8
细实线层
100
AcDbCircle
 10
10.89999999999999
 20
-6.900000000000019
 30
0.0
 40
0.1500000000000001
  0
POLYLINE
  5
1E6
330
1F
100
AcDbEntity
  8
细实线层
100
AcDb2dPolyline
 66
     1
 10
0.0
 20
0.0
 30
0.0
 70
     1
  0
VERTEX
  5
305
330
1E6
100
AcDbEntity
  8
细实线层
100
AcDbVertex
100
AcDb2dVertex
 10
10.29999999999999
 20
-7.250000000000017
 30
0.0
  0
VERTEX
  5
306
330
1E6
100
AcDbEntity
  8
细实线层
100
AcDbVertex
100
AcDb2dVertex
 10
11.49999999999999
 20
-7.25000000000002
 30
0.0
  0
VERTEX
  5
307
330
1E6
100
AcDbEntity
  8
细实线层
100
AcDbVertex
100
AcDb2dVertex
 10
11.49999999999999
 20
-7.550000000000021
 30
0.0
  0
VERTEX
  5
308
330
1E6
100
AcDbEntity
  8
细实线层
100
AcDbVertex
100
AcDb2dVertex
 10
10.29999999999999
 20
-7.550000000000018
 30
0.0
  0
SEQEND
  5
327
330
1E6
100
AcDbEntity
  8
细实线层
  0
LINE
  5
1E7
330
1F
100
AcDbEntity
  8
细实线层
100
AcDbLine
 10
11.49999999999999
 20
-7.550000000000021
 30
0.0
 11
10.29999999999999
 21
-7.250000000000017
 31
0.0
  0
LINE
  5
1E8
330
1F
100
AcDbEntity
  8
细实线层
100
AcDbLine
 10
11.49999999999999
 20
-7.25000000000002
 30
0.0
 11
10.29999999999999
 21
-7.550000000000018
 31
0.0
  0
CIRCLE
  5
1E9
330
1F
100
AcDbEntity
  8
细实线层
100
AcDbCircle
 10
10.89999999999999
 20
-7.400000000000019
 30
0.0
 40
0.1500000000000001
  0
CIRCLE
  5
1EA
330
1F
100
AcDbEntity
  8
细实线层
100
AcDbCircle
 10
10.89999999999999
 20
-7.400000000000019
 30
0.0
 40
0.1500000000000001
  0
POLYLINE
  5
1EB
330
1F
100
AcDbEntity
  8
细实线层
100
AcDb2dPolyline
 66
     1
 10
0.0
 20
0.0
 30
0.0
 70
     1
  0
VERTEX
  5
309
330
1EB
100
AcDbEntity
  8
细实线层
100
AcDbVertex
100
AcDb2dVertex
 10
10.29999999999999
 20
-7.750000000000017
 30
0.0
  0
VERTEX
  5
30A
330
1EB
100
AcDbEntity
  8
细实线层
100
AcDbVertex
100
AcDb2dVertex
 10
11.49999999999999
 20
-7.75000000000002
 30
0.0
  0
VERTEX
  5
30B
330
1EB
100
AcDbEntity
  8
细实线层
100
AcDbVertex
100
AcDb2dVertex
 10
11.49999999999998
 20
-8.050000000000022
 30
0.0
  0
VERTEX
  5
30C
330
1EB
100
AcDbEntity
  8
细实线层
100
AcDbVertex
100
AcDb2dVertex
 10
10.29999999999998
 20
-8.050000000000018
 30
0.0
  0
SEQEND
  5
326
330
1EB
100
AcDbEntity
  8
细实线层
  0
LINE
  5
1EC
330
1F
100
AcDbEntity
  8
细实线层
100
AcDbLine
 10
11.49999999999998
 20
-8.050000000000022
 30
0.0
 11
10.29999999999999
 21
-7.750000000000017
 31
0.0
  0
LINE
  5
1ED
330
1F
100
AcDbEntity
  8
细实线层
100
AcDbLine
 10
11.49999999999999
 20
-7.75000000000002
 30
0.0
 11
10.29999999999998
 21
-8.050000000000018
 31
0.0
  0
CIRCLE
  5
1EE
330
1F
100
AcDbEntity
  8
细实线层
100
AcDbCircle
 10
10.89999999999999
 20
-7.900000000000019
 30
0.0
 40
0.1500000000000001
  0
CIRCLE
  5
1EF
330
1F
100
AcDbEntity
  8
细实线层
100
AcDbCircle
 10
10.89999999999999
 20
-7.900000000000019
 30
0.0
 40
0.1500000000000001
  0
POLYLINE
  5
1F0
330
1F
100
AcDbEntity
  8
细实线层
100
AcDb2dPolyline
 66
     1
 10
0.0
 20
0.0
 30
0.0
 70
     1
  0
VERTEX
  5
30D
330
1F0
100
AcDbEntity
  8
细实线层
100
AcDbVertex
100
AcDb2dVertex
 10
10.29999999999998
 20
-8.250000000000018
 30
0.0
  0
VERTEX
  5
30E
330
1F0
100
AcDbEntity
  8
细实线层
100
AcDbVertex
100
AcDb2dVertex
 10
11.49999999999998
 20
-8.250000000000021
 30
0.0
  0
VERTEX
  5
30F
330
1F0
100
AcDbEntity
  8
细实线层
100
AcDbVertex
100
AcDb2dVertex
 10
11.49999999999998
 20
-8.550000000000022
 30
0.0
  0
VERTEX
  5
310
330
1F0
100
AcDbEntity
  8
细实线层
100
AcDbVertex
100
AcDb2dVertex
 10
10.29999999999998
 20
-8.550000000000018
 30
0.0
  0
SEQEND
  5
325
330
1F0
100
AcDbEntity
  8
细实线层
  0
LINE
  5
1F1
330
1F
100
AcDbEntity
  8
细实线层
100
AcDbLine
 10
11.49999999999998
 20
-8.550000000000022
 30
0.0
 11
10.29999999999998
 21
-8.250000000000018
 31
0.0
  0
LINE
  5
1F2
330
1F
100
AcDbEntity
  8
细实线层
100
AcDbLine
 10
11.49999999999998
 20
-8.250000000000021
 30
0.0
 11
10.29999999999998
 21
-8.550000000000018
 31
0.0
  0
CIRCLE
  5
1F3
330
1F
100
AcDbEntity
  8
细实线层
100
AcDbCircle
 10
10.89999999999998
 20
-8.40000000000002
 30
0.0
 40
0.1500000000000001
  0
CIRCLE
  5
1F4
330
1F
100
AcDbEntity
  8
细实线层
100
AcDbCircle
 10
10.89999999999998
 20
-8.40000000000002
 30
0.0
 40
0.1500000000000001
  0
POLYLINE
  5
1F5
330
1F
100
AcDbEntity
  8
细实线层
100
AcDb2dPolyline
 66
     1
 10
0.0
 20
0.0
 30
0.0
 70
     1
  0
VERTEX
  5
311
330
1F5
100
AcDbEntity
  8
细实线层
100
AcDbVertex
100
AcDb2dVertex
 10
10.29999999999998
 20
-8.750000000000018
 30
0.0
  0
VERTEX
  5
312
330
1F5
100
AcDbEntity
  8
细实线层
100
AcDbVertex
100
AcDb2dVertex
 10
11.49999999999998
 20
-8.750000000000021
 30
0.0
  0
VERTEX
  5
313
330
1F5
100
AcDbEntity
  8
细实线层
100
AcDbVertex
100
AcDb2dVertex
 10
11.49999999999998
 20
-9.050000000000022
 30
0.0
  0
VERTEX
  5
314
330
1F5
100
AcDbEntity
  8
细实线层
100
AcDbVertex
100
AcDb2dVertex
 10
10.29999999999998
 20
-9.050000000000018
 30
0.0
  0
SEQEND
  5
324
330
1F5
100
AcDbEntity
  8
细实线层
  0
LINE
  5
1F6
330
1F
100
AcDbEntity
  8
细实线层
100
AcDbLine
 10
11.49999999999998
 20
-9.050000000000022
 30
0.0
 11
10.29999999999998
 21
-8.750000000000018
 31
0.0
  0
LINE
  5
1F7
330
1F
100
AcDbEntity
  8
细实线层
100
AcDbLine
 10
11.49999999999998
 20
-8.750000000000021
 30
0.0
 11
10.29999999999998
 21
-9.050000000000018
 31
0.0
  0
CIRCLE
  5
1F8
330
1F
100
AcDbEntity
  8
细实线层
100
AcDbCircle
 10
10.89999999999998
 20
-8.90000000000002
 30
0.0
 40
0.1500000000000001
  0
CIRCLE
  5
1F9
330
1F
100
AcDbEntity
  8
细实线层
100
AcDbCircle
 10
10.89999999999998
 20
-8.90000000000002
 30
0.0
 40
0.1500000000000001
  0
LINE
  5
1FA
330
1F
100
AcDbEntity
  8
粗实线层
100
AcDbLine
 10
10.00000000000001
 20
-10.0
 30
0.0
 11
0.3000000000000292
 21
-10.0
 31
0.0
  0
LINE
  5
1FB
330
1F
100
AcDbEntity
  8
粗实线层
100
AcDbLine
 10
10.0
 20
-0.2999999999999989
 30
0.0
 11
10.0
 21
-10.0
 31
0.0
  0
LINE
  5
1FC
330
1F
100
AcDbEntity
  8
粗实线层
100
AcDbLine
 10
0.3000000000000324
 20
-1.300000000000014
 30
0.0
 11
1.300000000000032
 21
-0.3000000000000142
 31
0.0
  0
LINE
  5
1FD
330
1F
100
AcDbEntity
  8
粗实线层
100
AcDbLine
 10
0.3000000000000324
 20
-1.300000000000014
 30
0.0
 11
0.3000000000000324
 21
-10.0
 31
0.0
  0
LINE
  5
1FE
330
1F
100
AcDbEntity
  8
粗实线层
100
AcDbLine
 10
10.00000000000001
 20
-0.3000000000000142
 30
0.0
 11
1.300000000000032
 21
-0.3000000000000142
 31
0.0
  0
POLYLINE
  5
1FF
330
1F
100
AcDbEntity
  8
虚线层
100
AcDb2dPolyline
 66
     1
 10
0.0
 20
0.0
 30
0.0
 70
     1
  0
VERTEX
  5
315
330
1FF
100
AcDbEntity
  8
虚线层
100
AcDbVertex
100
AcDb2dVertex
 10
-1.499999999999999
 20
1.499999999999999
 30
0.0
  0
VERTEX
  5
316
330
1FF
100
AcDbEntity
  8
虚线层
100
AcDbVertex
100
AcDb2dVertex
 10
-1.499999999999999
 20
-11.8
 30
0.0
  0
VERTEX
  5
317
330
1FF
100
AcDbEntity
  8
虚线层
100
AcDbVertex
100
AcDb2dVertex
 10
11.8
 20
-11.8
 30
0.0
  0
VERTEX
  5
318
330
1FF
100
AcDbEntity
  8
虚线层
100
AcDbVertex
100
AcDb2dVertex
 10
11.8
 20
1.499999999999999
 30
0.0
  0
SEQEND
  5
323
330
1FF
100
AcDbEntity
  8
虚线层
  0
LINE
  5
200
330
1F
100
AcDbEntity
  8
粗实线层
100
AcDbLine
 10
-1.499999999999999
 20
1.499999999999999
 30
0.0
 11
-1.499999999999999
 21
-11.8
 31
0.0
  0
LINE
  5
201
330
1F
100
AcDbEntity
  8
粗实线层
100
AcDbLine
 10
-1.499999999999999
 20
-11.8
 30
0.0
 11
11.8
 21
-11.8
 31
0.0
  0
LINE
  5
202
330
1F
100
AcDbEntity
  8
粗实线层
100
AcDbLine
 10
11.8
 20
-11.8
 30
0.0
 11
11.8
 21
1.499999999999999
 31
0.0
  0
LINE
  5
203
330
1F
100
AcDbEntity
  8
粗实线层
100
AcDbLine
 10
11.8
 20
1.499999999999999
 30
0.0
 11
-1.499999999999999
 21
1.499999999999999
 31
0.0
  0
ENDSEC
  0
SECTION
  2
OBJECTS
  0
DICTIONARY
  5
C
330
0
100
AcDbDictionary
  3
ACAD_GROUP
350
D
  3
ACAD_LAYOUT
350
1A
  3
ACAD_MATERIAL
350
3B
  3
ACAD_MLEADERSTYLE
350
210
  3
ACAD_MLINESTYLE
350
17
  3
ACAD_PLOTSETTINGS
350
19
  3
ACAD_VISUALSTYLE
350
2A
  3
ACDBVARIABLEDICTIONARY
350
20E
  3
CAXA_DRAFT_BOMSTYLE
350
B9
  3
CAXA_DRAFT_CUTSSTYLE
350
AF
  3
CAXA_DRAFT_CUTSSTYLEOVERRIDE
350
B2
  3
CAXA_DRAFT_DATATABLE*MODEL
350
BC
  3
CAXA_DRAFT_DATUMSTYLE
350
AA
  3
CAXA_DRAFT_DATUMSTYLEOVERRIDE
350
AD
  3
CAXA_DRAFT_DIMSTYLE_ANGTXTVPOS
350
204
  3
CAXA_DRAFT_DIMSTYLE_ISDISP
350
208
  3
CAXA_DRAFT_DIMSTYLE_ISFILLDFM
350
206
  3
CAXA_DRAFT_DIMSTYLE_SYMBOLCOLOR
350
20A
  3
CAXA_DRAFT_DRAFTDATA
350
20C
  3
CAXA_DRAFT_FILEVERSION
350
84
  3
CAXA_DRAFT_GEOTOLSTYLE
350
A5
  3
CAXA_DRAFT_GEOTOLSTYLEOVERRIDE
350
A8
  3
CAXA_DRAFT_LEADERSTYLE
350
98
  3
CAXA_DRAFT_PARTNOSTYLE
350
B4
  3
CAXA_DRAFT_PARTNOSTYLEOVERRIDE
350
B7
  3
CAXA_DRAFT_ROUGHSTYLE
350
A0
  3
CAXA_DRAFT_ROUGHSTYLEOVERRIDE
350
A3
  3
CAXA_DRAFT_WELDSTYLE
350
9B
  3
CAXA_DRAFT_WELDSTYLEOVERRIDE
350
9E
1001
ACAD
1000
TREAT_AS_HARD
1070
     0
  0
DICTIONARY
  5
D
102
{ACAD_REACTORS
330
C
102
}
330
C
100
AcDbDictionary
1001
ACAD
1000
TREAT_AS_HARD
1070
     0
  0
DICTIONARY
  5
1A
102
{ACAD_REACTORS
330
C
102
}
330
C
100
AcDbDictionary
1001
ACAD
1000
TREAT_AS_HARD
1070
     0
  0
DICTIONARY
  5
3B
102
{ACAD_REACTORS
330
C
102
}
330
C
100
AcDbDictionary
  3
BYBLOCK
350
3D
  3
BYLAYER
350
3C
  3
GLOBAL
350
3E
1001
ACAD
1000
TREAT_AS_HARD
1070
     0
  0
DICTIONARY
  5
210
102
{ACAD_REACTORS
330
C
102
}
330
C
100
AcDbDictionary
1001
ACAD
1000
TREAT_AS_HARD
1070
     0
  0
DICTIONARY
  5
17
102
{ACAD_REACTORS
330
C
102
}
330
C
100
AcDbDictionary
  3
STANDARD
350
18
1001
ACAD
1000
TREAT_AS_HARD
1070
     0
  0
DICTIONARY
  5
19
102
{ACAD_REACTORS
330
C
102
}
330
C
100
AcDbDictionary
1001
ACAD
1000
TREAT_AS_HARD
1070
     0
  0
DICTIONARY
  5
2A
102
{ACAD_REACTORS
330
C
102
}
330
C
100
AcDbDictionary
  3
2DWIREFRAME
350
2F
  3
3D_HIDDEN
350
31
  3
3DWIREFRAME
350
30
  3
BASIC
350
32
  3
BRIGHTEN
350
36
  3
COLORCHANGE
350
3A
  3
CONCEPTUAL
350
34
  3
DIM
350
35
  3
FACEPATTERN
350
39
  3
FLAT
350
2B
  3
FLATWITHEDGES
350
2C
  3
GOURAUD
350
2D
  3
GOURAUDWITHEDGES
350
2E
  3
LINEPATTERN
350
38
  3
REALISTIC
350
33
  3
THICKEN
350
37
1001
ACAD
1000
TREAT_AS_HARD
1070
     0
  0
DICTIONARY
  5
20E
102
{ACAD_REACTORS
330
C
102
}
330
C
100
AcDbDictionary
  3
DIMASSOC
350
213
  3
HIDETEXT
350
214
  3
PSOLHEIGHT
350
212
  3
PSOLWIDTH
350
211
1001
ACAD
1000
TREAT_AS_HARD
1070
     0
  0
DICTIONARY
  5
B9
102
{ACAD_REACTORS
330
C
102
}
330
C
100
AcDbDictionary
  3
CAXA_DRAFT_CURRENTBOMSTYLE
350
BA
  3
标准
350
BB
1001
ACAD
1000
TREAT_AS_HARD
1070
     0
  0
DICTIONARY
  5
AF
102
{ACAD_REACTORS
330
C
102
}
330
C
100
AcDbDictionary
  3
CAXA_DRAFT_CURRENTCUTSSTYLE
350
B0
  3
标准
350
B1
1001
ACAD
1000
TREAT_AS_HARD
1070
     0
  0
DICTIONARY
  5
B2
102
{ACAD_REACTORS
330
C
102
}
330
C
100
AcDbDictionary
  3
CAXA_DRAFT_CUTSSTYLEOVERRIDE
350
B3
1001
ACAD
1000
TREAT_AS_HARD
1070
     0
  0
DICTIONARY
  5
BC
102
{ACAD_REACTORS
330
C
102
}
330
C
100
AcDbDictionary
  3
CAXA_DRAFT_DATATABLE*MODEL
350
BD
1001
ACAD
1000
TREAT_AS_HARD
1070
     0
  0
DICTIONARY
  5
AA
102
{ACAD_REACTORS
330
C
102
}
330
C
100
AcDbDictionary
  3
CAXA_DRAFT_CURRENTDATUMSTYLE
350
AB
  3
标准
350
AC
1001
ACAD
1000
TREAT_AS_HARD
1070
     0
  0
DICTIONARY
  5
AD
102
{ACAD_REACTORS
330
C
102
}
330
C
100
AcDbDictionary
  3
CAXA_DRAFT_DATUMSTYLEOVERRIDE
350
AE
1001
ACAD
1000
TREAT_AS_HARD
1070
     0
  0
DICTIONARY
  5
204
102
{ACAD_REACTORS
330
C
102
}
330
C
100
AcDbDictionary
  3
CAXA_DRAFT_DIMSTYLE_ANGTXTVPOS
350
205
1001
ACAD
1000
TREAT_AS_HARD
1070
     0
  0
DICTIONARY
  5
208
102
{ACAD_REACTORS
330
C
102
}
330
C
100
AcDbDictionary
  3
CAXA_DRAFT_DIMSTYLE_ISDISP
350
209
1001
ACAD
1000
TREAT_AS_HARD
1070
     0
  0
DICTIONARY
  5
206
102
{ACAD_REACTORS
330
C
102
}
330
C
100
AcDbDictionary
  3
CAXA_DRAFT_DIMSTYLE_ISFILLDFM
350
207
1001
ACAD
1000
TREAT_AS_HARD
1070
     0
  0
DICTIONARY
  5
20A
102
{ACAD_REACTORS
330
C
102
}
330
C
100
AcDbDictionary
  3
CAXA_DRAFT_DIMSTYLE_SYMBOLCOLOR
350
20B
1001
ACAD
1000
TREAT_AS_HARD
1070
     0
  0
DICTIONARY
  5
20C
102
{ACAD_REACTORS
330
C
102
}
330
C
100
AcDbDictionary
  3
CAXA_DRAFT_DRAFTDATA
350
20D
1001
ACAD
1000
TREAT_AS_HARD
1070
     0
  0
DICTIONARY
  5
84
102
{ACAD_REACTORS
330
C
102
}
330
C
100
AcDbDictionary
  3
CAXA_DRAFT_FILEVERSION
350
85
1001
ACAD
1000
TREAT_AS_HARD
1070
     0
  0
DICTIONARY
  5
A5
102
{ACAD_REACTORS
330
C
102
}
330
C
100
AcDbDictionary
  3
CAXA_DRAFT_CURRENTGEOTOLSTYLE
350
A6
  3
标准
350
A7
1001
ACAD
1000
TREAT_AS_HARD
1070
     0
  0
DICTIONARY
  5
A8
102
{ACAD_REACTORS
330
C
102
}
330
C
100
AcDbDictionary
  3
CAXA_DRAFT_GEOTOLSTYLEOVERRIDE
350
A9
1001
ACAD
1000
TREAT_AS_HARD
1070
     0
  0
DICTIONARY
  5
98
102
{ACAD_REACTORS
330
C
102
}
330
C
100
AcDbDictionary
  3
CAXA_DRAFT_CURRENTLEADERSTYLE
350
99
  3
标准
350
9A
1001
ACAD
1000
TREAT_AS_HARD
1070
     0
  0
DICTIONARY
  5
B4
102
{ACAD_REACTORS
330
C
102
}
330
C
100
AcDbDictionary
  3
CAXA_DRAFT_CURRENTPARTNOSTYLE
350
B5
  3
标准
350
B6
1001
ACAD
1000
TREAT_AS_HARD
1070
     0
  0
DICTIONARY
  5
B7
102
{ACAD_REACTORS
330
C
102
}
330
C
100
AcDbDictionary
  3
CAXA_DRAFT_PARTNOSTYLEOVERRIDE
350
B8
1001
ACAD
1000
TREAT_AS_HARD
1070
     0
  0
DICTIONARY
  5
A0
102
{ACAD_REACTORS
330
C
102
}
330
C
100
AcDbDictionary
  3
CAXA_DRAFT_CURRENTROUGHSTYLE
350
A1
  3
标准
350
A2
1001
ACAD
1000
TREAT_AS_HARD
1070
     0
  0
DICTIONARY
  5
A3
102
{ACAD_REACTORS
330
C
102
}
330
C
100
AcDbDictionary
  3
CAXA_DRAFT_ROUGHSTYLEOVERRIDE
350
A4
1001
ACAD
1000
TREAT_AS_HARD
1070
     0
  0
DICTIONARY
  5
9B
102
{ACAD_REACTORS
330
C
102
}
330
C
100
AcDbDictionary
  3
CAXA_DRAFT_CURRENTWELDSTYLE
350
9C
  3
标准
350
9D
1001
ACAD
1000
TREAT_AS_HARD
1070
     0
  0
DICTIONARY
  5
9E
102
{ACAD_REACTORS
330
C
102
}
330
C
100
AcDbDictionary
  3
CAXA_DRAFT_WELDSTYLEOVERRIDE
350
9F
1001
ACAD
1000
TREAT_AS_HARD
1070
     0
  0
MATERIAL
  5
3D
102
{ACAD_REACTORS
330
3B
102
}
102
{ACAD_XDICTIONARY
360
31F
102
}
330
3B
100
AcDbMaterial
  1
ByBlock
  0
MATERIAL
  5
3C
102
{ACAD_REACTORS
330
3B
102
}
102
{ACAD_XDICTIONARY
360
31D
102
}
330
3B
100
AcDbMaterial
  1
ByLayer
  0
MATERIAL
  5
3E
102
{ACAD_REACTORS
330
3B
102
}
102
{ACAD_XDICTIONARY
360
321
102
}
330
3B
100
AcDbMaterial
  1
Global
  0
MLINESTYLE
  5
18
102
{ACAD_REACTORS
330
17
102
}
330
17
100
AcDbMlineStyle
  2
Standard
 70
     0
  3

 62
   256
 51
90.0
 52
90.0
 71
     2
 49
0.5
 62
   256
  6
BYLAYER
 49
-0.5
 62
   256
  6
BYLAYER
  0
ACAD_PROXY_OBJECT
  5
2F
102
{ACAD_REACTORS
330
2A
102
}
330
2A
100
AcDbZombieObject
 90
      499
 91
      501
 93
      436
310
42CC9915DA5C99599C985B595049028333333333333E3BF0000000000000FB0107901411070040501600405405064090741402480A0340
1001
ACAD
1000
AcDbSavedByObjectVersion
1070
     0
  0
ACAD_PROXY_OBJECT
  5
31
102
{ACAD_REACTORS
330
2A
102
}
330
2A
100
AcDbZombieObject
 90
      499
 91
      501
 93
      500
310
424CD108121A5919195B90640502408333333333333E3BF0000000000000FB01079024090700405020000000000001110200405405064090740C02480A0340
1001
ACAD
1000
AcDbSavedByObjectVersion
1070
     0
  0
ACAD_PROXY_OBJECT
  5
30
102
{ACAD_REACTORS
330
2A
102
}
330
2A
100
AcDbZombieObject
 90
      499
 91
      501
 93
      436
310
42CCD915DA5C99599C985B595059028333333333333E3BF0000000000000FB0107901411070040501600405405064090741402480A0340
1001
ACAD
1000
AcDbSavedByObjectVersion
1070
     0
  0
ACAD_PROXY_OBJECT
  5
32
102
{ACAD_REACTORS
330
2A
102
}
330
2A
100
AcDbZombieObject
 90
      499
 91
      501
 93
      388
310
4150985CDA58D07406404333333333333E3BF0000000000000FB0107A41107004050150841D405064090741402480A0350
1001
ACAD
1000
AcDbSavedByObjectVersion
1070
     0
  0
ACAD_PROXY_OBJECT
  5
36
102
{ACAD_REACTORS
330
2A
102
}
330
2A
100
AcDbZombieObject
 90
      499
 91
      501
 93
      428
310
42109C9A59DA1D195B90C409028333333333333E3BF0000000000000FB010790141107004050150841D405064090741402480A029950
1001
ACAD
1000
AcDbSavedByObjectVersion
1070
     0
  0
ACAD_PROXY_OBJECT
  5
3A
102
{ACAD_REACTORS
330
2A
102
}
330
2A
100
AcDbZombieObject
 90
      499
 91
      501
 93
      452
310
42D0DBDB1BDC90DA185B99D95104090240C333333333333E3BF0000000000000FB0108901411070040501508421405064090741402480A0350
1001
ACAD
1000
AcDbSavedByObjectVersion
1070
     0
  0
ACAD_PROXY_OBJECT
  5
34
102
{ACAD_REACTORS
330
2A
102
}
330
2A
100
AcDbZombieObject
 90
      499
 91
      501
 93
      500
310
4290DBDB98D95C1D1D585B10940D028333333333333E3BF0000000000000FB0107902409070040501000000000000111010841D405064090740C02480A0340
1001
ACAD
1000
AcDbSavedByObjectVersion
1070
     0
  0
ACAD_PROXY_OBJECT
  5
35
102
{ACAD_REACTORS
330
2A
102
}
330
2A
100
AcDbZombieObject
 90
      499
 91
      501
 93
      412
310
40D11A5B50B409028333333333333E3BF0000000000000FB010790141107004050150841D405064090741402480A02677FFFFFD0
1001
ACAD
1000
AcDbSavedByObjectVersion
1070
     0
  0
ACAD_PROXY_OBJECT
  5
39
102
{ACAD_REACTORS
330
2A
102
}
330
2A
100
AcDbZombieObject
 90
      499
 91
      501
 93
      444
310
42D19858D95C185D1D195C9B90F409028333333333333E3BF0000000000000FB010790141107004050150841D405064090741402480A0350
1001
ACAD
1000
AcDbSavedByObjectVersion
1070
     0
  0
ACAD_PROXY_OBJECT
  5
2B
102
{ACAD_REACTORS
330
2A
102
}
330
2A
100
AcDbZombieObject
 90
      499
 91
      501
 93
      388
310
41119B185D240901404333333333333E3BF0000000000000F9010740A41107004050150841D405064090741402480A1B50
1001
ACAD
1000
AcDbSavedByObjectVersion
1070
     0
  0
ACAD_PROXY_OBJECT
  5
2C
102
{ACAD_REACTORS
330
2A
102
}
330
2A
100
AcDbZombieObject
 90
      499
 91
      501
 93
      476
310
43519B185D15DA5D1A115919D95CD0140901404333333333333E3BF0000000000000F9010740901411070040501600405405064090741402480A1B50
1001
ACAD
1000
AcDbSavedByObjectVersion
1070
     0
  0
ACAD_PROXY_OBJECT
  5
2D
102
{ACAD_REACTORS
330
2A
102
}
330
2A
100
AcDbZombieObject
 90
      499
 91
      501
 93
      412
310
41D1DBDD5C985D5910240902404333333333333E3BF0000000000000F9010740A411070040501641D405064090741402480A1B50
1001
ACAD
1000
AcDbSavedByObjectVersion
1070
     0
  0
ACAD_PROXY_OBJECT
  5
2E
102
{ACAD_REACTORS
330
2A
102
}
330
2A
100
AcDbZombieObject
 90
      499
 91
      501
 93
      500
310
4411DBDD5C985D5915DA5D1A115919D95CD0340902404333333333333E3BF0000000000000F9010740901411070040501600405405064090741402480A1B50
1001
ACAD
1000
AcDbSavedByObjectVersion
1070
     0
  0
ACAD_PROXY_OBJECT
  5
38
102
{ACAD_REACTORS
330
2A
102
}
330
2A
100
AcDbZombieObject
 90
      499
 91
      501
 93
      444
310
42D31A5B995C185D1D195C9B90E409028333333333333E3BF0000000000000FB010790141107004050750841D405064090741402483A0350
1001
ACAD
1000
AcDbSavedByObjectVersion
1070
     0
  0
ACAD_PROXY_OBJECT
  5
33
102
{ACAD_REACTORS
330
2A
102
}
330
2A
100
AcDbZombieObject
 90
      499
 91
      501
 93
      420
310
425499585B1A5CDD1A58D08409028333333333333E3BF0000000000000FB01079019070040501508421405064090741402480A1B40
1001
ACAD
1000
AcDbSavedByObjectVersion
1070
     0
  0
ACAD_PROXY_OBJECT
  5
37
102
{ACAD_REACTORS
330
2A
102
}
330
2A
100
AcDbZombieObject
 90
      499
 91
      501
 93
      412
310
41D51A1A58DAD95B90D409028333333333333E3BF0000000000000FB010790141107004050150C41D405064090741402480A0350
1001
ACAD
1000
AcDbSavedByObjectVersion
1070
     0
  0
DICTIONARYVAR
  5
213
102
{ACAD_REACTORS
330
20E
102
}
330
20E
100
DictionaryVariables
280
     0
  1
2
  0
DICTIONARYVAR
  5
214
102
{ACAD_REACTORS
330
20E
102
}
330
20E
100
DictionaryVariables
280
     0
  1
1
  0
DICTIONARYVAR
  5
212
102
{ACAD_REACTORS
330
20E
102
}
330
20E
100
DictionaryVariables
280
     0
  1
80.000000
  0
DICTIONARYVAR
  5
211
102
{ACAD_REACTORS
330
20E
102
}
330
20E
100
DictionaryVariables
280
     0
  1
5.000000
  0
XRECORD
  5
BA
102
{ACAD_REACTORS
330
B9
102
}
330
B9
100
AcDbXrecord
1000

1000
CAXA_DRAFT_CURRENTBOMSTYLE
1000
标准
  0
XRECORD
  5
BB
102
{ACAD_REACTORS
330
B9
102
}
330
B9
100
AcDbXrecord
1000

1000
CAXA_DRAFT_BOMSTYLE
1000
标准
1000

1041
7.0
1071
        0
1071
     1011
1041
1.66
1041
0.5
1071
1090519039
1071
1090519039
1071
1090519039
1071
1090519039
1041
3.5
1000
标准
1000
Continuous
1041
0.5
1071
        4
1041
0.5
1071
        4
1041
0.5
1071
        4
1041
0.5
1071
        4
1041
0.5
1071
        4
1041
0.25
1071
        3
1041
0.5
1071
        4
1041
0.5
1071
        4
1041
0.5
1071
        4
1041
0.5
1071
        4
1041
0.5
1071
        4
1041
0.25
1071
        3
1070
     0
1071
       10
1000
序号
1000
IndexID
1000

1071
       10
1071
       16
1070
     2
1070
     0
1041
0.0
1041
0.0
1041
0.0
1041
8.0
1041
14.0
1041
1.66
1041
0.5
1041
5.0
1000
标准
1071
        4
1070
     3
1071
     1001
1000
代号
1000
PCPNo
1000

1071
       10
1071
       32
1070
     2
1070
     0
1041
8.0
1041
0.0
1041
0.0
1041
40.0
1041
14.0
1041
1.66
1041
0.5
1041
5.0
1000
标准
1071
        4
1070
     3
1071
     1002
1000
名称
1000
PCPName
1000

1071
       10
1071
       32
1070
     2
1070
     0
1041
48.0
1041
0.0
1041
0.0
1041
44.0
1041
14.0
1041
1.66
1041
0.5
1041
5.0
1000
标准
1071
        4
1070
     3
1071
     1003
1000
数量
1000
Amount
1000

1071
        3
1071
       32
1070
     2
1070
     0
1041
92.0
1041
0.0
1041
0.0
1041
8.0
1041
14.0
1041
1.66
1041
0.5
1041
5.0
1000
标准
1071
        4
1070
     3
1071
     1004
1000
材料
1000
MaterialName
1000

1071
       10
1071
       32
1070
     2
1070
     0
1041
100.0
1041
0.0
1041
0.0
1041
38.0
1041
14.0
1041
1.66
1041
0.5
1041
5.0
1000
标准
1071
        4
1070
     3
1071
     1005
1000
重量
1000

1000

1071
        7
1071
       32
1070
     2
1070
     0
1041
138.0
1041
0.0
1041
0.0
1041
22.0
1041
7.0
1041
1.66
1041
0.5
1041
3.5
1000
标准
1071
        4
1070
     3
1071
     1006
1000
单件
1000
Weight
1000

1071
        7
1071
       32
1070
     2
1070
     1
1041
138.0
1041
7.0
1041
0.0
1041
10.0
1041
7.0
1041
1.66
1041
0.5
1041
3.5
1000
标准
1071
        4
1070
     3
1071
     1007
1000
总计
1000
TWeight
1000

1071
        7
1071
       32
1070
     2
1070
     1
1041
148.0
1041
7.0
1041
0.0
1041
12.0
1041
7.0
1041
1.66
1041
0.5
1041
3.5
1000
标准
1071
        4
1070
     3
1071
     1008
1000
备注
1000
Remark
1000

1071
       10
1071
       50
1070
     2
1070
     0
1041
160.0
1041
0.0
1041
0.0
1041
20.0
1041
14.0
1041
1.66
1041
0.5
1041
5.0
1000
标准
1071
        4
1070
     3
1071
     1009
1000
来源
1000
Source
1000

1071
       10
1071
       32
1070
     2
1070
     0
1041
180.0
1041
0.0
1041
0.0
1041
0.0
1041
14.0
1041
1.66
1041
0.5
1041
5.0
1000
标准
1071
        4
1070
     3
1071
     1010
1071
1090519039
1071
1090519039
1071
1090519039
  0
XRECORD
  5
B0
102
{ACAD_REACTORS
330
AF
102
}
330
AF
100
AcDbXrecord
1000

1000
CAXA_DRAFT_CURRENTCUTSSTYLE
1000
标准
  0
XRECORD
  5
B1
102
{ACAD_REACTORS
330
AF
102
}
330
AF
100
AcDbXrecord
1000

1000
CAXA_DRAFT_CUTSSTYLE
1000
标准
1000

1071
1090519039
1041
0.3499999940395355
1041
5.0
1000
标准
1070
     1
1041
4.0
1071
1090519039
1070
     0
1070
     0
1071
1090519039
1041
3.5
1070
     1
1041
1.0
1070
     0
1000
Dash Dot
  0
XRECORD
  5
B3
102
{ACAD_REACTORS
330
B2
102
}
330
B2
100
AcDbXrecord
1000

1000
CAXA_DRAFT_CUTSSTYLEOVERRIDE
1070
     0
1070
     0
1070
     0
1070
     0
1070
     0
1070
     0
1070
     0
1070
     0
1070
     0
1070
     0
1070
     0
1070
     0
1070
     0
1070
     0
1070
     0
1070
     0
1070
     0
  0
XRECORD
  5
BD
102
{ACAD_REACTORS
330
BC
102
}
330
BC
100
AcDbXrecord
1000

1000
CAXA_DRAFT_DATATABLE*Model_Space
1071
      103
1071
        2
1071
        0
1071
        0
1071
        0
1071
        9
1000
序号
1071
     1001
1000
代号
1071
     1002
1000
名称
1071
     1003
1000
数量
1071
     1004
1000
材料
1071
     1005
1000
单件
1071
     1007
1000
总计
1071
     1008
1000
备注
1071
     1009
1000
来源
1071
     1010
1000
序号
1070
     1
1000

1070
     1
1000

1070
     1
1000

1070
     1
1000

1070
     1
1071
        0
1071
        7
1000
代号
1000
名称
1000
材料
1000
单件
1000
总计
1000
备注
1000
来源
1071
        1
1000
数量
1071
        0
1000

1000

1070
     1
1000
标准
  0
XRECORD
  5
AB
102
{ACAD_REACTORS
330
AA
102
}
330
AA
100
AcDbXrecord
1000

1000
CAXA_DRAFT_CURRENTDATUMSTYLE
1000
标准
  0
XRECORD
  5
AC
102
{ACAD_REACTORS
330
AA
102
}
330
AA
100
AcDbXrecord
1000

1000
CAXA_DRAFT_DATUMSTYLE
1000
标准
1000

1070
     2
1071
1090519039
1071
1090519039
1041
3.5
1041
1.0
1000
标准
1000
标准
1071
1090519039
1070
     1
1041
0.0
1071
        1
1071
1090519039
1070
     1
  0
XRECORD
  5
AE
102
{ACAD_REACTORS
330
AD
102
}
330
AD
100
AcDbXrecord
1000

1000
CAXA_DRAFT_DATUMSTYLEOVERRIDE
1070
     0
1070
     0
1070
     0
1070
     0
1070
     0
1070
     0
1070
     0
1070
     0
1070
     0
1070
     0
1070
     0
1070
     0
1070
     0
1070
     0
1070
     0
1070
     0
  0
XRECORD
  5
205
102
{ACAD_REACTORS
330
204
102
}
330
204
100
AcDbXrecord
1000

1000
CAXA_DRAFT_DIMSTYLE_ANGTXTVPOS
1070
     1
  0
XRECORD
  5
209
102
{ACAD_REACTORS
330
208
102
}
330
208
100
AcDbXrecord
1000

1000
CAXA_DRAFT_DIMSTYLE_ISDISPZEROTOL
1070
     0
  0
XRECORD
  5
207
102
{ACAD_REACTORS
330
206
102
}
330
206
100
AcDbXrecord
1000

1000
CAXA_DRAFT_DIMSTYLE_ISFILLDFM
1070
     1
  0
XRECORD
  5
20B
102
{ACAD_REACTORS
330
20A
102
}
330
20A
100
AcDbXrecord
1000

1000
CAXA_DRAFT_DIMSTYLE_SYMBOLCOLOR
1071
1090519039
  0
XRECORD
  5
20D
102
{ACAD_REACTORS
330
20C
102
}
330
20C
100
AcDbXrecord
1000
CAXA_DRAFT_DRAFTDATA
1071
     1091
1004
0800000030002E003000000026000000430061007800610044007200610066007400200044006F00630075006D0065006E007400000016000000310032002E0030002E0030002E0032003600330000005C00000043006F00700079007200690067006800740020002800630029002000320030003100300020004300410058
1004
0041002E00200041006C006C0020007200690067006800740073002000720065007300650072007600650064002E00000014EC5228043D694283F9FD61A3586F0B01000000E007030002000800160026001900D003E007030002000800160026001900D0030100000000000000000000000000000000000000000000000000
1004
00
1004
00000000000000000000000000000000000000000000000000000000000000000000000000000000000000000000000000000000000000000000000000000000000000000000000000000000000000000000000000000000000000000000000000000000000000000000000000000000000000000000000000000000000000
1004
000000000000004E0000008F00E10028008600C600960053008200C000FE002300F700C400E7003D008700C600E50029009E00CC00E00056008A00D900950054008500C500920023008600CC00E50056008300B600AE000000020000000E00000041007500740068006F00720000001000000042004500450046004D004100
1004
4E
1004
0000001E000000500072006F006400750063007400560065007200730069006F006E00000010000000310031002E0031004400650076000000000000000800000030002E0030000000000000000000000000000000000000000000000000000000000000000000000000000000000000000000000000000000000000000000
1004
00000000000000000000000000000000000000000000000000000000000000000000000000000000000000000000000000000000000000000000000000000000000000000000000000000000000000000000000000000000000000000000000000000000000000000000000000000800000030002E00300000000000000000
1004
00
1004
00000000000000000000000000000000000000000000000000000000000000000000000000000000000000000000000000000000000000000000000000000000000000000000000000000000000000000000000000000000000000000000000000000000000000000000000000000000000000000000000000000000000000
1004
0000000000000000000000000000000000000000000000000000000800000030002E003000000000000000000000000000000000000000000000000000000000000000000000000000000000000000000000000000000000000000000000000000000000000000000000000000000000000000000000000000000000000000
1004
00
1004
0000000000000000000000000000000000000000000000000000000000000000000000000000000000000000000000000000000000000000000000000000000000000000000000
  0
XRECORD
  5
85
102
{ACAD_REACTORS
330
84
102
}
330
84
100
AcDbXrecord
1000
CAXA_DRAFT_FILEVERSION
1000
12.0.0.263
1000
10.1.0.000
1000
12.0.0.000.20120615
  0
XRECORD
  5
A6
102
{ACAD_REACTORS
330
A5
102
}
330
A5
100
AcDbXrecord
1000

1000
CAXA_DRAFT_CURRENTGEOTOLSTYLE
1000
标准
  0
XRECORD
  5
A7
102
{ACAD_REACTORS
330
A5
102
}
330
A5
100
AcDbXrecord
1000

1000
CAXA_DRAFT_GEOTOLSTYLE
1000
标准
1000

1000
标准
1000
标准
1070
     1
1070
     0
1070
     0
1070
     0
1070
     1
1070
     0
1070
     3
1000
.
1070
     0
1070
     1
1070
     0
1070
     0
1070
     0
1070
     3
1041
1.0
1000
.
1070
     0
1070
     1
1070
     0
1000
Continuous
1071
1090519039
1071
1090519039
1041
3.5
1071
1090519039
1041
1.0
1071
1090519039
  0
XRECORD
  5
A9
102
{ACAD_REACTORS
330
A8
102
}
330
A8
100
AcDbXrecord
1000

1000
CAXA_DRAFT_GEOTOLSTYLEOVERRIDE
1070
     0
1070
     0
1070
     0
1070
     0
1070
     0
1070
     0
1070
     0
1070
     0
1070
     0
1070
     0
1070
     0
1070
     0
1070
     0
1070
     0
1070
     0
1070
     0
1070
     0
1070
     0
1070
     0
1070
     0
1070
     0
1070
     0
1070
     0
1070
     0
1070
     0
1070
     0
1070
     0
1070
     0
1070
     0
1070
     0
  0
XRECORD
  5
99
102
{ACAD_REACTORS
330
98
102
}
330
98
100
AcDbXrecord
1000

1000
CAXA_DRAFT_CURRENTLEADERSTYLE
1000
标准
  0
XRECORD
  5
9A
102
{ACAD_REACTORS
330
98
102
}
330
98
100
AcDbXrecord
1000

1000
CAXA_DRAFT_LEADERSTYLE
1000
标准
1000

1070
     1
1041
4.0
1041
0.0
1041
0.0
1041
3.5
1000
Continuous
1071
1090519039
1041
3.5
1070
     1
  0
XRECORD
  5
B5
102
{ACAD_REACTORS
330
B4
102
}
330
B4
100
AcDbXrecord
1000

1000
CAXA_DRAFT_CURRENTPARTNOSTYLE
1000
标准
  0
XRECORD
  5
B6
102
{ACAD_REACTORS
330
B4
102
}
330
B4
100
AcDbXrecord
1000

1000
CAXA_DRAFT_PARTNOSTYLE
1000
标准
1000

1071
        0
1000
标准
1000
ByLayer
1041
5.0
1041
0.5
1071
        3
1041
2.0
1041
5.0
1041
10.0
1041
1.5
1041
1.1
1041
1.1
1071
        0
1000

1071
       -1
1071
       -1
1041
4.0
1041
1.0
1041
0.7
1041
0.9
1071
        1
1071
        1
1000
序号
1071
        1
1071
        2
1000

1000

1041
1.0
  0
XRECORD
  5
B8
102
{ACAD_REACTORS
330
B7
102
}
330
B7
100
AcDbXrecord
1000

1000
CAXA_DRAFT_PARTNOSTYLEOVERRIDE
1070
     0
1070
     0
1070
     0
1070
     0
1070
     0
1070
     0
1070
     0
1070
     0
1070
     0
1070
     0
1070
     0
1070
     0
1070
     0
1070
     0
1070
     0
1070
     0
  0
XRECORD
  5
A1
102
{ACAD_REACTORS
330
A0
102
}
330
A0
100
AcDbXrecord
1000

1000
CAXA_DRAFT_CURRENTROUGHSTYLE
1000
标准
  0
XRECORD
  5
A2
102
{ACAD_REACTORS
330
A0
102
}
330
A0
100
AcDbXrecord
1000

1000
CAXA_DRAFT_ROUGHSTYLE
1000
标准
1000

1000
标准
1000
标准
1000
Continuous
1071
1090519039
1071
1090519039
1041
3.5
1041
1.0
1041
0.0
1071
        0
1041
0.0
1071
        0
  0
XRECORD
  5
A4
102
{ACAD_REACTORS
330
A3
102
}
330
A3
100
AcDbXrecord
1000

1000
CAXA_DRAFT_ROUGHSTYLEOVERRIDE
1070
     0
1070
     0
1070
     0
1070
     0
1070
     0
1070
     0
1070
     0
1070
     0
1070
     0
1070
     0
1070
     0
1070
     0
  0
XRECORD
  5
9C
102
{ACAD_REACTORS
330
9B
102
}
330
9B
100
AcDbXrecord
1000

1000
CAXA_DRAFT_CURRENTWELDSTYLE
1000
标准
  0
XRECORD
  5
9D
102
{ACAD_REACTORS
330
9B
102
}
330
9B
100
AcDbXrecord
1000

1000
CAXA_DRAFT_WELDSTYLE
1000
标准
1000

1000
标准
1000
标准
1041
0.3
1070
     0
1041
1.0
1041
0.5
1041
3.5
1041
1.0
1071
1090519039
1071
1090519039
1000
Dash
1041
0.0
1071
        0
  0
XRECORD
  5
9F
102
{ACAD_REACTORS
330
9E
102
}
330
9E
100
AcDbXrecord
1000

1000
CAXA_DRAFT_WELDSTYLEOVERRIDE
1070
     0
1070
     0
1070
     0
1070
     0
1070
     0
1070
     0
1070
     0
1070
     0
1070
     0
1070
     0
1070
     0
1070
     0
1070
     0
1070
     0
  0
DICTIONARY
  5
31F
330
3D
100
AcDbDictionary
  3
ACAD_XREC_ROUNDTRIP
360
320
1001
ACAD
1000
TREAT_AS_HARD
1070
     1
  0
DICTIONARY
  5
31D
330
3C
100
AcDbDictionary
  3
ACAD_XREC_ROUNDTRIP
360
31E
1001
ACAD
1000
TREAT_AS_HARD
1070
     1
  0
DICTIONARY
  5
321
330
3E
100
AcDbDictionary
  3
ACAD_XREC_ROUNDTRIP
360
322
1001
ACAD
1000
TREAT_AS_HARD
1070
     1
  0
XRECORD
  5
320
102
{ACAD_REACTORS
330
31F
102
}
330
31F
100
AcDbXrecord
102
MATERIAL
148
0.0
149
0.0
149
0.0
 93
        0
 94
      127
282
     0
 72
     1
 77
     1
171
     1
175
     1
179
     1
273
     0
  0
XRECORD
  5
31E
102
{ACAD_REACTORS
330
31D
102
}
330
31D
100
AcDbXrecord
102
MATERIAL
148
0.0
149
0.0
149
0.0
 93
        0
 94
      127
282
     0
 72
     1
 77
     1
171
     1
175
     1
179
     1
273
     0
  0
XRECORD
  5
322
102
{ACAD_REACTORS
330
321
102
}
330
321
100
AcDbXrecord
102
MATERIAL
148
0.0
149
0.0
149
0.0
 93
        0
 94
      127
282
     0
 72
     1
 77
     1
171
     1
175
     1
179
     1
273
     0
  0
ENDSEC
  0
EOF
